<?xml version="1.0" standalone="no"?>
<!DOCTYPE svg PUBLIC "-//W3C//DTD SVG 1.1//EN" "http://www.w3.org/Graphics/SVG/1.1/DTD/svg11.dtd" >
<svg xmlns="http://www.w3.org/2000/svg" xmlns:xlink="http://www.w3.org/1999/xlink" version="1.1">
<metadata>
Created by FontForge 20200314 at Fri Jul  8 18:18:14 2016
 By Unknown
(c) 2014 The Monotype Corporation. All Rights Reserved.
</metadata>
<defs>
<font id="RockwellNovaW07-ExtraBold" horiz-adv-x="1665" >
  <font-face 
    font-family="RockwellNovaW07-ExtraBold"
    font-weight="800"
    font-stretch="normal"
    units-per-em="2048"
    panose-1="2 6 9 3 2 2 5 2 4 3"
    ascent="1638"
    descent="-410"
    x-height="1053"
    cap-height="1507"
    bbox="-453 -485 2814 2099"
    underline-thickness="102"
    underline-position="-256"
    unicode-range="U+0020-2122"
  />
<missing-glyph horiz-adv-x="1110" 
d="M0 0v1554h1110v-1554h-1110zM178 1444l377 -567l377 567h-754zM111 1343v-1132l376 565zM999 211v1132l-378 -567zM932 111l-377 567l-377 -567h754z" />
    <glyph glyph-name="f_i.liga" unicode="fi" horiz-adv-x="1757" 
d="M1559 1243l-531 -59q-8 51 -48 79.5t-99 28.5q-74 0 -108 -46t-34 -144v-49h834v-721h125v-332h-756v332h86v389h-289v-389h86v-332h-770v332h138v389h-138v332h135v37q0 223 166 335.5t514 112.5q580 0 689 -295z" />
    <glyph glyph-name="f_l.liga" unicode="fl" horiz-adv-x="1757" 
d="M1169 1507h404v-1175h125v-332h-756v332h86v844q-8 51 -47 83.5t-92 32.5q-80 0 -115 -46t-35 -152v-41h142v-332h-142v-389h86v-332h-770v332h138v389h-138v332h138v28q0 232 164.5 344.5t494.5 112.5q78 0 144.5 -6t172.5 -25z" />
    <glyph glyph-name=".notdef" horiz-adv-x="1110" 
d="M0 0v1554h1110v-1554h-1110zM178 1444l377 -567l377 567h-754zM111 1343v-1132l376 565zM999 211v1132l-378 -567zM932 111l-377 567l-377 -567h754z" />
    <glyph glyph-name="glyph1" horiz-adv-x="0" 
 />
    <glyph glyph-name="glyph1" horiz-adv-x="0" 
 />
    <glyph glyph-name="glyph2" horiz-adv-x="739" 
 />
    <glyph glyph-name="space" unicode=" " horiz-adv-x="739" 
 />
    <glyph glyph-name="exclam" unicode="!" horiz-adv-x="879" 
d="M621 606h-365l-78 469v432h520v-424zM168 0v395h541v-395h-541z" />
    <glyph glyph-name="quotedbl" unicode="&#x22;" horiz-adv-x="1110" 
d="M424 924h-301l-70 321v262h441v-262zM987 924h-301l-70 321v262h441v-262z" />
    <glyph glyph-name="numbersign" unicode="#" horiz-adv-x="1483" 
d="M973 1169l80 381h299l-80 -381h139v-299h-201l-49 -235h250v-299h-311l-80 -381h-301l80 381h-289l-80 -381h-299l80 381h-139v299h200l50 235h-250v299h313l80 381h299l-80 -381h289zM862 635l47 235h-288l-48 -235h289z" />
    <glyph glyph-name="dollar" unicode="$" horiz-adv-x="1386" 
d="M440 100v-100h-340v483h340q33 -102 88.5 -149t141.5 -47q55 0 88 25.5t33 72.5q0 45 -43 85t-146 83l-102 45q-199 86 -305.5 201.5t-106.5 281.5q0 127 57.5 226.5t160 158t235.5 62.5v207h243v-252q54 -25 113 -70v94h340v-428h-340q-27 84 -81 130t-136 46
q-51 0 -82 -24.5t-31 -65.5q0 -47 32 -72.5t210 -107.5l113 -55q374 -185 374 -492q0 -125 -64.5 -230.5t-177 -166.5t-253.5 -61h-17v-256h-243v317q-58 25 -101 59z" />
    <glyph glyph-name="percent" unicode="%" horiz-adv-x="1997" 
d="M846 1122q0 -118 -50.5 -212.5t-139.5 -147.5t-205 -53q-117 0 -207 53t-140.5 147.5t-50.5 212.5q0 121 50.5 215.5t140.5 147.5t207 53q114 0 204 -53t140.5 -147.5t50.5 -215.5zM367 0l1015 1507h238l-1016 -1507h-237zM451 915q47 0 63 44.5t16 162.5q0 90 -7 134
t-23.5 59.5t-48.5 15.5q-45 0 -63.5 -48t-18.5 -163q0 -119 17 -162t65 -43zM1944 385q0 -121 -50.5 -215t-139.5 -147.5t-206 -53.5q-116 0 -206.5 53.5t-140.5 147.5t-50 215q0 119 50 213t140.5 147.5t206.5 53.5q115 0 205 -53.5t140.5 -147.5t50.5 -213zM1548 176
q47 0 63.5 44t16.5 165q0 90 -7 133t-23.5 58.5t-49.5 15.5q-45 0 -63.5 -48t-18.5 -163q0 -119 17.5 -162t64.5 -43z" />
    <glyph glyph-name="ampersand" unicode="&#x26;" horiz-adv-x="1942" 
d="M1235 1532v-313h-21q-149 0 -149 -105q0 -33 23.5 -70.5t80.5 -111.5l134 -166q108 152 178 330h379v-361h-166q-25 -71 -64 -125.5t-102 -117.5l102 -130h230v-362h-637l-90 115q-209 -146 -500 -146q-264 0 -410.5 120t-146.5 335q0 176 125 313t344 197
q-66 119 -66 237q0 189 142.5 278t441.5 89q86 0 172 -6zM760 254q53 0 98 19.5t98 66.5l-270 344q-65 -29 -101 -82t-36 -123q0 -94 60.5 -159.5t150.5 -65.5z" />
    <glyph glyph-name="quotesingle" unicode="'" horiz-adv-x="616" 
d="M459 924h-301l-70 321v262h440v-262z" />
    <glyph glyph-name="parenleft" unicode="(" horiz-adv-x="1016" 
d="M666 526q0 -237 27.5 -380.5t86 -223.5t158.5 -131v-274q-250 55 -440.5 199.5t-294 354.5t-103.5 457q0 256 107.5 466t297 350.5t433.5 193.5v-274q-143 -62 -207.5 -235t-64.5 -503z" />
    <glyph glyph-name="parenright" unicode=")" horiz-adv-x="1016" 
d="M918 520q0 -244 -103.5 -450.5t-293 -351t-443.5 -201.5v274q155 68 213.5 243t58.5 492q0 330 -64.5 503t-207.5 235v274q260 -57 449.5 -204.5t290 -357.5t100.5 -456z" />
    <glyph glyph-name="asterisk" unicode="*" horiz-adv-x="1386" 
d="M745 977q113 63 178.5 113.5t102.5 107.5l186 57l103 -319l-182 -62q-109 29 -193 29q-106 0 -162 -20q78 -78 147.5 -125t153.5 -74l111 -154l-272 -198l-115 151q0 82 -27.5 171t-77.5 171q-47 -90 -70.5 -170t-27.5 -172l-119 -151l-272 198l110 154q64 21 156 81
t143 118q-106 18 -161 18q-45 0 -100.5 -7t-94.5 -20l-184 62l100 319l184 -57q64 -76 116 -116t169 -105q-18 104 -48 183t-77 155v192h350v-192q-51 -72 -83.5 -162t-43.5 -176z" />
    <glyph glyph-name="plus" unicode="+" horiz-adv-x="1483" 
d="M1364 928v-350h-446v-447h-353v447h-444v350h444v446h353v-446h446z" />
    <glyph glyph-name="comma" unicode="," horiz-adv-x="879" 
d="M270 -442q-65 0 -102 4v215q117 0 161 45t44 160v18h-205v395h541v-485q0 -162 -114 -257t-325 -95z" />
    <glyph glyph-name="hyphen" unicode="-" horiz-adv-x="995" 
d="M111 291v469h772v-469h-772z" />
    <glyph glyph-name="period" unicode="." horiz-adv-x="879" 
d="M168 0v395h541v-395h-541z" />
    <glyph glyph-name="slash" unicode="/" horiz-adv-x="1100" 
d="M0 0l721 1507h379l-721 -1507h-379z" />
    <glyph glyph-name="zero" unicode="0" horiz-adv-x="1626" 
d="M1524 743q0 -235 -96.5 -408t-261.5 -264t-363 -91q-197 0 -356.5 97t-252 277.5t-92.5 419.5q0 221 93.5 395t255 271.5t364.5 97.5q207 0 367.5 -96t251 -276.5t90.5 -422.5zM815 328q57 0 91 42t49.5 135t15.5 255q0 235 -36 332.5t-120 97.5q-82 0 -120 -95.5
t-38 -308.5q0 -180 15.5 -278t49.5 -139t93 -41z" />
    <glyph glyph-name="one" unicode="1" horiz-adv-x="1626" 
d="M1325 362v-362h-963v362h216v783h-216v362h756v-1145h207z" />
    <glyph glyph-name="two" unicode="2" horiz-adv-x="1626" 
d="M1454 1087q0 -77 -28.5 -137.5t-79.5 -118.5q-72 -69 -166.5 -126.5t-268.5 -141.5q-135 -65 -183 -99t-81 -91h436l4 129h373l-12 -502h-1323v25q0 215 82 370.5t239 280.5q68 53 185 133q164 104 226.5 166.5t62.5 142.5q0 56 -37 86.5t-109 30.5q-84 0 -127 -44
t-51 -132l-449 10q0 223 167 346t474 123q320 0 493 -113.5t173 -337.5z" />
    <glyph glyph-name="three" unicode="3" horiz-adv-x="1626" 
d="M1481 1112q0 -111 -77 -189.5t-218 -119.5v-4q168 -31 258 -122t90 -231q0 -141 -88 -246.5t-250 -162.5t-379 -57q-338 0 -516 134t-182 392l452 29q7 -107 61 -157t163 -50q86 0 135 40t49 111q0 170 -277 170v273q123 0 181.5 43t58.5 114q0 62 -44 97.5t-116 35.5
q-73 0 -118.5 -35.5t-51.5 -103.5v-4l-467 23q17 219 190 332.5t492 113.5q203 0 350.5 -52t225.5 -148.5t78 -225.5z" />
    <glyph glyph-name="four" unicode="4" horiz-adv-x="1626" 
d="M1505 793v-297h-155v-160h155v-336h-850v336h183v160h-697l-84 315l764 727h529v-745h155zM838 1153l-367 -360h367v360z" />
    <glyph glyph-name="five" unicode="5" horiz-adv-x="1626" 
d="M1141 1083l-35 91h-539l-14 -256q86 49 160.5 66t185.5 17q186 0 328.5 -62t220.5 -175t78 -258q0 -152 -83 -270.5t-242 -187t-380 -68.5q-286 0 -480 113.5t-235 312.5l455 24q49 -102 201 -102q100 0 155.5 46t55.5 128q0 80 -53.5 123t-147.5 43q-117 0 -207 -60
l-415 115l49 784h1257v-424h-315z" />
    <glyph glyph-name="six" unicode="6" horiz-adv-x="1626" 
d="M1530 1163l-438 -33q-54 93 -183 93q-108 0 -167.5 -82t-59.5 -236v-10q61 43 146 68.5t165 25.5q154 0 279 -62.5t196.5 -173t71.5 -249.5q0 -150 -84 -269.5t-232.5 -187t-334.5 -67.5q-211 0 -380 89t-268.5 266t-99.5 429q0 242 90.5 416t261.5 266t410 92
q256 0 419 -97.5t208 -277.5zM872 313q76 0 116 42t40 124q0 86 -46 132t-122 46q-41 0 -90 -14t-96 -39q0 -147 49 -219t149 -72z" />
    <glyph glyph-name="seven" unicode="7" horiz-adv-x="1626" 
d="M1108 373h199v-373h-934v373h202q74 219 186.5 415.5t274.5 385.5h-512v-207h-362v540h1331v-288q-319 -498 -385 -846z" />
    <glyph glyph-name="eight" unicode="8" horiz-adv-x="1626" 
d="M1487 1118q0 -112 -74 -194t-219 -129q182 -62 260 -144t78 -219q0 -215 -185.5 -333.5t-539.5 -118.5q-346 0 -529.5 117.5t-183.5 332.5q0 121 81 209t253 156q-139 41 -215 122.5t-76 190.5q0 129 79 226.5t230.5 150.5t358.5 53q209 0 363.5 -52t236.5 -146.5
t82 -221.5zM815 936q82 0 127 37t45 106q0 66 -46 105t-124 39q-80 0 -131 -41t-51 -105q0 -65 48 -103t132 -38zM815 281q92 0 145.5 49t53.5 131q0 84 -52.5 132t-144.5 48t-149.5 -52t-57.5 -134q0 -78 56.5 -126t148.5 -48z" />
    <glyph glyph-name="nine" unicode="9" horiz-adv-x="1626" 
d="M1522 756q0 -369 -201 -572.5t-569 -203.5q-254 0 -414 95t-205 279l438 35q52 -94 183 -94q108 0 167.5 83t59.5 234v13q-59 -45 -144 -71t-167 -26q-156 0 -281 63.5t-195.5 174.5t-70.5 248q0 149 85 269t234.5 187.5t335.5 67.5q209 0 378 -90t267.5 -266t98.5 -426z
M801 860q43 0 93 14.5t95 40.5q0 146 -48 218.5t-153 72.5q-71 0 -112 -42t-41 -124q0 -86 45 -133t121 -47z" />
    <glyph glyph-name="colon" unicode=":" horiz-adv-x="879" 
d="M168 657v396h541v-396h-541zM168 0v395h541v-395h-541z" />
    <glyph glyph-name="semicolon" unicode=";" horiz-adv-x="879" 
d="M168 657v396h541v-396h-541zM270 -442q-65 0 -102 4v215q117 0 161 45t44 160v18h-205v395h541v-485q0 -162 -114 -257t-325 -95z" />
    <glyph glyph-name="less" unicode="&#x3c;" horiz-adv-x="1481" 
d="M1364 455v-379l-1247 514v319l1247 516v-378l-762 -297z" />
    <glyph glyph-name="equal" unicode="=" horiz-adv-x="1481" 
d="M117 844v350h1247v-350h-1247zM117 311v351h1247v-351h-1247z" />
    <glyph glyph-name="greater" unicode="&#x3e;" horiz-adv-x="1481" 
d="M1364 590l-1247 -514v379l762 295l-762 297v378l1247 -516v-319z" />
    <glyph glyph-name="question" unicode="?" horiz-adv-x="1409" 
d="M625 905q110 0 169.5 54.5t59.5 144.5q0 80 -52 131t-132 51q-84 0 -129 -47t-45 -131h-439q11 203 178.5 316.5t466.5 113.5q199 0 346.5 -53t226.5 -150.5t79 -228.5q0 -119 -64.5 -215t-179.5 -150.5t-260 -54.5h-21l-20 -98h-285l-26 327h12q41 -10 115 -10zM395 0
v395h539v-395h-539z" />
    <glyph glyph-name="at" unicode="@" horiz-adv-x="2001" 
d="M1935 754q0 -205 -84 -359.5t-225 -237.5t-307 -83q-88 0 -140.5 26.5t-76.5 87.5q-74 -67 -135.5 -90.5t-151.5 -23.5q-149 0 -230 108.5t-81 268.5q0 165 65.5 321t187.5 254t283 98q72 0 127.5 -29.5t69.5 -84.5l20 84h281l-188 -705q-9 -33 -9 -47q0 -37 41 -37
q68 0 134.5 57.5t108.5 163t42 240.5q0 149 -70.5 272t-208 195t-327.5 72q-213 0 -376 -90.5t-254 -260.5t-91 -401q0 -205 83 -354.5t237.5 -230.5t361.5 -81q170 0 317.5 44t255.5 128l138 -170q-127 -114 -310.5 -172.5t-410.5 -58.5q-295 0 -507 111.5t-322.5 313.5
t-110.5 468q0 315 132 537.5t357 334t502 111.5q280 0 478 -110.5t296 -289t98 -380.5zM821 406q0 -115 72 -115q70 0 129 86t93 207t34 215q0 100 -88 100q-74 0 -128 -88t-83 -207t-29 -198z" />
    <glyph glyph-name="A" unicode="A" horiz-adv-x="1688" 
d="M1264 1145l288 -783h111v-362h-789v332h132l-58 188h-387l-63 -188h123v-332h-596v362h112l285 783h-123v362h1085v-362h-120zM891 709l-127 417h-4l-139 -417h270z" />
    <glyph glyph-name="B" unicode="B" horiz-adv-x="1880" 
d="M1735 1116q0 -117 -74 -198.5t-201 -108.5v-6q154 -39 242 -142.5t88 -236.5q0 -201 -172 -312.5t-485 -111.5h-1051v362h131v783h-131v362h1083q271 0 420.5 -102t149.5 -289zM1137 1038q0 70 -45 104t-144 34h-151v-275h145q100 0 147.5 33t47.5 104zM1157 477
q0 152 -196 152h-164v-297h139q115 0 168 32.5t53 112.5z" />
    <glyph glyph-name="C" unicode="C" horiz-adv-x="1780" 
d="M1278 1407v100h362v-551h-374q-35 109 -101.5 164.5t-156.5 55.5q-125 0 -184.5 -104.5t-59.5 -313.5q0 -221 60.5 -325.5t191.5 -104.5q112 0 180 82t100 256l392 -140q-70 -284 -256.5 -417.5t-493.5 -133.5q-262 0 -449.5 101.5t-283.5 281t-96 410.5q0 219 97 395
t267 275.5t377 99.5q125 0 236.5 -34t191.5 -97z" />
    <glyph glyph-name="D" unicode="D" horiz-adv-x="1929" 
d="M1817 758q0 -363 -216.5 -560.5t-613.5 -197.5h-889v362h119v785h-119v360h867q221 0 414.5 -78.5t315.5 -246.5t122 -424zM891 1145h-90v-783h90q141 0 217 90.5t76 303.5q0 217 -71 303t-222 86z" />
    <glyph glyph-name="E" unicode="E" 
d="M1143 1026v119h-342v-230h299v-307h-299v-246h342v119h395v-481h-1438v362h117v783h-117v362h1438v-481h-395z" />
    <glyph glyph-name="F" unicode="F" horiz-adv-x="1567" 
d="M1139 1010v135h-342v-236h258v-305h-258v-242h174v-362h-918v362h160v783h-164v362h1485v-497h-395z" />
    <glyph glyph-name="G" unicode="G" horiz-adv-x="1874" 
d="M1343 1403v104h361v-526h-361q-55 102 -127.5 148.5t-177.5 46.5q-100 0 -159.5 -42t-87 -137.5t-27.5 -259.5q0 -215 64.5 -312t207.5 -97q99 0 152 50t53 142h-156v285h676v-103q0 -215 -88 -378.5t-260 -256t-418 -92.5q-280 0 -479 98.5t-303 277.5t-104 423
q0 211 102 386t284.5 276.5t409.5 101.5q131 0 246 -35t192 -100z" />
    <glyph glyph-name="H" unicode="H" horiz-adv-x="1942" 
d="M797 1145v-230h348v230h-94v362h794v-362h-116v-783h116v-362h-794v362h94v246h-348v-246h96v-362h-795v362h115v783h-115v362h795v-362h-96z" />
    <glyph glyph-name="I" unicode="I" horiz-adv-x="1010" 
d="M797 1145v-783h141v-362h-864v362h139v783h-139v362h864v-362h-141z" />
    <glyph glyph-name="J" unicode="J" horiz-adv-x="995" 
d="M799 1145v-1045q0 -151 -23.5 -253.5t-85.5 -172.5q-69 -80 -158.5 -118.5t-244.5 -38.5q-142 0 -242 16v371q35 -8 64 -8q45 0 67.5 19t30.5 63.5t8 127.5v1039h-137v362h850v-362h-129z" />
    <glyph glyph-name="K" unicode="K" horiz-adv-x="1896" 
d="M799 1145v-783h121v-362h-820v362h115v783h-115v362h820v-362h-121zM1702 1145l-305 -283l383 -500h75v-362h-778v362h70l-330 429l383 354h-123v362h744v-362h-119z" />
    <glyph glyph-name="L" unicode="L" horiz-adv-x="1550" 
d="M797 1145v-783h356v242h360v-604h-1435v362h135v783h-135v362h860v-362h-141z" />
    <glyph glyph-name="M" unicode="M" horiz-adv-x="2451" 
d="M1454 1507h901v-362h-117v-783h117v-362h-782v362h119v836h-4l-449 -1198h-227l-445 1198h-4v-836h119v-362h-586v362h117v783h-117v362h908l221 -581z" />
    <glyph glyph-name="N" unicode="N" horiz-adv-x="1896" 
d="M1341 719v426h-127v362h609v-362h-131v-1170h-498l-633 918h-4v-531h135v-362h-618v362h133v783h-133v362h714l549 -788h4z" />
    <glyph glyph-name="O" unicode="O" horiz-adv-x="1921" 
d="M1808 758q0 -226 -109.5 -404t-304 -278.5t-440.5 -100.5q-239 0 -432.5 101.5t-303 281t-109.5 400.5t108.5 399t302 279.5t438.5 101.5q248 0 441.5 -103.5t301 -281.5t107.5 -395zM958 328q74 0 117 40t61.5 133t18.5 257q0 166 -20.5 258t-62.5 131t-114 39
q-71 0 -113 -38t-61.5 -130t-19.5 -260q0 -164 18.5 -257t60.5 -133t115 -40z" />
    <glyph glyph-name="P" unicode="P" horiz-adv-x="1796" 
d="M1745 1026q0 -149 -79 -252.5t-208 -155t-278 -51.5h-383v-205h151v-362h-880v362h145v783h-145v362h1028q313 0 481 -129t168 -352zM1135 1036q0 76 -48.5 108t-138.5 32h-151v-277h168q82 0 126 35t44 102z" />
    <glyph glyph-name="Q" unicode="Q" horiz-adv-x="1921" 
d="M1808 758q0 -219 -110.5 -400.5t-300 -283t-412.5 -99.5v-4q33 -2 82 -14t61 -16q95 -27 173.5 -42.5t162.5 -15.5q60 0 105 4l-123 -348q-19 -6 -60 -6q-59 0 -119.5 20.5t-150.5 63.5l-43 18q-12 7 -70.5 31.5t-129 43t-134.5 18.5q-65 0 -111 -12.5t-93 -43.5
l-160 207q61 58 147 87.5t213 31.5v4q-176 29 -319.5 140.5t-225 275.5t-81.5 340q0 223 111.5 401t306 278.5t438.5 100.5q239 0 431.5 -101.5t302 -279.5t109.5 -399zM958 328q74 0 117 40t61.5 133t18.5 257q0 166 -20.5 258t-62.5 131t-114 39q-71 0 -113 -38
t-61.5 -130t-19.5 -260q0 -160 18.5 -253t60.5 -135t115 -42z" />
    <glyph glyph-name="R" unicode="R" horiz-adv-x="1896" 
d="M1485 1450q141 -53 209.5 -159.5t68.5 -233.5q0 -115 -60.5 -211t-160.5 -139l209 -345h109v-362h-543l-330 614h-184v-252h115v-362h-820v362h121v783h-121v362h903q328 0 484 -57zM1153 1032q0 66 -47 105t-127 39h-176v-285h172q84 0 131 38t47 103z" />
    <glyph glyph-name="S" unicode="S" horiz-adv-x="1386" 
d="M897 1413v94h340v-428h-340q-27 84 -81 130t-136 46q-51 0 -82 -24.5t-31 -65.5q0 -47 30 -72.5t212 -107.5l113 -55q374 -185 374 -492q0 -125 -64.5 -230.5t-177 -166.5t-253.5 -61q-92 0 -189.5 32.5t-171.5 87.5v-100h-340v483h340q33 -102 88.5 -149t141.5 -47
q55 0 88 25.5t33 72.5q0 45 -43 85t-146 83l-102 45q-199 86 -305.5 201.5t-106.5 281.5q0 131 60.5 232.5t168 158t244.5 56.5q98 0 184 -30t152 -85z" />
    <glyph glyph-name="T" unicode="T" 
d="M1298 872v273h-172v-783h134v-362h-852v362h133v783h-172v-273h-285v635h1499v-635h-285z" />
    <glyph glyph-name="U" unicode="U" horiz-adv-x="1618" 
d="M762 1145v-565q0 -136 38 -194t120 -58q79 0 111 58t32 202v557h-76v362h567v-362h-118v-596q0 -275 -159 -424.5t-462 -149.5q-330 0 -483.5 154t-153.5 459v557h-117v362h775v-362h-74z" />
    <glyph glyph-name="V" unicode="V" 
d="M702 1145l222 -641h4l233 641h-125v362h609v-362h-111l-453 -1159h-471l-479 1159h-113v362h809v-362h-125z" />
    <glyph glyph-name="W" unicode="W" horiz-adv-x="2451" 
d="M688 1145l176 -647h4l224 647h-113v362h657v-362h-110l223 -647h4l178 647h-108v362h608v-362h-102l-431 -1159h-466l-203 581h-4l-201 -581h-477l-424 1159h-105v362h781v-362h-111z" />
    <glyph glyph-name="X" unicode="X" horiz-adv-x="2220" 
d="M922 1190l252 -219l223 219h-129v317h837v-362h-225l-407 -340l538 -443h152v-362h-1016v317h158l-277 250l-256 -250h160v-317h-875v362h170l494 383l-494 400h-159v362h1001v-317h-147z" />
    <glyph glyph-name="Y" unicode="Y" horiz-adv-x="1618" 
d="M739 1145l158 -305l193 305h-91v362h580v-362h-96l-377 -543v-240h119v-362h-824v362h121v240l-381 543h-100v362h786v-362h-88z" />
    <glyph glyph-name="Z" unicode="Z" horiz-adv-x="1618" 
d="M768 332h438v205h346v-537h-1489v346l746 830h-379v-187h-346v518h1462v-307z" />
    <glyph glyph-name="bracketleft" unicode="[" horiz-adv-x="1110" 
d="M707 1090v-1135h307v-416h-844v1968h850v-417h-313z" />
    <glyph glyph-name="backslash" unicode="\" horiz-adv-x="625" 
d="M315 0l-315 1507h309l316 -1507h-310z" />
    <glyph glyph-name="bracketright" unicode="]" horiz-adv-x="1110" 
d="M90 -461v416h313v1135h-307v417h842v-1968h-848z" />
    <glyph glyph-name="asciicircum" unicode="^" horiz-adv-x="1464" 
d="M942 657l-211 533l-209 -533h-385l443 881h301l444 -881h-383z" />
    <glyph glyph-name="underscore" unicode="_" horiz-adv-x="1110" 
d="M-14 -276v110h1136v-110h-1136z" />
    <glyph glyph-name="grave" unicode="`" horiz-adv-x="739" 
d="M334 1188l-404 350h453l186 -350h-235z" />
    <glyph glyph-name="a" unicode="a" 
d="M1466 694v-362h140v-332h-684v94q-70 -65 -154 -89.5t-219 -24.5q-141 0 -243.5 43t-156 117.5t-53.5 168.5q0 99 62.5 174.5t177.5 118.5t264 43q94 0 179 -14.5t143 -40.5v102q0 72 -57.5 118t-147.5 46q-135 0 -205 -100l-426 43q45 104 127 166.5t216 90t343 27.5
q258 0 409.5 -41t218 -126t66.5 -222zM758 207q43 0 87 16.5t77 44.5v191q-76 41 -154 41q-70 0 -114 -39t-44 -103q0 -67 42 -109t106 -42z" />
    <glyph glyph-name="b" unicode="b" horiz-adv-x="1753" 
d="M1081 1069q168 0 299 -64.5t204 -185.5t73 -284q0 -152 -72 -279t-198.5 -201.5t-282.5 -74.5q-119 0 -205 27.5t-158 88.5v-96h-684v332h138v844h-138v331h684v-524q142 86 340 86zM924 291q88 0 134 60.5t46 176.5q0 111 -49 171.5t-135 60.5t-134.5 -61.5
t-48.5 -174.5q0 -110 48.5 -171.5t138.5 -61.5z" />
    <glyph glyph-name="c" unicode="c" horiz-adv-x="1528" 
d="M1067 963v90h334v-449h-334q-66 184 -209 184q-90 0 -148.5 -75.5t-58.5 -198.5q0 -121 57.5 -192.5t149.5 -71.5q74 0 123 48t66 134l405 -90q-53 -178 -221 -275.5t-422 -97.5q-211 0 -372 66.5t-250 191.5t-89 291q0 154 83 280t226.5 198.5t315.5 72.5
q205 0 344 -106z" />
    <glyph glyph-name="d" unicode="d" horiz-adv-x="1772" 
d="M1694 332v-332h-682v96q-60 -55 -155 -85.5t-208 -30.5q-153 0 -280 73.5t-200 200.5t-73 281q0 163 73 284t204 185.5t299 64.5q194 0 340 -86v193h-135v331h679v-1175h138zM829 291q89 0 138 62.5t49 170.5q0 109 -49 172.5t-136 63.5q-81 0 -131.5 -59.5t-50.5 -172.5
q0 -237 180 -237z" />
    <glyph glyph-name="e" unicode="e" horiz-adv-x="1550" 
d="M1452 471h-827q2 -125 51 -190.5t141 -65.5q53 0 95 30.5t65 86.5l450 -56q-65 -147 -222.5 -227t-383.5 -80q-227 0 -390 67.5t-248 192.5t-85 291t85 294t238.5 198.5t350.5 70.5q207 0 360.5 -72.5t236.5 -210.5t83 -329zM938 633q0 98 -42 153.5t-114 55.5
q-67 0 -109 -59.5t-42 -149.5v-25h307v25z" />
    <glyph glyph-name="f" unicode="f" horiz-adv-x="1016" 
d="M825 1538l252 -2v-293q-80 6 -131 6q-110 0 -150 -35.5t-40 -136.5v-24h198v-332h-198v-389h176v-332h-856v332h133v389h-133v332h133v16q0 242 148.5 355.5t467.5 113.5z" />
    <glyph glyph-name="g" unicode="g" horiz-adv-x="1757" 
d="M1020 956v97h676v-332h-131v-647q0 -191 -76 -312.5t-244 -183t-442 -61.5q-166 0 -339 24.5t-280 63.5l150 268q59 -25 150 -39t184 -14q186 0 269 61.5t83 194.5v33q-160 -84 -361 -84q-167 0 -295 64.5t-199 179t-71 261.5q0 158 77 281t210 190.5t297 67.5
q211 0 342 -113zM836 293q88 0 137 60.5t49 166.5q0 107 -52 173.5t-139 66.5q-81 0 -133.5 -66.5t-52.5 -173.5q0 -102 52.5 -164.5t138.5 -62.5z" />
    <glyph glyph-name="h" unicode="h" horiz-adv-x="1757" 
d="M1169 1069q191 0 292.5 -116.5t101.5 -323.5v-297h125v-332h-672v565q0 70 -33 110t-98 40q-58 0 -152 -45v-338h146v-332h-830v332h137v844h-137v331h684v-583q103 71 215.5 108t220.5 37z" />
    <glyph glyph-name="i" unicode="i" horiz-adv-x="942" 
d="M756 1352q0 -82 -82 -135.5t-213 -53.5q-139 0 -219 51.5t-80 137.5q0 78 86 132t213 54q129 0 212 -53t83 -133zM844 332v-332h-746v332h109v389h-109v332h656v-721h90z" />
    <glyph glyph-name="j" unicode="j" horiz-adv-x="901" 
d="M735 1352q0 -86 -82 -137.5t-213 -51.5q-139 0 -219 50.5t-80 138.5q0 80 85 133t214 53q131 0 213 -52t82 -134zM184 -457q-133 0 -188 8v295q106 0 139 17q41 16 55.5 58t14.5 157v643h-109v332h654v-936q-7 -221 -50 -339t-161.5 -175.5t-354.5 -59.5z" />
    <glyph glyph-name="k" unicode="k" horiz-adv-x="1642" 
d="M1077 793h-192v260h674v-287h-125l-197 -193l238 -241h84v-332h-392l-432 455v-455h-682v332h135v844h-135v331h682v-1050z" />
    <glyph glyph-name="l" unicode="l" horiz-adv-x="901" 
d="M827 332v-332h-753v332h110v844h-110v331h657v-1175h96z" />
    <glyph glyph-name="m" unicode="m" horiz-adv-x="2660" 
d="M1571 866q125 105 245.5 154t247.5 49q189 0 290.5 -114.5t101.5 -315.5v-307h139v-332h-686v586q0 61 -33 95t-88 34q-43 0 -92 -18.5t-90 -49.5v-315h149v-332h-696v586q0 63 -29 96t-94 33q-86 0 -180 -68v-315h149v-332h-829v332h133v389h-133v332h680v-156
q194 172 454 172q133 0 224.5 -51t136.5 -152z" />
    <glyph glyph-name="n" unicode="n" horiz-adv-x="1780" 
d="M1593 641v-309h125v-332h-669v557q0 72 -33 115t-101 43q-34 0 -78 -14.5t-79 -38.5v-330h151v-332h-835v332h137v389h-137v332h684v-148q108 86 211.5 125t218.5 39q201 0 303 -111.5t102 -316.5z" />
    <glyph glyph-name="o" unicode="o" 
d="M1569 526q0 -164 -97.5 -290.5t-265.5 -196.5t-375 -70q-208 0 -375 67.5t-263.5 194.5t-96.5 295q0 166 96.5 293t264.5 195.5t374 68.5q205 0 373 -67.5t266.5 -193.5t98.5 -296zM827 281q93 0 141 65.5t48 185.5q0 115 -46 177.5t-134 62.5t-138.5 -63.5t-50.5 -184.5
q0 -116 47 -179.5t133 -63.5z" />
    <glyph glyph-name="p" unicode="p" horiz-adv-x="1774" 
d="M1677 520q0 -160 -72.5 -282.5t-205.5 -190t-307 -67.5q-201 0 -340 88v-222h139v-329h-811v329h127v875h-127v332h672v-97q151 113 356 113q162 0 292 -71.5t203.5 -196.5t73.5 -281zM932 291q92 0 143 64.5t51 179.5q0 223 -190 223q-86 0 -135 -60.5t-49 -173.5
q0 -112 47 -172.5t133 -60.5z" />
    <glyph glyph-name="q" unicode="q" horiz-adv-x="1774" 
d="M1022 956v97h672v-332h-127v-875h127v-329h-809v329h137v222q-139 -88 -340 -88q-174 0 -306 67.5t-206 190t-74 282.5q0 156 74 281t204 196.5t292 71.5q106 0 198 -28.5t158 -84.5zM842 291q86 0 133 60.5t47 172.5q0 111 -49 172.5t-139 61.5q-185 0 -185 -223
q0 -117 50.5 -180.5t142.5 -63.5z" />
    <glyph glyph-name="r" unicode="r" horiz-adv-x="1202" 
d="M1161 1069h39v-455q-29 2 -61 2q-199 0 -289 -67.5t-90 -198.5v-18h160v-332h-848v332h141v389h-141v332h651v-265h6q96 281 432 281z" />
    <glyph glyph-name="s" unicode="s" horiz-adv-x="1366" 
d="M858 975v78h334v-308h-309q-66 60 -132.5 85.5t-146.5 25.5q-119 0 -119 -68q0 -26 43 -42.5t177 -38.5q174 -31 266 -62q149 -49 223 -120.5t74 -184.5q0 -176 -125 -268t-344 -92q-92 0 -170 20t-160 70v-84h-338v336h315q70 -70 129.5 -99.5t137.5 -29.5q65 0 104 17
t39 44q0 53 -125 80q-158 33 -247 57.5t-185 65.5q-104 47 -152.5 114.5t-48.5 161.5q0 160 115 250t319 90q97 0 189 -27.5t137 -70.5z" />
    <glyph glyph-name="t" unicode="t" horiz-adv-x="1016" 
d="M920 721h-224v-225q0 -76 20.5 -111t76.5 -35q26 0 62 10.5t65 24.5v-324q-60 -41 -161.5 -66.5t-197.5 -25.5q-207 0 -308 102.5t-101 295.5v354h-138v332h138v159l544 261v-420h224v-332z" />
    <glyph glyph-name="u" unicode="u" horiz-adv-x="1757" 
d="M846 336q45 0 89 13t77 36v336h-142v332h689v-721h127v-332h-674v133q-101 -72 -216.5 -112.5t-224.5 -40.5q-184 0 -288.5 118.5t-104.5 321.5v301h-127v332h672v-555q0 -82 28.5 -122t94.5 -40z" />
    <glyph glyph-name="v" unicode="v" horiz-adv-x="1503" 
d="M664 721l176 -399l184 399h-104v332h542v-332h-102l-383 -735h-438l-396 735h-102v332h741v-332h-118z" />
    <glyph glyph-name="w" unicode="w" horiz-adv-x="2267" 
d="M651 721l123 -350l260 682h404l235 -682l135 350h-100v332h512v-332h-102l-310 -735h-430l-239 540l-228 -540h-430l-321 735h-113v332h711v-332h-107z" />
    <glyph glyph-name="x" unicode="x" horiz-adv-x="1503" 
d="M987 1053h412v-332h-148l-135 -154l201 -235h121v-332h-520l-205 287l-211 -287h-414v332h131l156 168l-185 221h-127v332h535l193 -285z" />
    <glyph glyph-name="y" unicode="y" horiz-adv-x="1456" 
d="M625 721l184 -412l166 412h-103v332h545v-332h-104l-576 -1204h-461v329h179l53 99l-404 776h-81v332h716v-332h-114z" />
    <glyph glyph-name="z" unicode="z" horiz-adv-x="1456" 
d="M768 248h362v127h226v-375h-1268v276l592 527h-358v-121h-224v371h1270v-260z" />
    <glyph glyph-name="braceleft" unicode="{" horiz-adv-x="864" 
d="M809 1184q-76 0 -113 -20.5t-51 -71t-14 -148.5q0 -123 -11.5 -198.5t-53.5 -133t-132 -82.5v-4q105 -26 151 -113t46 -251q0 -121 11 -179.5t46 -85t111 -26.5h39v-354h-187q-223 0 -318 99t-95 327v213q0 217 -211 217v309q112 0 161.5 57.5t49.5 167.5v205
q0 229 95 327.5t318 98.5h187v-354h-29z" />
    <glyph glyph-name="bar" unicode="|" horiz-adv-x="1419" 
d="M532 -340v1847h357v-1847h-357z" />
    <glyph glyph-name="braceright" unicode="}" horiz-adv-x="864" 
d="M627 1112v-205q0 -110 49 -167.5t162 -57.5v-309q-211 0 -211 -217v-213q0 -228 -96.5 -327t-317.5 -99h-186v354h36q76 0 112 26.5t47 86t11 178.5q0 164 45.5 251t149.5 113v4q-88 25 -131 87.5t-53.5 133t-10.5 193.5q0 98 -14 148.5t-51 71t-113 20.5h-28v354h186
q221 0 317.5 -98.5t96.5 -327.5z" />
    <glyph glyph-name="asciitilde" unicode="~" horiz-adv-x="1456" 
d="M788 985q80 -39 131.5 -57.5t94.5 -18.5q80 0 158.5 40t177.5 132v-352q-111 -92 -190 -130t-167 -38q-73 0 -143 24.5t-164 71.5q-88 43 -138 60.5t-95 17.5q-84 0 -169 -42t-178 -132v361q91 82 181 121.5t186 39.5q68 0 142.5 -24.5t172.5 -73.5z" />
    <glyph glyph-name="uni00A0" unicode="&#xa0;" horiz-adv-x="739" 
 />
    <glyph glyph-name="exclamdown" unicode="&#xa1;" horiz-adv-x="879" 
d="M170 657v396h541v-396h-541zM702 -455h-522v424l78 477h367l77 -469v-432z" />
    <glyph glyph-name="cent" unicode="&#xa2;" horiz-adv-x="1528" 
d="M1067 1190v67h334v-448h-334q-20 82 -80.5 133t-130.5 51q-90 0 -147.5 -76.5t-57.5 -197.5q0 -119 59.5 -191.5t147.5 -72.5q74 0 123 48t66 134l405 -88q-53 -174 -209 -274.5t-371 -100.5v-174h-161v178q-287 23 -450 170.5t-163 378.5q0 160 83 284t223.5 192.5
t306.5 70.5v168h161v-180q78 -15 111 -28t84 -44z" />
    <glyph glyph-name="sterling" unicode="&#xa3;" horiz-adv-x="1386" 
d="M1346 1149l-357 -45q-8 78 -47 120t-98 42q-58 0 -93.5 -37t-35.5 -90q0 -68 84 -246h336v-201h-277q16 -59 16 -125q0 -61 -6 -98t-24 -90q67 -41 143 -41q62 0 96.5 31.5t51.5 107.5l256 -65q-19 -211 -123.5 -321.5t-274.5 -110.5q-92 0 -166.5 33.5t-136.5 103.5
q-133 -137 -297 -137q-133 0 -218 80.5t-85 205.5q0 115 78 186.5t203 71.5q39 0 66.5 -6t66.5 -24q-19 55 -51.5 108t-65.5 90h-278v201h165q-51 106 -51 215q0 199 156 314.5t432 115.5q258 0 396.5 -100.5t138.5 -288.5zM367 129q71 0 115 41t53 121q-89 100 -187 100
q-55 0 -91 -36t-36 -89q0 -59 41 -98t105 -39z" />
    <glyph glyph-name="currency" unicode="&#xa4;" horiz-adv-x="1483" 
d="M735 1276q58 0 123.5 -15.5t118.5 -41.5l158 157l231 -231l-160 -160q56 -106 56 -235q0 -64 -13.5 -116t-40.5 -114l158 -158l-231 -231l-154 154q-123 -62 -246 -62q-131 0 -235 58l-150 -150l-229 231l145 146q-28 65 -42.5 121.5t-14.5 120.5q0 135 59 247l-147 148
l229 231l154 -153q45 22 109.5 37.5t121.5 15.5zM735 541q86 0 147.5 61.5t61.5 147.5t-60.5 147t-148.5 61t-148.5 -60t-60.5 -148q0 -86 60.5 -147.5t148.5 -61.5z" />
    <glyph glyph-name="yen" unicode="&#xa5;" horiz-adv-x="1618" 
d="M737 1145l160 -305l193 305h-91v362h580v-362h-94l-144 -207h205v-143h-307l-102 -148h409v-143h-440v-142h119v-362h-824v362h121v142h-452v143h415l-98 148h-317v143h217l-146 207h-100v362h786v-362h-90z" />
    <glyph glyph-name="brokenbar" unicode="&#xa6;" horiz-adv-x="1419" 
d="M532 705v802h357v-802h-357zM532 -340v801h357v-801h-357z" />
    <glyph glyph-name="section" unicode="&#xa7;" horiz-adv-x="1503" 
d="M1329 1141h-360q-29 102 -84.5 145t-155.5 43q-84 0 -134 -36t-50 -95q0 -43 25.5 -70.5t73.5 -48t153 -55.5l172 -55q434 -146 434 -471q0 -105 -47 -178.5t-154 -133.5q82 -61 119 -123.5t37 -144.5q0 -123 -70.5 -213t-204 -139t-315.5 -49q-276 0 -438 97t-162 275
v17h364q7 -90 68.5 -135t169.5 -45q100 0 147.5 31.5t47.5 101.5q0 47 -35 77.5t-93.5 55t-191.5 69.5l-121 45q-250 93 -338 203.5t-88 241.5q0 102 49.5 181t151.5 145q-133 118 -133 278q0 115 67.5 202t193.5 134t296 47q262 0 428 -104.5t178 -292.5zM696 416
q90 -31 172 -61.5t119 -51.5q66 39 66 121q0 68 -52.5 126t-228.5 107q-55 15 -136 40.5t-112 43.5q-67 -43 -67 -110q0 -78 57 -124t182 -91z" />
    <glyph glyph-name="dieresis" unicode="&#xa8;" horiz-adv-x="739" 
d="M305 1374q0 -74 -51 -127t-127 -53q-74 0 -128 53t-54 127q0 76 54 128t128 52t126 -52t52 -128zM797 1374q0 -74 -52.5 -127t-128.5 -53q-75 0 -127.5 53t-52.5 127q0 76 53.5 128t126.5 52q74 0 127.5 -52t53.5 -128z" />
    <glyph glyph-name="copyright" unicode="&#xa9;" horiz-adv-x="1780" 
d="M891 -31q-223 0 -413.5 109.5t-303.5 299t-113 417.5q0 231 114 420.5t305.5 298t410.5 108.5q225 0 415.5 -111.5t301 -301t110.5 -414.5q0 -220 -109.5 -409t-299 -303t-418.5 -114zM881 1462q-176 0 -329 -91t-242 -244.5t-89 -331.5q0 -191 93.5 -342.5t250 -237.5
t334.5 -86q174 0 325.5 89t243 241.5t91.5 333.5q0 182 -88.5 335.5t-244 243.5t-345.5 90zM1141 1178v71h155v-321h-155q-62 174 -203 174q-107 0 -173.5 -89t-66.5 -222q0 -123 59.5 -209t153.5 -86q78 0 135.5 62.5t77.5 170.5l181 -86q-91 -317 -410 -317
q-135 0 -237.5 57t-159 163.5t-56.5 248.5q0 133 57.5 240.5t159 168t228.5 60.5q155 0 254 -86z" />
    <glyph glyph-name="ordfeminine" unicode="&#xaa;" horiz-adv-x="1063" 
d="M948 1268v-174h86v-236h-459v35q-67 -27 -114 -36t-109 -9q-143 0 -224 57.5t-81 155.5t93 157.5t247 59.5q53 0 92 -5t96 -20q0 66 -27.5 93.5t-92.5 27.5q-90 0 -121 -63l-305 26q41 107 146.5 154t316.5 47q176 0 275 -27.5t140 -86t41 -156.5zM481 1006q23 0 51.5 11
t42.5 15v88q-49 19 -83 19q-37 0 -64 -15.5t-27 -48.5q0 -26 25 -47.5t55 -21.5z" />
    <glyph glyph-name="guillemotleft" unicode="&#xab;" horiz-adv-x="1626" 
d="M825 0h-503l-246 524l246 529h503l-250 -529zM1550 0h-506l-245 524l245 529h506l-252 -529z" />
    <glyph glyph-name="logicalnot" unicode="&#xac;" horiz-adv-x="1483" 
d="M1012 326v526h-895v350h1247v-876h-352z" />
    <glyph glyph-name="uni00AD" unicode="&#xad;" horiz-adv-x="995" 
d="M111 291v469h772v-469h-772z" />
    <glyph glyph-name="registered" unicode="&#xae;" horiz-adv-x="1780" 
d="M891 -96q-223 0 -413.5 109.5t-303.5 299t-113 416.5q0 232 114 421t305.5 297.5t410.5 108.5q225 0 415.5 -111.5t301 -301t110.5 -414.5q0 -219 -109.5 -408.5t-299 -303t-418.5 -113.5zM881 1397q-176 0 -329 -91.5t-242 -245t-89 -331.5q0 -188 93.5 -340.5t249 -239
t333.5 -86.5q174 0 326.5 89.5t244 242t91.5 332.5q0 182 -88.5 336t-244 244t-345.5 90zM1278 930q0 -158 -154 -223l144 -267h114v-151h-268l-199 387h-100v-236h109v-151h-461v151h121v582h-121v149h502q147 0 230 -61t83 -180zM1038 920q0 51 -31.5 76.5t-86.5 25.5
h-105v-207h84q66 0 102.5 25.5t36.5 79.5z" />
    <glyph glyph-name="macron" unicode="&#xaf;" horiz-adv-x="739" 
d="M-61 1202v236h862v-236h-862z" />
    <glyph glyph-name="degree" unicode="&#xb0;" horiz-adv-x="889" 
d="M866 1116q0 -112 -56 -209.5t-153.5 -155t-212.5 -57.5q-114 0 -211.5 57.5t-153.5 155t-56 209.5q0 115 56 211t153.5 153.5t211.5 57.5q115 0 212.5 -57.5t153.5 -154.5t56 -210zM442 918q86 0 143.5 58t57.5 140q0 84 -57.5 142.5t-143.5 58.5q-82 0 -140 -57.5
t-58 -143.5q0 -84 57 -141t141 -57z" />
    <glyph glyph-name="plusminus" unicode="&#xb1;" horiz-adv-x="1483" 
d="M1364 1186v-350h-446v-406h-353v406h-444v350h444v403h353v-403h446zM121 0v350h1243v-350h-1243z" />
    <glyph glyph-name="uni00B2" unicode="&#xb2;" horiz-adv-x="901" 
d="M809 1624q0 -90 -68.5 -151.5t-201.5 -114.5q-109 -43 -133.5 -60.5t-34.5 -31.5h233l2 65h209l-10 -282h-733v57q0 94 53 185t209 192q88 53 129 88t41 65q0 27 -21.5 40.5t-58.5 13.5q-41 0 -60.5 -25t-21.5 -80l-258 8q0 136 89 206.5t267 70.5q168 0 268.5 -68.5
t100.5 -177.5z" />
    <glyph glyph-name="uni00B3" unicode="&#xb3;" horiz-adv-x="901" 
d="M801 1642q0 -61 -40 -101t-110 -56q88 -21 134 -64t46 -123q0 -118 -106.5 -188t-290.5 -70q-385 0 -389 306l256 18q6 -45 13.5 -67.5t32 -40t75.5 -17.5q45 0 71.5 20.5t26.5 55.5q0 49 -35.5 66.5t-115.5 19.5v137q73 4 103 20.5t30 57.5q0 63 -82 63
q-45 0 -67.5 -19.5t-26.5 -64.5l-267 9q9 137 100 201.5t273 64.5q174 0 271.5 -59.5t97.5 -168.5z" />
    <glyph glyph-name="acute" unicode="&#xb4;" horiz-adv-x="739" 
d="M170 1188l180 350h459l-381 -350h-258z" />
    <glyph glyph-name="uni00B5" unicode="&#xb5;" horiz-adv-x="1757" 
d="M723 557q0 -96 37 -158.5t114 -62.5q101 0 138 63v654h547v-721h127v-332h-674v143q-37 -80 -81 -121.5t-102 -41.5q-61 0 -106 45v-508h-545v1536h545v-496z" />
    <glyph glyph-name="paragraph" unicode="&#xb6;" horiz-adv-x="1886" 
d="M1604 1194v-1677h-324v1677h-178v-1677h-324v1097h-153q-224 0 -355 127t-131 344q0 136 59.5 238t170 158.5t260.5 56.5h1118v-344h-143z" />
    <glyph glyph-name="periodcentered" unicode="&#xb7;" horiz-adv-x="879" 
d="M168 616v396h541v-396h-541z" />
    <glyph glyph-name="cedilla" unicode="&#xb8;" horiz-adv-x="739" 
d="M633 -262q0 -100 -82 -156.5t-232 -56.5q-124 0 -221 14v139q15 -2 41.5 -4t53.5 -2q59 0 86.5 18.5t27.5 45.5q0 28 -30.5 42.5t-92.5 20.5l74 254h199l-31 -127q207 -24 207 -188z" />
    <glyph glyph-name="uni00B9" unicode="&#xb9;" horiz-adv-x="901" 
d="M731 1266v-217h-557v217h125v374h-125v218h434v-592h123z" />
    <glyph glyph-name="ordmasculine" unicode="&#xba;" horiz-adv-x="1063" 
d="M1016 1192q0 -102 -60.5 -182t-170 -124t-250.5 -44q-146 0 -255.5 43t-171 122.5t-61.5 184.5q0 100 61.5 179t170 123t243.5 44q146 0 257.5 -44t174 -123t62.5 -179zM528 1063q109 0 109 133q0 57 -25.5 89t-76.5 32q-52 0 -80.5 -32t-28.5 -97q0 -125 102 -125z" />
    <glyph glyph-name="guillemotright" unicode="&#xbb;" horiz-adv-x="1626" 
d="M580 0h-504l252 528l-252 525h504l247 -525zM1305 0h-504l250 528l-250 525h504l245 -525z" />
    <glyph glyph-name="onequarter" unicode="&#xbc;" horiz-adv-x="2150" 
d="M790 893v-217h-557v217h125v374h-125v218h434v-592h123zM475 0l1016 1507h238l-1016 -1507h-238zM2028 396v-176h-92v-58h92v-196h-494v196h109v58h-371l-57 188l430 385h291v-397h92zM1643 557l-179 -161h179v161z" />
    <glyph glyph-name="onehalf" unicode="&#xbd;" horiz-adv-x="2150" 
d="M790 893v-217h-557v217h125v374h-125v218h434v-592h123zM448 0l1016 1507h238l-1016 -1507h-238zM1997 534q0 -90 -68.5 -151.5t-201.5 -114.5q-109 -43 -133.5 -60.5t-34.5 -31.5h233l2 65h209l-10 -282h-733v57q0 94 53 185t209 192q88 53 129 88t41 65
q0 27 -21.5 40.5t-58.5 13.5q-41 0 -60.5 -25t-21.5 -80l-258 8q0 136 89 206.5t267 70.5q168 0 268.5 -68.5t100.5 -177.5z" />
    <glyph glyph-name="threequarters" unicode="&#xbe;" horiz-adv-x="2150" 
d="M475 0l1016 1507h238l-1016 -1507h-238zM2028 396v-176h-92v-58h92v-196h-494v196h109v58h-371l-57 188l430 385h291v-397h92zM1643 557l-179 -161h179v161zM860 1269q0 -61 -40 -101t-110 -56q88 -21 134 -64t46 -123q0 -118 -106.5 -188t-290.5 -70q-385 0 -389 306
l256 18q6 -45 13.5 -67.5t32 -40t75.5 -17.5q45 0 71.5 20.5t26.5 55.5q0 49 -35.5 66.5t-115.5 19.5v137q73 4 103 20.5t30 57.5q0 63 -82 63q-45 0 -67.5 -19.5t-26.5 -64.5l-267 9q9 137 100 201.5t273 64.5q174 0 271.5 -59.5t97.5 -168.5z" />
    <glyph glyph-name="questiondown" unicode="&#xbf;" horiz-adv-x="1409" 
d="M475 657v396h539v-396h-539zM786 147q-110 0 -170.5 -53t-60.5 -145q0 -82 52 -132t132 -50q82 0 129 46t47 132h437q-2 -133 -81 -229.5t-223.5 -148.5t-338.5 -52q-199 0 -346.5 53t-227.5 150.5t-80 228.5q0 123 65.5 218t180.5 148.5t258 53.5h21l22 98h283l26 -328
q-8 0 -42.5 5t-82.5 5z" />
    <glyph glyph-name="Agrave" unicode="&#xc0;" horiz-adv-x="1688" 
d="M1264 1145l288 -783h111v-362h-789v332h132l-58 188h-387l-63 -188h123v-332h-596v362h112l285 783h-123v362h1085v-362h-120zM891 709l-127 417h-4l-139 -417h270zM799 1602l-394 350h453l186 -350h-245z" />
    <glyph glyph-name="Aacute" unicode="&#xc1;" horiz-adv-x="1688" 
d="M1264 1145l288 -783h111v-362h-789v332h132l-58 188h-387l-63 -188h123v-332h-596v362h112l285 783h-123v362h1085v-362h-120zM891 709l-127 417h-4l-139 -417h270zM633 1602l198 350h453l-404 -350h-247z" />
    <glyph glyph-name="Acircumflex" unicode="&#xc2;" horiz-adv-x="1688" 
d="M1264 1145l288 -783h111v-362h-789v332h132l-58 188h-387l-63 -188h123v-332h-596v362h112l285 783h-123v362h1085v-362h-120zM891 709l-127 417h-4l-139 -417h270zM987 1602l-186 137l-189 -137h-276l231 354h467l230 -354h-277z" />
    <glyph glyph-name="Atilde" unicode="&#xc3;" horiz-adv-x="1688" 
d="M1264 1145l288 -783h111v-362h-789v332h132l-58 188h-387l-63 -188h123v-332h-596v362h112l285 783h-123v362h1085v-362h-120zM891 709l-127 417h-4l-139 -417h270zM977 1589q-47 0 -90 14.5t-90 38.5q-29 17 -55.5 27t-46.5 10q-35 0 -58.5 -22.5t-29.5 -63.5h-219
q16 164 86.5 254t181.5 90q45 0 87 -13t97 -40q31 -14 58.5 -24.5t50.5 -10.5q35 0 54 21.5t30 68.5h217q-8 -165 -82 -257.5t-191 -92.5z" />
    <glyph glyph-name="Adieresis" unicode="&#xc4;" horiz-adv-x="1688" 
d="M1264 1145l288 -783h111v-362h-789v332h132l-58 188h-387l-63 -188h123v-332h-596v362h112l285 783h-123v362h1085v-362h-120zM891 709l-127 417h-4l-139 -417h270zM717 1786q0 -74 -51.5 -127t-127.5 -53q-73 0 -127.5 52t-54.5 128t54.5 128t127.5 52q76 0 127.5 -53
t51.5 -127zM1261 1786q0 -74 -52 -127t-128 -53q-74 0 -127 52t-53 128t53 128t127 52q76 0 128 -53t52 -127z" />
    <glyph glyph-name="Aring" unicode="&#xc5;" horiz-adv-x="1688" 
d="M1663 0h-789v332h132l-58 188h-387l-63 -188h123v-332h-596v362h112l285 783h-123v362h281q-25 49 -25 111q0 70 35 130t95 96t132 36t132.5 -36t95 -96t34.5 -130q0 -62 -24 -111h329v-362h-120l288 -783h111v-362zM817 1507q47 0 79 32t32 79q0 45 -33 78t-78 33
q-47 0 -78.5 -32t-31.5 -79t31.5 -79t78.5 -32zM764 1126h-4l-139 -417h270z" />
    <glyph glyph-name="AE" unicode="&#xc6;" horiz-adv-x="2429" 
d="M1913 1028v117h-348v-230h299v-307h-299v-246h348v121h395v-483h-1444v362h117v246h-418l-121 -246h140v-362h-611v362h88l420 783h-121v362h1950v-479h-395zM973 1196h-119l-152 -299h271v299z" />
    <glyph glyph-name="Ccedilla" unicode="&#xc7;" horiz-adv-x="1780" 
d="M956 -25l-12 -49q207 -24 207 -188q0 -100 -83 -156.5t-230 -56.5q-125 0 -222 14v139q15 -2 41.5 -4t53.5 -2q59 0 86.5 18.5t27.5 45.5q0 28 -30.5 42.5t-92.5 20.5l56 191q-209 33 -354.5 139.5t-220 270t-74.5 368.5q0 219 97 395t267 275.5t377 99.5
q125 0 236.5 -34t191.5 -97v100h362v-551h-374q-35 109 -101.5 164.5t-156.5 55.5q-125 0 -184.5 -104.5t-59.5 -313.5q0 -221 60.5 -325.5t191.5 -104.5q112 0 180 82t100 256l392 -140q-68 -280 -250.5 -413t-481.5 -138z" />
    <glyph glyph-name="Egrave" unicode="&#xc8;" 
d="M1143 1026v119h-342v-230h299v-307h-299v-246h342v119h395v-481h-1438v362h117v783h-117v362h1438v-481h-395zM789 1602l-394 350h453l186 -350h-245z" />
    <glyph glyph-name="Eacute" unicode="&#xc9;" 
d="M1143 1026v119h-342v-230h299v-307h-299v-246h342v119h395v-481h-1438v362h117v783h-117v362h1438v-481h-395zM623 1602l198 350h453l-404 -350h-247z" />
    <glyph glyph-name="Ecircumflex" unicode="&#xca;" 
d="M1143 1026v119h-342v-230h299v-307h-299v-246h342v119h395v-481h-1438v362h117v783h-117v362h1438v-481h-395zM1018 1602l-186 137l-189 -137h-276l231 354h467l230 -354h-277z" />
    <glyph glyph-name="Edieresis" unicode="&#xcb;" 
d="M1143 1026v119h-342v-230h299v-307h-299v-246h342v119h395v-481h-1438v362h117v783h-117v362h1438v-481h-395zM748 1786q0 -74 -51.5 -127t-127.5 -53q-73 0 -127.5 52t-54.5 128t54.5 128t127.5 52q76 0 127.5 -53t51.5 -127zM1292 1786q0 -74 -52 -127t-128 -53
q-74 0 -127 52t-53 128t53 128t127 52q76 0 128 -53t52 -127z" />
    <glyph glyph-name="Igrave" unicode="&#xcc;" horiz-adv-x="1010" 
d="M797 1145v-783h141v-362h-864v362h139v783h-139v362h864v-362h-141zM459 1602l-394 350h453l186 -350h-245z" />
    <glyph glyph-name="Iacute" unicode="&#xcd;" horiz-adv-x="1010" 
d="M797 1145v-783h141v-362h-864v362h139v783h-139v362h864v-362h-141zM316 1602l198 350h453l-404 -350h-247z" />
    <glyph glyph-name="Icircumflex" unicode="&#xce;" horiz-adv-x="1010" 
d="M797 1145v-783h141v-362h-864v362h139v783h-139v362h864v-362h-141zM690 1602l-186 137l-189 -137h-276l231 354h467l230 -354h-277z" />
    <glyph glyph-name="Idieresis" unicode="&#xcf;" horiz-adv-x="1010" 
d="M797 1145v-783h141v-362h-864v362h139v783h-139v362h864v-362h-141zM416 1786q0 -74 -51.5 -127t-127.5 -53q-73 0 -127.5 52t-54.5 128t54.5 128t127.5 52q76 0 127.5 -53t51.5 -127zM960 1786q0 -74 -52 -127t-128 -53q-74 0 -127 52t-53 128t53 128t127 52
q76 0 128 -53t52 -127z" />
    <glyph glyph-name="Eth" unicode="&#xd0;" horiz-adv-x="1929" 
d="M1817 762q0 -246 -100.5 -417t-280 -258t-410.5 -87h-928v362h117v244h-117v305h117v234h-117v362h883q244 0 434.5 -95t296 -265t105.5 -385zM799 606v-244h75q175 0 242.5 94.5t67.5 288.5q0 211 -75 305.5t-269 94.5h-41v-234h229v-305h-229z" />
    <glyph glyph-name="Ntilde" unicode="&#xd1;" horiz-adv-x="1896" 
d="M1341 719v426h-127v362h609v-362h-131v-1170h-498l-633 918h-4v-531h135v-362h-618v362h133v783h-133v362h714l549 -788h4zM1108 1589q-47 0 -90 14.5t-90 38.5q-29 17 -55.5 27t-46.5 10q-35 0 -58.5 -22.5t-29.5 -63.5h-219q16 164 86.5 254t181.5 90q45 0 87 -13
t97 -40q31 -14 58.5 -24.5t50.5 -10.5q35 0 54 21.5t30 68.5h217q-8 -165 -82 -257.5t-191 -92.5z" />
    <glyph glyph-name="Ograve" unicode="&#xd2;" horiz-adv-x="1921" 
d="M1808 758q0 -226 -109.5 -404t-304 -278.5t-440.5 -100.5q-239 0 -432.5 101.5t-303 281t-109.5 400.5t108.5 399t302 279.5t438.5 101.5q248 0 441.5 -103.5t301 -281.5t107.5 -395zM958 328q74 0 117 40t61.5 133t18.5 257q0 166 -20.5 258t-62.5 131t-114 39
q-71 0 -113 -38t-61.5 -130t-19.5 -260q0 -164 18.5 -257t60.5 -133t115 -40zM904 1602l-394 350h453l186 -350h-245z" />
    <glyph glyph-name="Oacute" unicode="&#xd3;" horiz-adv-x="1921" 
d="M1808 758q0 -226 -109.5 -404t-304 -278.5t-440.5 -100.5q-239 0 -432.5 101.5t-303 281t-109.5 400.5t108.5 399t302 279.5t438.5 101.5q248 0 441.5 -103.5t301 -281.5t107.5 -395zM958 328q74 0 117 40t61.5 133t18.5 257q0 166 -20.5 258t-62.5 131t-114 39
q-71 0 -113 -38t-61.5 -130t-19.5 -260q0 -164 18.5 -257t60.5 -133t115 -40zM781 1602l198 350h453l-404 -350h-247z" />
    <glyph glyph-name="Ocircumflex" unicode="&#xd4;" horiz-adv-x="1921" 
d="M1808 758q0 -226 -109.5 -404t-304 -278.5t-440.5 -100.5q-239 0 -432.5 101.5t-303 281t-109.5 400.5t108.5 399t302 279.5t438.5 101.5q248 0 441.5 -103.5t301 -281.5t107.5 -395zM958 328q74 0 117 40t61.5 133t18.5 257q0 166 -20.5 258t-62.5 131t-114 39
q-71 0 -113 -38t-61.5 -130t-19.5 -260q0 -164 18.5 -257t60.5 -133t115 -40zM1145 1602l-186 137l-189 -137h-276l231 354h467l230 -354h-277z" />
    <glyph glyph-name="Otilde" unicode="&#xd5;" horiz-adv-x="1921" 
d="M1808 758q0 -226 -109.5 -404t-304 -278.5t-440.5 -100.5q-239 0 -432.5 101.5t-303 281t-109.5 400.5t108.5 399t302 279.5t438.5 101.5q248 0 441.5 -103.5t301 -281.5t107.5 -395zM958 328q74 0 117 40t61.5 133t18.5 257q0 166 -20.5 258t-62.5 131t-114 39
q-71 0 -113 -38t-61.5 -130t-19.5 -260q0 -164 18.5 -257t60.5 -133t115 -40zM1118 1589q-47 0 -90 14.5t-90 38.5q-29 17 -55.5 27t-46.5 10q-35 0 -58.5 -22.5t-29.5 -63.5h-219q16 164 86.5 254t181.5 90q45 0 87 -13t97 -40q31 -14 58.5 -24.5t50.5 -10.5q35 0 54 21.5
t30 68.5h217q-8 -165 -82 -257.5t-191 -92.5z" />
    <glyph glyph-name="Odieresis" unicode="&#xd6;" horiz-adv-x="1921" 
d="M1808 758q0 -226 -109.5 -404t-304 -278.5t-440.5 -100.5q-239 0 -432.5 101.5t-303 281t-109.5 400.5t108.5 399t302 279.5t438.5 101.5q248 0 441.5 -103.5t301 -281.5t107.5 -395zM958 328q74 0 117 40t61.5 133t18.5 257q0 166 -20.5 258t-62.5 131t-114 39
q-71 0 -113 -38t-61.5 -130t-19.5 -260q0 -164 18.5 -257t60.5 -133t115 -40zM875 1786q0 -74 -51.5 -127t-127.5 -53q-73 0 -127.5 52t-54.5 128t54.5 128t127.5 52q76 0 127.5 -53t51.5 -127zM1419 1786q0 -74 -52 -127t-128 -53q-74 0 -127 52t-53 128t53 128t127 52
q76 0 128 -53t52 -127z" />
    <glyph glyph-name="multiply" unicode="&#xd7;" horiz-adv-x="1481" 
d="M1346 1106l-359 -358l359 -357l-250 -250l-357 359l-358 -359l-248 250l359 357l-359 358l248 248l358 -357l357 357z" />
    <glyph glyph-name="Oslash" unicode="&#xd8;" horiz-adv-x="1921" 
d="M1397 1438l123 151l155 -119l-116 -145q251 -223 251 -582q0 -215 -106.5 -390t-301 -276.5t-444.5 -101.5q-251 0 -450 105l-156 -191l-155 125l149 181q-117 106 -177 245.5t-60 302.5q0 226 106.5 407t300 284.5t442.5 103.5q113 0 237 -26.5t202 -73.5zM958 1186
q-67 0 -110 -40t-63.5 -137.5t-20.5 -269.5q0 -32 2 -49l342 406q-27 45 -59.5 67.5t-90.5 22.5zM958 328q80 0 123 48t59.5 147.5t16.5 267.5q0 49 -2 55l-350 -416q47 -102 153 -102z" />
    <glyph glyph-name="Ugrave" unicode="&#xd9;" horiz-adv-x="1618" 
d="M762 1145v-565q0 -136 38 -194t120 -58q79 0 111 58t32 202v557h-76v362h567v-362h-118v-596q0 -275 -159 -424.5t-462 -149.5q-330 0 -483.5 154t-153.5 459v557h-117v362h775v-362h-74zM764 1602l-394 350h453l186 -350h-245z" />
    <glyph glyph-name="Uacute" unicode="&#xda;" horiz-adv-x="1618" 
d="M762 1145v-565q0 -136 38 -194t120 -58q79 0 111 58t32 202v557h-76v362h567v-362h-118v-596q0 -275 -159 -424.5t-462 -149.5q-330 0 -483.5 154t-153.5 459v557h-117v362h775v-362h-74zM731 1602l198 350h453l-404 -350h-247z" />
    <glyph glyph-name="Ucircumflex" unicode="&#xdb;" horiz-adv-x="1618" 
d="M762 1145v-565q0 -136 38 -194t120 -58q79 0 111 58t32 202v557h-76v362h567v-362h-118v-596q0 -275 -159 -424.5t-462 -149.5q-330 0 -483.5 154t-153.5 459v557h-117v362h775v-362h-74zM1040 1602l-186 137l-189 -137h-276l231 354h467l230 -354h-277z" />
    <glyph glyph-name="Udieresis" unicode="&#xdc;" horiz-adv-x="1618" 
d="M762 1145v-565q0 -136 38 -194t120 -58q79 0 111 58t32 202v557h-76v362h567v-362h-118v-596q0 -275 -159 -424.5t-462 -149.5q-330 0 -483.5 154t-153.5 459v557h-117v362h775v-362h-74zM756 1786q0 -74 -51.5 -127t-127.5 -53q-73 0 -127.5 52t-54.5 128t54.5 128
t127.5 52q76 0 127.5 -53t51.5 -127zM1300 1786q0 -74 -52 -127t-128 -53q-74 0 -127 52t-53 128t53 128t127 52q76 0 128 -53t52 -127z" />
    <glyph glyph-name="Yacute" unicode="&#xdd;" horiz-adv-x="1618" 
d="M739 1145l158 -305l193 305h-91v362h580v-362h-96l-377 -543v-240h119v-362h-824v362h121v240l-381 543h-100v362h786v-362h-88zM691 1602l198 350h453l-404 -350h-247z" />
    <glyph glyph-name="Thorn" unicode="&#xde;" horiz-adv-x="1827" 
d="M827 1307v-86h301q302 0 475 -125t173 -351q0 -137 -70 -240.5t-201 -160.5t-311 -57h-367v-86h152v-201h-881v201h146v1106h-146v200h877v-200h-148zM1165 756q0 71 -46 103t-142 32h-150v-275h168q82 0 126 36t44 104z" />
    <glyph glyph-name="germandbls" unicode="&#xdf;" horiz-adv-x="1757" 
d="M1618 1145q0 -107 -63.5 -185.5t-178.5 -111.5v-4q295 -111 295 -391q0 -134 -59.5 -241.5t-171 -169.5t-260.5 -62q-70 0 -150 12t-137 33v249h2q18 -6 66 -6q75 0 116 50.5t41 148.5q0 125 -49 179t-166 63v245q80 0 125 42t45 114q0 68 -47 114t-121 46
q-86 0 -126 -60.5t-40 -185.5v-1024h-680v332h134v674q0 260 183 396t556 136q328 0 507 -102.5t179 -290.5z" />
    <glyph glyph-name="agrave" unicode="&#xe0;" 
d="M1466 694v-362h140v-332h-684v94q-70 -65 -154 -89.5t-219 -24.5q-141 0 -243.5 43t-156 117.5t-53.5 168.5q0 99 62.5 174.5t177.5 118.5t264 43q94 0 179 -14.5t143 -40.5v102q0 72 -57.5 118t-147.5 46q-135 0 -205 -100l-426 43q45 104 127 166.5t216 90t343 27.5
q258 0 409.5 -41t218 -126t66.5 -222zM758 207q43 0 87 16.5t77 44.5v191q-76 41 -154 41q-70 0 -114 -39t-44 -103q0 -67 42 -109t106 -42zM799 1188l-404 350h453l186 -350h-235z" />
    <glyph glyph-name="aacute" unicode="&#xe1;" 
d="M1466 694v-362h140v-332h-684v94q-70 -65 -154 -89.5t-219 -24.5q-141 0 -243.5 43t-156 117.5t-53.5 168.5q0 99 62.5 174.5t177.5 118.5t264 43q94 0 179 -14.5t143 -40.5v102q0 72 -57.5 118t-147.5 46q-135 0 -205 -100l-426 43q45 104 127 166.5t216 90t343 27.5
q258 0 409.5 -41t218 -126t66.5 -222zM758 207q43 0 87 16.5t77 44.5v191q-76 41 -154 41q-70 0 -114 -39t-44 -103q0 -67 42 -109t106 -42zM666 1188l180 350h459l-381 -350h-258z" />
    <glyph glyph-name="acircumflex" unicode="&#xe2;" 
d="M1466 694v-362h140v-332h-684v94q-70 -65 -154 -89.5t-219 -24.5q-141 0 -243.5 43t-156 117.5t-53.5 168.5q0 99 62.5 174.5t177.5 118.5t264 43q94 0 179 -14.5t143 -40.5v102q0 72 -57.5 118t-147.5 46q-135 0 -205 -100l-426 43q45 104 127 166.5t216 90t343 27.5
q258 0 409.5 -41t218 -126t66.5 -222zM758 207q43 0 87 16.5t77 44.5v191q-76 41 -154 41q-70 0 -114 -39t-44 -103q0 -67 42 -109t106 -42zM1022 1188l-186 182l-189 -182h-276l231 399h467l230 -399h-277z" />
    <glyph glyph-name="atilde" unicode="&#xe3;" 
d="M1466 694v-362h140v-332h-684v94q-70 -65 -154 -89.5t-219 -24.5q-141 0 -243.5 43t-156 117.5t-53.5 168.5q0 99 62.5 174.5t177.5 118.5t264 43q94 0 179 -14.5t143 -40.5v102q0 72 -57.5 118t-147.5 46q-135 0 -205 -100l-426 43q45 104 127 166.5t216 90t343 27.5
q258 0 409.5 -41t218 -126t66.5 -222zM758 207q43 0 87 16.5t77 44.5v191q-76 41 -154 41q-70 0 -114 -39t-44 -103q0 -67 42 -109t106 -42zM993 1176q-47 0 -88 13t-94 40q-27 14 -53.5 24.5t-46.5 10.5q-35 0 -58.5 -22.5t-29.5 -63.5h-219q14 161 85.5 252.5t182.5 91.5
q45 0 87 -13.5t97 -40.5q31 -14 58.5 -24t50.5 -10q35 0 54 20.5t30 69.5h217q-8 -164 -82 -256t-191 -92z" />
    <glyph glyph-name="adieresis" unicode="&#xe4;" 
d="M1466 694v-362h140v-332h-684v94q-70 -65 -154 -89.5t-219 -24.5q-141 0 -243.5 43t-156 117.5t-53.5 168.5q0 99 62.5 174.5t177.5 118.5t264 43q94 0 179 -14.5t143 -40.5v102q0 72 -57.5 118t-147.5 46q-135 0 -205 -100l-426 43q45 104 127 166.5t216 90t343 27.5
q258 0 409.5 -41t218 -126t66.5 -222zM758 207q43 0 87 16.5t77 44.5v191q-76 41 -154 41q-70 0 -114 -39t-44 -103q0 -67 42 -109t106 -42zM770 1374q0 -74 -51 -127t-127 -53q-74 0 -128 53t-54 127q0 76 54 128t128 52t126 -52t52 -128zM1262 1374q0 -74 -52.5 -127
t-128.5 -53q-75 0 -127.5 53t-52.5 127q0 76 53.5 128t126.5 52q74 0 127.5 -52t53.5 -128z" />
    <glyph glyph-name="aring" unicode="&#xe5;" 
d="M1466 694v-362h140v-332h-684v94q-70 -65 -154 -89.5t-219 -24.5q-141 0 -243.5 43t-156 117.5t-53.5 168.5q0 99 62.5 174.5t177.5 118.5t264 43q94 0 179 -14.5t143 -40.5v102q0 72 -57.5 118t-147.5 46q-135 0 -205 -100l-426 43q45 104 127 166.5t216 90t343 27.5
q258 0 409.5 -41t218 -126t66.5 -222zM758 207q43 0 87 16.5t77 44.5v191q-76 41 -154 41q-70 0 -114 -39t-44 -103q0 -67 42 -109t106 -42zM1096 1425q0 -71 -36 -131.5t-96.5 -95.5t-129.5 -35q-72 0 -132.5 36t-95.5 95.5t-35 130.5q0 70 35 130.5t95.5 96.5t132.5 36
q69 0 129.5 -36t96.5 -96.5t36 -130.5zM834 1315q47 0 78.5 32.5t31.5 77.5q0 48 -31.5 79.5t-78.5 31.5q-45 0 -78 -31.5t-33 -79.5q0 -45 33 -77.5t78 -32.5z" />
    <glyph glyph-name="ae" unicode="&#xe6;" horiz-adv-x="2382" 
d="M1262 983q77 47 175.5 73.5t186.5 26.5q201 0 353.5 -73.5t234.5 -208.5t82 -314v-16h-828q9 -133 55 -194.5t140 -61.5q51 0 88 27.5t66 93.5l454 -55q-65 -152 -224 -232t-388 -80q-199 0 -342.5 47t-239.5 150q-106 -103 -233 -150t-285 -47q-139 0 -243.5 41
t-162 115t-57.5 170q0 98 65.5 175t178.5 120t254 43q86 0 174 -14.5t156 -38.5v32q0 95 -19.5 147t-63.5 74.5t-126 22.5q-76 0 -121 -23.5t-78 -74.5l-424 39q55 147 225 216.5t463 69.5q328 0 484 -100zM1618 842q-152 0 -152 -238h312v29q0 100 -42 154.5t-118 54.5z
M760 176q86 0 162 57v185q-66 41 -158 41q-68 0 -112 -39t-44 -101q0 -61 43 -102t109 -41z" />
    <glyph glyph-name="ccedilla" unicode="&#xe7;" horiz-adv-x="1528" 
d="M852 -31l-10 -43q207 -24 207 -188q0 -100 -83 -156.5t-231 -56.5q-125 0 -221 14v139q14 -2 41 -4t53 -2q60 0 87.5 18.5t27.5 45.5q0 28 -30.5 42.5t-92.5 20.5l53 181q-256 34 -405.5 176.5t-149.5 361.5q0 154 83 280t226.5 198.5t315.5 72.5q205 0 344 -106v90h334
v-449h-334q-66 184 -209 184q-90 0 -148.5 -75.5t-58.5 -198.5q0 -121 57.5 -192.5t149.5 -71.5q74 0 123 48t66 134l405 -90q-51 -170 -206.5 -266t-393.5 -107z" />
    <glyph glyph-name="egrave" unicode="&#xe8;" horiz-adv-x="1550" 
d="M1452 471h-827q2 -125 51 -190.5t141 -65.5q53 0 95 30.5t65 86.5l450 -56q-65 -147 -222.5 -227t-383.5 -80q-227 0 -390 67.5t-248 192.5t-85 291t85 294t238.5 198.5t350.5 70.5q207 0 360.5 -72.5t236.5 -210.5t83 -329zM938 633q0 98 -42 153.5t-114 55.5
q-67 0 -109 -59.5t-42 -149.5v-25h307v25zM740 1188l-404 350h453l186 -350h-235z" />
    <glyph glyph-name="eacute" unicode="&#xe9;" horiz-adv-x="1550" 
d="M1452 471h-827q2 -125 51 -190.5t141 -65.5q53 0 95 30.5t65 86.5l450 -56q-65 -147 -222.5 -227t-383.5 -80q-227 0 -390 67.5t-248 192.5t-85 291t85 294t238.5 198.5t350.5 70.5q207 0 360.5 -72.5t236.5 -210.5t83 -329zM938 633q0 98 -42 153.5t-114 55.5
q-67 0 -109 -59.5t-42 -149.5v-25h307v25zM623 1188l180 350h459l-381 -350h-258z" />
    <glyph glyph-name="ecircumflex" unicode="&#xea;" horiz-adv-x="1550" 
d="M1452 471h-827q2 -125 51 -190.5t141 -65.5q53 0 95 30.5t65 86.5l450 -56q-65 -147 -222.5 -227t-383.5 -80q-227 0 -390 67.5t-248 192.5t-85 291t85 294t238.5 198.5t350.5 70.5q207 0 360.5 -72.5t236.5 -210.5t83 -329zM938 633q0 98 -42 153.5t-114 55.5
q-67 0 -109 -59.5t-42 -149.5v-25h307v25zM973 1188l-186 182l-189 -182h-276l231 399h467l230 -399h-277z" />
    <glyph glyph-name="edieresis" unicode="&#xeb;" horiz-adv-x="1550" 
d="M1452 471h-827q2 -125 51 -190.5t141 -65.5q53 0 95 30.5t65 86.5l450 -56q-65 -147 -222.5 -227t-383.5 -80q-227 0 -390 67.5t-248 192.5t-85 291t85 294t238.5 198.5t350.5 70.5q207 0 360.5 -72.5t236.5 -210.5t83 -329zM938 633q0 98 -42 153.5t-114 55.5
q-67 0 -109 -59.5t-42 -149.5v-25h307v25zM711 1374q0 -74 -51 -127t-127 -53q-74 0 -128 53t-54 127q0 76 54 128t128 52t126 -52t52 -128zM1203 1374q0 -74 -52.5 -127t-128.5 -53q-75 0 -127.5 53t-52.5 127q0 76 53.5 128t126.5 52q74 0 127.5 -52t53.5 -128z" />
    <glyph glyph-name="igrave" unicode="&#xec;" horiz-adv-x="942" 
d="M844 332v-332h-746v332h109v389h-109v332h656v-721h90zM436 1188l-404 350h453l186 -350h-235z" />
    <glyph glyph-name="iacute" unicode="&#xed;" horiz-adv-x="942" 
d="M844 332v-332h-746v332h109v389h-109v332h656v-721h90zM279 1188l180 350h459l-381 -350h-258z" />
    <glyph glyph-name="icircumflex" unicode="&#xee;" horiz-adv-x="942" 
d="M844 332v-332h-746v332h109v389h-109v332h656v-721h90zM659 1188l-186 182l-189 -182h-276l231 399h467l230 -399h-277z" />
    <glyph glyph-name="idieresis" unicode="&#xef;" horiz-adv-x="942" 
d="M844 332v-332h-746v332h109v389h-109v332h656v-721h90zM407 1374q0 -74 -51 -127t-127 -53q-74 0 -128 53t-54 127q0 76 54 128t128 52t126 -52t52 -128zM899 1374q0 -74 -52.5 -127t-128.5 -53q-75 0 -127.5 53t-52.5 127q0 76 53.5 128t126.5 52q74 0 127.5 -52
t53.5 -128z" />
    <glyph glyph-name="eth" unicode="&#xf0;" horiz-adv-x="1683" 
d="M1073 1452l258 86l152 -84l-273 -88q168 -117 268.5 -302t100.5 -384q0 -346 -189.5 -528.5t-547.5 -182.5q-217 0 -384 71t-260.5 200t-93.5 297q0 155 81 280t218.5 195.5t298.5 70.5q166 0 252 -61l4 4q-10 49 -45.5 104.5t-95.5 106.5l-295 -98l-151 84l327 106
q-53 33 -121.5 65.5t-134.5 61.5l346 82q140 -18 285 -86zM838 281q90 0 139 65.5t49 185.5q0 115 -48 177.5t-134 62.5t-136.5 -63.5t-50.5 -184.5q0 -116 47.5 -179.5t133.5 -63.5z" />
    <glyph glyph-name="ntilde" unicode="&#xf1;" horiz-adv-x="1780" 
d="M1593 641v-309h125v-332h-669v557q0 72 -33 115t-101 43q-34 0 -78 -14.5t-79 -38.5v-330h151v-332h-835v332h137v389h-137v332h684v-148q108 86 211.5 125t218.5 39q201 0 303 -111.5t102 -316.5zM1050 1176q-47 0 -88 13t-94 40q-27 14 -53.5 24.5t-46.5 10.5
q-35 0 -58.5 -22.5t-29.5 -63.5h-219q14 161 85.5 252.5t182.5 91.5q45 0 87 -13.5t97 -40.5q31 -14 58.5 -24t50.5 -10q35 0 54 20.5t30 69.5h217q-8 -164 -82 -256t-191 -92z" />
    <glyph glyph-name="ograve" unicode="&#xf2;" 
d="M1569 526q0 -164 -97.5 -290.5t-265.5 -196.5t-375 -70q-208 0 -375 67.5t-263.5 194.5t-96.5 295q0 166 96.5 293t264.5 195.5t374 68.5q205 0 373 -67.5t266.5 -193.5t98.5 -296zM827 281q93 0 141 65.5t48 185.5q0 115 -46 177.5t-134 62.5t-138.5 -63.5t-50.5 -184.5
q0 -116 47 -179.5t133 -63.5zM799 1188l-404 350h453l186 -350h-235z" />
    <glyph glyph-name="oacute" unicode="&#xf3;" 
d="M1569 526q0 -164 -97.5 -290.5t-265.5 -196.5t-375 -70q-208 0 -375 67.5t-263.5 194.5t-96.5 295q0 166 96.5 293t264.5 195.5t374 68.5q205 0 373 -67.5t266.5 -193.5t98.5 -296zM827 281q93 0 141 65.5t48 185.5q0 115 -46 177.5t-134 62.5t-138.5 -63.5t-50.5 -184.5
q0 -116 47 -179.5t133 -63.5zM653 1188l180 350h459l-381 -350h-258z" />
    <glyph glyph-name="ocircumflex" unicode="&#xf4;" 
d="M1569 526q0 -164 -97.5 -290.5t-265.5 -196.5t-375 -70q-208 0 -375 67.5t-263.5 194.5t-96.5 295q0 166 96.5 293t264.5 195.5t374 68.5q205 0 373 -67.5t266.5 -193.5t98.5 -296zM827 281q93 0 141 65.5t48 185.5q0 115 -46 177.5t-134 62.5t-138.5 -63.5t-50.5 -184.5
q0 -116 47 -179.5t133 -63.5zM1022 1188l-186 182l-189 -182h-276l231 399h467l230 -399h-277z" />
    <glyph glyph-name="otilde" unicode="&#xf5;" 
d="M1569 526q0 -164 -97.5 -290.5t-265.5 -196.5t-375 -70q-208 0 -375 67.5t-263.5 194.5t-96.5 295q0 166 96.5 293t264.5 195.5t374 68.5q205 0 373 -67.5t266.5 -193.5t98.5 -296zM827 281q93 0 141 65.5t48 185.5q0 115 -46 177.5t-134 62.5t-138.5 -63.5t-50.5 -184.5
q0 -116 47 -179.5t133 -63.5zM993 1176q-47 0 -88 13t-94 40q-27 14 -53.5 24.5t-46.5 10.5q-35 0 -58.5 -22.5t-29.5 -63.5h-219q14 161 85.5 252.5t182.5 91.5q45 0 87 -13.5t97 -40.5q31 -14 58.5 -24t50.5 -10q35 0 54 20.5t30 69.5h217q-8 -164 -82 -256t-191 -92z" />
    <glyph glyph-name="odieresis" unicode="&#xf6;" 
d="M1569 526q0 -164 -97.5 -290.5t-265.5 -196.5t-375 -70q-208 0 -375 67.5t-263.5 194.5t-96.5 295q0 166 96.5 293t264.5 195.5t374 68.5q205 0 373 -67.5t266.5 -193.5t98.5 -296zM827 281q93 0 141 65.5t48 185.5q0 115 -46 177.5t-134 62.5t-138.5 -63.5t-50.5 -184.5
q0 -116 47 -179.5t133 -63.5zM770 1374q0 -74 -51 -127t-127 -53q-74 0 -128 53t-54 127q0 76 54 128t128 52t126 -52t52 -128zM1262 1374q0 -74 -52.5 -127t-128.5 -53q-75 0 -127.5 53t-52.5 127q0 76 53.5 128t126.5 52q74 0 127.5 -52t53.5 -128z" />
    <glyph glyph-name="divide" unicode="&#xf7;" horiz-adv-x="1483" 
d="M942 1210q0 -82 -58.5 -142t-142.5 -60t-143 57t-59 145q0 84 60 141.5t142 57.5t141.5 -57.5t59.5 -141.5zM117 578v350h1247v-350h-1247zM741 498q82 0 141.5 -58.5t59.5 -142.5q0 -82 -58.5 -141.5t-142.5 -59.5q-77 0 -139.5 54.5t-62.5 148.5q0 80 60 139.5
t142 59.5z" />
    <glyph glyph-name="oslash" unicode="&#xf8;" 
d="M1350 936q102 -72 160.5 -181.5t58.5 -230.5q0 -162 -92.5 -287.5t-258 -196.5t-378.5 -71q-205 0 -389 68l-132 -131l-122 86l118 119q-108 79 -163.5 185.5t-55.5 231.5q0 162 92.5 288t258 196.5t376.5 70.5q209 0 394 -71l133 131l120 -86zM836 772
q-84 0 -136.5 -60.5t-52.5 -197.5l6 -65l291 290q-26 19 -50 26t-58 7zM827 281q91 0 140 66.5t49 184.5q0 11 -4 68l-289 -289q47 -30 104 -30z" />
    <glyph glyph-name="ugrave" unicode="&#xf9;" horiz-adv-x="1757" 
d="M846 336q45 0 89 13t77 36v336h-142v332h689v-721h127v-332h-674v133q-101 -72 -216.5 -112.5t-224.5 -40.5q-184 0 -288.5 118.5t-104.5 321.5v301h-127v332h672v-555q0 -82 28.5 -122t94.5 -40zM844 1188l-404 350h453l186 -350h-235z" />
    <glyph glyph-name="uacute" unicode="&#xfa;" horiz-adv-x="1757" 
d="M846 336q45 0 89 13t77 36v336h-142v332h689v-721h127v-332h-674v133q-101 -72 -216.5 -112.5t-224.5 -40.5q-184 0 -288.5 118.5t-104.5 321.5v301h-127v332h672v-555q0 -82 28.5 -122t94.5 -40zM680 1188l180 350h459l-381 -350h-258z" />
    <glyph glyph-name="ucircumflex" unicode="&#xfb;" horiz-adv-x="1757" 
d="M846 336q45 0 89 13t77 36v336h-142v332h689v-721h127v-332h-674v133q-101 -72 -216.5 -112.5t-224.5 -40.5q-184 0 -288.5 118.5t-104.5 321.5v301h-127v332h672v-555q0 -82 28.5 -122t94.5 -40zM1067 1188l-186 182l-189 -182h-276l231 399h467l230 -399h-277z" />
    <glyph glyph-name="udieresis" unicode="&#xfc;" horiz-adv-x="1757" 
d="M846 336q45 0 89 13t77 36v336h-142v332h689v-721h127v-332h-674v133q-101 -72 -216.5 -112.5t-224.5 -40.5q-184 0 -288.5 118.5t-104.5 321.5v301h-127v332h672v-555q0 -82 28.5 -122t94.5 -40zM815 1374q0 -74 -51 -127t-127 -53q-74 0 -128 53t-54 127q0 76 54 128
t128 52t126 -52t52 -128zM1307 1374q0 -74 -52.5 -127t-128.5 -53q-75 0 -127.5 53t-52.5 127q0 76 53.5 128t126.5 52q74 0 127.5 -52t53.5 -128z" />
    <glyph glyph-name="yacute" unicode="&#xfd;" horiz-adv-x="1456" 
d="M625 721l184 -412l166 412h-103v332h545v-332h-104l-576 -1204h-461v329h179l53 99l-404 776h-81v332h716v-332h-114zM604 1188l180 350h459l-381 -350h-258z" />
    <glyph glyph-name="thorn" unicode="&#xfe;" horiz-adv-x="1780" 
d="M1108 1069q164 0 293 -71.5t202.5 -197.5t73.5 -280q0 -158 -72.5 -280.5t-205.5 -191t-307 -68.5q-199 0 -340 88v-222h139v-329h-811v329h127v1330h-127v331h672v-528q176 90 356 90zM932 291q92 0 143 63.5t51 180.5q0 223 -190 223q-86 0 -135 -60.5t-49 -173.5
q0 -110 47 -171.5t133 -61.5z" />
    <glyph glyph-name="ydieresis" unicode="&#xff;" horiz-adv-x="1456" 
d="M625 721l184 -412l166 412h-103v332h545v-332h-104l-576 -1204h-461v329h179l53 99l-404 776h-81v332h716v-332h-114zM694 1374q0 -74 -51 -127t-127 -53q-74 0 -128 53t-54 127q0 76 54 128t128 52t126 -52t52 -128zM1186 1374q0 -74 -52.5 -127t-128.5 -53
q-75 0 -127.5 53t-52.5 127q0 76 53.5 128t126.5 52q74 0 127.5 -52t53.5 -128z" />
    <glyph glyph-name="Amacron" unicode="&#x100;" horiz-adv-x="1688" 
d="M1264 1145l288 -783h111v-362h-789v332h132l-58 188h-387l-63 -188h123v-332h-596v362h112l285 783h-123v362h1085v-362h-120zM891 709l-127 417h-4l-139 -417h270zM412 1614v235h862v-235h-862z" />
    <glyph glyph-name="amacron" unicode="&#x101;" 
d="M1466 694v-362h140v-332h-684v94q-70 -65 -154 -89.5t-219 -24.5q-141 0 -243.5 43t-156 117.5t-53.5 168.5q0 99 62.5 174.5t177.5 118.5t264 43q94 0 179 -14.5t143 -40.5v102q0 72 -57.5 118t-147.5 46q-135 0 -205 -100l-426 43q45 104 127 166.5t216 90t343 27.5
q258 0 409.5 -41t218 -126t66.5 -222zM758 207q43 0 87 16.5t77 44.5v191q-76 41 -154 41q-70 0 -114 -39t-44 -103q0 -67 42 -109t106 -42zM400 1202v236h862v-236h-862z" />
    <glyph glyph-name="Abreve" unicode="&#x102;" horiz-adv-x="1688" 
d="M1264 1145l288 -783h111v-362h-789v332h132l-58 188h-387l-63 -188h123v-332h-596v362h112l285 783h-123v362h1085v-362h-120zM891 709l-127 417h-4l-139 -417h270zM848 1827q71 0 113 26.5t61 81.5h256q-19 -161 -136.5 -250.5t-308.5 -89.5q-182 0 -295.5 90.5
t-130.5 249.5h256q9 -49 59 -78.5t126 -29.5z" />
    <glyph glyph-name="abreve" unicode="&#x103;" 
d="M1466 694v-362h140v-332h-684v94q-70 -65 -154 -89.5t-219 -24.5q-141 0 -243.5 43t-156 117.5t-53.5 168.5q0 99 62.5 174.5t177.5 118.5t264 43q94 0 179 -14.5t143 -40.5v102q0 72 -57.5 118t-147.5 46q-135 0 -205 -100l-426 43q45 104 127 166.5t216 90t343 27.5
q258 0 409.5 -41t218 -126t66.5 -222zM758 207q43 0 87 16.5t77 44.5v191q-76 41 -154 41q-70 0 -114 -39t-44 -103q0 -67 42 -109t106 -42zM838 1411q82 0 123 36t63 118h242q-19 -185 -136.5 -285t-308.5 -100q-182 0 -295.5 101t-130.5 284h244q29 -154 199 -154z" />
    <glyph glyph-name="Aogonek" unicode="&#x104;" horiz-adv-x="1688" 
d="M1204 -203q0 -45 31 -61.5t104 -16.5q78 0 174 31v-184q-65 -25 -145 -37t-154 -12q-167 0 -250 52t-83 163q0 159 182 268h-189v332h132l-58 188h-387l-63 -188h123v-332h-596v362h112l285 783h-123v362h1085v-362h-120l288 -783h111v-362h-195q-100 -27 -182 -85
t-82 -118zM764 1126h-4l-139 -417h270z" />
    <glyph glyph-name="aogonek" unicode="&#x105;" 
d="M1188 -203q0 -45 30.5 -61.5t104.5 -16.5q78 0 174 31v-184q-65 -25 -145 -37t-154 -12q-168 0 -251 52t-83 163q0 159 183 268h-125v94q-70 -65 -154 -89.5t-219 -24.5q-141 0 -243.5 43t-156 117.5t-53.5 168.5t62.5 172t177.5 121t264 43q94 0 179 -14.5t143 -40.5
v102q0 72 -57.5 118t-147.5 46q-135 0 -205 -100l-426 43q45 104 127 166.5t216 90t343 27.5q258 0 409.5 -41t218 -126t66.5 -222v-362h140v-332h-154q-100 -27 -182 -85t-82 -118zM768 500q-70 0 -114 -39t-44 -103q0 -67 42 -109t106 -42q43 0 87 16.5t77 44.5v191
q-76 41 -154 41z" />
    <glyph glyph-name="Cacute" unicode="&#x106;" horiz-adv-x="1780" 
d="M1278 1407v100h362v-551h-374q-35 109 -101.5 164.5t-156.5 55.5q-125 0 -184.5 -104.5t-59.5 -313.5q0 -221 60.5 -325.5t191.5 -104.5q112 0 180 82t100 256l392 -140q-70 -284 -256.5 -417.5t-493.5 -133.5q-262 0 -449.5 101.5t-283.5 281t-96 410.5q0 219 97 395
t267 275.5t377 99.5q125 0 236.5 -34t191.5 -97zM766 1602l198 350h453l-404 -350h-247z" />
    <glyph glyph-name="cacute" unicode="&#x107;" horiz-adv-x="1528" 
d="M1067 963v90h334v-449h-334q-66 184 -209 184q-90 0 -148.5 -75.5t-58.5 -198.5q0 -121 57.5 -192.5t149.5 -71.5q74 0 123 48t66 134l405 -90q-53 -178 -221 -275.5t-422 -97.5q-211 0 -372 66.5t-250 191.5t-89 291q0 154 83 280t226.5 198.5t315.5 72.5
q205 0 344 -106zM590 1188l180 350h459l-381 -350h-258z" />
    <glyph glyph-name="Ccaron" unicode="&#x10c;" horiz-adv-x="1780" 
d="M1278 1407v100h362v-551h-374q-35 109 -101.5 164.5t-156.5 55.5q-125 0 -184.5 -104.5t-59.5 -313.5q0 -221 60.5 -325.5t191.5 -104.5q112 0 180 82t100 256l392 -140q-70 -284 -256.5 -417.5t-493.5 -133.5q-262 0 -449.5 101.5t-283.5 281t-96 410.5q0 219 97 395
t267 275.5t377 99.5q125 0 236.5 -34t191.5 -97zM1089 1954h277l-203 -352h-467l-201 352h277l158 -133z" />
    <glyph glyph-name="ccaron" unicode="&#x10d;" horiz-adv-x="1528" 
d="M1067 963v90h334v-449h-334q-66 184 -209 184q-90 0 -148.5 -75.5t-58.5 -198.5q0 -121 57.5 -192.5t149.5 -71.5q74 0 123 48t66 134l405 -90q-53 -178 -221 -275.5t-422 -97.5q-211 0 -372 66.5t-250 191.5t-89 291q0 154 83 280t226.5 198.5t315.5 72.5
q205 0 344 -106zM952 1587h277l-234 -399h-467l-229 399h276l187 -182z" />
    <glyph glyph-name="Dcaron" unicode="&#x10e;" horiz-adv-x="1929" 
d="M1817 758q0 -363 -216.5 -560.5t-613.5 -197.5h-889v362h119v785h-119v360h867q221 0 414.5 -78.5t315.5 -246.5t122 -424zM891 1145h-90v-783h90q141 0 217 90.5t76 303.5q0 217 -71 303t-222 86zM1060 1954h277l-203 -352h-467l-201 352h277l158 -133z" />
    <glyph glyph-name="dcaron" unicode="&#x10f;" horiz-adv-x="2154" 
d="M1702 332v-332h-682v96q-60 -55 -155 -85.5t-208 -30.5q-153 0 -280 73.5t-200 200.5t-73 281q0 163 73 284t204 185.5t299 64.5q194 0 340 -86v193h-135v331h679v-1175h138zM837 291q89 0 138 62.5t49 170.5q0 109 -49 172.5t-136 63.5q-81 0 -131.5 -59.5t-50.5 -172.5
q0 -237 180 -237zM1761 1110h-60v119h37q68 0 101.5 8t45.5 26.5t11 55.5h-195v188h424v-153q0 -96 -34.5 -148t-112 -74t-217.5 -22z" />
    <glyph glyph-name="Dcroat" unicode="&#x110;" horiz-adv-x="1929" 
d="M1817 762q0 -246 -100.5 -417t-280 -258t-410.5 -87h-928v362h117v244h-117v305h117v234h-117v362h883q244 0 434.5 -95t296 -265t105.5 -385zM799 606v-244h75q175 0 242.5 94.5t67.5 288.5q0 211 -75 305.5t-269 94.5h-41v-234h229v-305h-229z" />
    <glyph glyph-name="dcroat" unicode="&#x111;" horiz-adv-x="1780" 
d="M1749 1425v-297h-184v-796h137v-332h-682v96q-59 -55 -154.5 -85.5t-208.5 -30.5q-153 0 -280 73.5t-200 200.5t-73 281q0 163 73 284t204 185.5t299 64.5q199 0 340 -86v145h-324v297h324v113h545v-113h184zM838 291q88 0 137 62.5t49 170.5q0 109 -49 172.5t-135 63.5
q-84 0 -133.5 -59.5t-49.5 -172.5q0 -237 181 -237z" />
    <glyph glyph-name="Emacron" unicode="&#x112;" 
d="M1143 1026v119h-342v-230h299v-307h-299v-246h342v119h395v-481h-1438v362h117v783h-117v362h1438v-481h-395zM400 1614v235h862v-235h-862z" />
    <glyph glyph-name="emacron" unicode="&#x113;" horiz-adv-x="1550" 
d="M1452 471h-827q2 -125 51 -190.5t141 -65.5q53 0 95 30.5t65 86.5l450 -56q-65 -147 -222.5 -227t-383.5 -80q-227 0 -390 67.5t-248 192.5t-85 291t85 294t238.5 198.5t350.5 70.5q207 0 360.5 -72.5t236.5 -210.5t83 -329zM938 633q0 98 -42 153.5t-114 55.5
q-67 0 -109 -59.5t-42 -149.5v-25h307v25zM342 1202v236h862v-236h-862z" />
    <glyph glyph-name="Edotaccent" unicode="&#x116;" 
d="M1143 1026v119h-342v-230h299v-307h-299v-246h342v119h395v-481h-1438v362h117v783h-117v362h1438v-481h-395zM1038 1792q0 -76 -52.5 -129t-127.5 -53q-76 0 -129.5 53t-53.5 129q0 74 54.5 126t128.5 52q73 0 126.5 -52t53.5 -126z" />
    <glyph glyph-name="edotaccent" unicode="&#x117;" horiz-adv-x="1550" 
d="M1452 471h-827q2 -125 51 -190.5t141 -65.5q53 0 95 30.5t65 86.5l450 -56q-65 -147 -222.5 -227t-383.5 -80q-227 0 -390 67.5t-248 192.5t-85 291t85 294t238.5 198.5t350.5 70.5q207 0 360.5 -72.5t236.5 -210.5t83 -329zM938 633q0 98 -42 153.5t-114 55.5
q-67 0 -109 -59.5t-42 -149.5v-25h307v25zM954 1378q0 -75 -52.5 -128.5t-127.5 -53.5q-76 0 -129.5 53.5t-53.5 128.5q0 74 54.5 126t128.5 52q73 0 126.5 -52t53.5 -126z" />
    <glyph glyph-name="Eogonek" unicode="&#x118;" 
d="M1143 1145h-342v-230h299v-307h-299v-246h342v119h395v-481h-147q-101 -27 -183 -85t-82 -118q0 -45 31 -61.5t105 -16.5q77 0 174 31v-184q-66 -25 -146 -37t-153 -12q-168 0 -251 52t-83 163q0 159 182 268h-885v362h117v783h-117v362h1438v-481h-395v119z" />
    <glyph glyph-name="eogonek" unicode="&#x119;" horiz-adv-x="1550" 
d="M1452 471h-827q2 -125 51 -190.5t141 -65.5q53 0 95 30.5t65 86.5l450 -56q-34 -77 -99.5 -137.5t-176.5 -113.5q-107 -50 -179.5 -107t-72.5 -121q0 -47 31 -62.5t104 -15.5q78 0 174 31v-184q-65 -25 -145 -37t-154 -12q-168 0 -251 52t-83 163q0 141 152 241
q-299 21 -464 167.5t-165 379.5q0 166 85 294t238.5 198.5t350.5 70.5q207 0 360.5 -72.5t236.5 -210.5t83 -329zM938 633q0 98 -42 153.5t-114 55.5q-67 0 -109 -59.5t-42 -149.5v-25h307v25z" />
    <glyph glyph-name="Ecaron" unicode="&#x11a;" 
d="M1143 1026v119h-342v-230h299v-307h-299v-246h342v119h395v-481h-1438v362h117v783h-117v362h1438v-481h-395zM989 1954h277l-203 -352h-467l-201 352h277l158 -133z" />
    <glyph glyph-name="ecaron" unicode="&#x11b;" horiz-adv-x="1550" 
d="M1452 471h-827q2 -125 51 -190.5t141 -65.5q53 0 95 30.5t65 86.5l450 -56q-65 -147 -222.5 -227t-383.5 -80q-227 0 -390 67.5t-248 192.5t-85 291t85 294t238.5 198.5t350.5 70.5q207 0 360.5 -72.5t236.5 -210.5t83 -329zM938 633q0 98 -42 153.5t-114 55.5
q-67 0 -109 -59.5t-42 -149.5v-25h307v25zM962 1587h277l-234 -399h-467l-229 399h276l187 -182z" />
    <glyph glyph-name="Gbreve" unicode="&#x11e;" horiz-adv-x="1874" 
d="M1343 1403v104h361v-526h-361q-55 102 -127.5 148.5t-177.5 46.5q-100 0 -159.5 -42t-87 -137.5t-27.5 -259.5q0 -215 64.5 -312t207.5 -97q99 0 152 50t53 142h-156v285h676v-103q0 -215 -88 -378.5t-260 -256t-418 -92.5q-280 0 -479 98.5t-303 277.5t-104 423
q0 211 102 386t284.5 276.5t409.5 101.5q131 0 246 -35t192 -100zM977 1827q71 0 113 26.5t61 81.5h256q-19 -161 -136.5 -250.5t-308.5 -89.5q-182 0 -295.5 90.5t-130.5 249.5h256q9 -49 59 -78.5t126 -29.5z" />
    <glyph glyph-name="gbreve" unicode="&#x11f;" horiz-adv-x="1757" 
d="M1020 956v97h676v-332h-131v-647q0 -191 -76 -312.5t-244 -183t-442 -61.5q-166 0 -339 24.5t-280 63.5l150 268q59 -25 150 -39t184 -14q186 0 269 61.5t83 194.5v33q-160 -84 -361 -84q-167 0 -295 64.5t-199 179t-71 261.5q0 158 77 281t210 190.5t297 67.5
q211 0 342 -113zM836 293q88 0 137 60.5t49 166.5q0 107 -52 173.5t-139 66.5q-81 0 -133.5 -66.5t-52.5 -173.5q0 -102 52.5 -164.5t138.5 -62.5zM926 1411q82 0 123 36t63 118h242q-19 -185 -136.5 -285t-308.5 -100q-182 0 -295.5 101t-130.5 284h244q29 -154 199 -154z
" />
    <glyph glyph-name="Gcommaaccent" unicode="&#x122;" horiz-adv-x="1874" 
d="M1343 1403v104h361v-526h-361q-55 102 -127.5 148.5t-177.5 46.5q-100 0 -159.5 -42t-87 -137.5t-27.5 -259.5q0 -215 64.5 -312t207.5 -97q99 0 152 50t53 142h-156v285h676v-103q0 -215 -88 -378.5t-260 -256t-418 -92.5q-280 0 -479 98.5t-303 277.5t-104 423
q0 211 102 386t284.5 276.5t409.5 101.5q131 0 246 -35t192 -100zM784 -473h-59v119h37q67 0 101 8t45 26.5t11 55.5h-194v188h424v-153q0 -97 -35 -148t-112 -73.5t-218 -22.5z" />
    <glyph glyph-name="gcommaaccent" unicode="&#x123;" horiz-adv-x="1757" 
d="M1020 956v97h676v-332h-131v-647q0 -191 -76 -312.5t-244 -183t-442 -61.5q-166 0 -339 24.5t-280 63.5l150 268q59 -25 150 -39t184 -14q186 0 269 61.5t83 194.5v33q-160 -84 -361 -84q-167 0 -295 64.5t-199 179t-71 261.5q0 158 77 281t210 190.5t297 67.5
q211 0 342 -113zM836 293q88 0 137 60.5t49 166.5q0 107 -52 173.5t-139 66.5q-81 0 -133.5 -66.5t-52.5 -173.5q0 -102 52.5 -164.5t138.5 -62.5zM887 1397h196v-189h-421v144q0 90 26.5 144t102 82t221.5 28h73v-119h-38q-89 2 -124.5 -16.5t-35.5 -73.5z" />
    <glyph glyph-name="Imacron" unicode="&#x12a;" horiz-adv-x="1010" 
d="M797 1145v-783h141v-362h-864v362h139v783h-139v362h864v-362h-141zM72 1614v235h862v-235h-862z" />
    <glyph glyph-name="imacron" unicode="&#x12b;" horiz-adv-x="942" 
d="M844 332v-332h-746v332h109v389h-109v332h656v-721h90zM19 1202v236h862v-236h-862z" />
    <glyph glyph-name="Iogonek" unicode="&#x12e;" horiz-adv-x="1010" 
d="M797 362h141v-362h-147q-101 -27 -183 -85t-82 -118q0 -45 31 -61.5t105 -16.5q77 0 174 31v-184q-66 -25 -146 -37t-153 -12q-168 0 -251 52t-83 163q0 159 182 268h-311v362h139v783h-139v362h864v-362h-141v-783z" />
    <glyph glyph-name="iogonek" unicode="&#x12f;" horiz-adv-x="942" 
d="M162 1352q0 78 86 132t213 54q129 0 212 -53t83 -133q0 -82 -82 -135.5t-213 -53.5q-139 0 -219 51.5t-80 137.5zM477 -203q0 -45 31 -61.5t104 -16.5q78 0 174 31v-184q-65 -25 -145 -37t-154 -12q-168 0 -250.5 52t-82.5 163q0 159 182 268h-238v332h109v389h-109v332
h656v-721h90v-332h-103q-96 -27 -180 -85t-84 -118z" />
    <glyph glyph-name="Idotaccent" unicode="&#x130;" horiz-adv-x="1010" 
d="M797 1145v-783h141v-362h-864v362h139v783h-139v362h864v-362h-141zM684 1792q0 -76 -52.5 -129t-127.5 -53q-76 0 -129.5 53t-53.5 129q0 74 54.5 126t128.5 52q73 0 126.5 -52t53.5 -126z" />
    <glyph glyph-name="dotlessi" unicode="&#x131;" horiz-adv-x="942" 
d="M844 332v-332h-746v332h109v389h-109v332h656v-721h90z" />
    <glyph glyph-name="Kcommaaccent" unicode="&#x136;" horiz-adv-x="1896" 
d="M799 1145v-783h121v-362h-820v362h115v783h-115v362h820v-362h-121zM1702 1145l-305 -283l383 -500h75v-362h-778v362h70l-330 429l383 354h-123v362h744v-362h-119zM823 -473h-59v119h37q67 0 101 8t45 26.5t11 55.5h-194v188h424v-153q0 -97 -35 -148t-112 -73.5
t-218 -22.5z" />
    <glyph glyph-name="kcommaaccent" unicode="&#x137;" horiz-adv-x="1642" 
d="M1077 793h-192v260h674v-287h-125l-197 -193l238 -241h84v-332h-392l-432 455v-455h-682v332h135v844h-135v331h682v-1050zM702 -473h-59v119h37q67 0 101 8t45 26.5t11 55.5h-194v188h424v-153q0 -97 -35 -148t-112 -73.5t-218 -22.5z" />
    <glyph glyph-name="Lacute" unicode="&#x139;" horiz-adv-x="1550" 
d="M797 1145v-783h356v242h360v-604h-1435v362h135v783h-135v362h860v-362h-141zM443 1602l198 350h453l-404 -350h-247z" />
    <glyph glyph-name="lacute" unicode="&#x13a;" horiz-adv-x="901" 
d="M827 332v-332h-753v332h110v844h-110v331h657v-1175h96zM238 1588l198 350h453l-404 -350h-247z" />
    <glyph glyph-name="Lcommaaccent" unicode="&#x13b;" horiz-adv-x="1550" 
d="M797 1145v-783h356v242h360v-604h-1435v362h135v783h-135v362h860v-362h-141zM622 -473h-59v119h37q67 0 101 8t45 26.5t11 55.5h-194v188h424v-153q0 -97 -35 -148t-112 -73.5t-218 -22.5z" />
    <glyph glyph-name="lcommaaccent" unicode="&#x13c;" horiz-adv-x="901" 
d="M827 332v-332h-753v332h110v844h-110v331h657v-1175h96zM297 -473h-59v119h37q67 0 101 8t45 26.5t11 55.5h-194v188h424v-153q0 -97 -35 -148t-112 -73.5t-218 -22.5z" />
    <glyph glyph-name="Lcaron" unicode="&#x13d;" horiz-adv-x="1550" 
d="M797 1145v-783h356v242h360v-604h-1435v362h135v783h-135v362h860v-362h-141zM1125 1110h-60v119h37q68 0 101.5 8t45.5 26.5t11 55.5h-195v188h424v-153q0 -96 -34.5 -148t-112 -74t-217.5 -22z" />
    <glyph glyph-name="lcaron" unicode="&#x13e;" horiz-adv-x="1315" 
d="M827 332v-332h-753v332h110v844h-110v331h657v-1175h96zM922 1110h-60v119h37q68 0 101.5 8t45.5 26.5t11 55.5h-195v188h424v-153q0 -96 -34.5 -148t-112 -74t-217.5 -22z" />
    <glyph glyph-name="Lslash" unicode="&#x141;" horiz-adv-x="1550" 
d="M797 1145v-187l278 93v-207l-278 -92v-390h356v242h360v-604h-1435v362h135v197l-135 -45v207l135 45v379h-135v362h860v-362h-141z" />
    <glyph glyph-name="lslash" unicode="&#x142;" horiz-adv-x="901" 
d="M879 1190v-211l-148 -90v-557h96v-332h-753v332h110v213l-161 -105v211l161 105v420h-110v331h657v-407z" />
    <glyph glyph-name="Nacute" unicode="&#x143;" horiz-adv-x="1896" 
d="M1341 719v426h-127v362h609v-362h-131v-1170h-498l-633 918h-4v-531h135v-362h-618v362h133v783h-133v362h714l549 -788h4zM746 1602l198 350h453l-404 -350h-247z" />
    <glyph glyph-name="nacute" unicode="&#x144;" horiz-adv-x="1780" 
d="M1593 641v-309h125v-332h-669v557q0 72 -33 115t-101 43q-34 0 -78 -14.5t-79 -38.5v-330h151v-332h-835v332h137v389h-137v332h684v-148q108 86 211.5 125t218.5 39q201 0 303 -111.5t102 -316.5zM750 1188l180 350h459l-381 -350h-258z" />
    <glyph glyph-name="Ncommaaccent" unicode="&#x145;" horiz-adv-x="1896" 
d="M1341 719v426h-127v362h609v-362h-131v-1170h-498l-633 918h-4v-531h135v-362h-618v362h133v783h-133v362h714l549 -788h4zM794 -473h-59v119h37q67 0 101 8t45 26.5t11 55.5h-194v188h424v-153q0 -97 -35 -148t-112 -73.5t-218 -22.5z" />
    <glyph glyph-name="ncommaaccent" unicode="&#x146;" horiz-adv-x="1780" 
d="M1593 641v-309h125v-332h-669v557q0 72 -33 115t-101 43q-34 0 -78 -14.5t-79 -38.5v-330h151v-332h-835v332h137v389h-137v332h684v-148q108 86 211.5 125t218.5 39q201 0 303 -111.5t102 -316.5zM737 -473h-59v119h37q67 0 101 8t45 26.5t11 55.5h-194v188h424v-153
q0 -97 -35 -148t-112 -73.5t-218 -22.5z" />
    <glyph glyph-name="Ncaron" unicode="&#x147;" horiz-adv-x="1896" 
d="M1341 719v426h-127v362h609v-362h-131v-1170h-498l-633 918h-4v-531h135v-362h-618v362h133v783h-133v362h714l549 -788h4zM1106 1954h277l-203 -352h-467l-201 352h277l158 -133z" />
    <glyph glyph-name="ncaron" unicode="&#x148;" horiz-adv-x="1780" 
d="M1593 641v-309h125v-332h-669v557q0 72 -33 115t-101 43q-34 0 -78 -14.5t-79 -38.5v-330h151v-332h-835v332h137v389h-137v332h684v-148q108 86 211.5 125t218.5 39q201 0 303 -111.5t102 -316.5zM1079 1587h277l-234 -399h-467l-229 399h276l187 -182z" />
    <glyph glyph-name="Omacron" unicode="&#x14c;" horiz-adv-x="1921" 
d="M1808 758q0 -226 -109.5 -404t-304 -278.5t-440.5 -100.5q-239 0 -432.5 101.5t-303 281t-109.5 400.5t108.5 399t302 279.5t438.5 101.5q248 0 441.5 -103.5t301 -281.5t107.5 -395zM958 328q74 0 117 40t61.5 133t18.5 257q0 166 -20.5 258t-62.5 131t-114 39
q-71 0 -113 -38t-61.5 -130t-19.5 -260q0 -164 18.5 -257t60.5 -133t115 -40zM527 1614v235h862v-235h-862z" />
    <glyph glyph-name="omacron" unicode="&#x14d;" 
d="M1569 526q0 -164 -97.5 -290.5t-265.5 -196.5t-375 -70q-208 0 -375 67.5t-263.5 194.5t-96.5 295q0 166 96.5 293t264.5 195.5t374 68.5q205 0 373 -67.5t266.5 -193.5t98.5 -296zM827 281q93 0 141 65.5t48 185.5q0 115 -46 177.5t-134 62.5t-138.5 -63.5t-50.5 -184.5
q0 -116 47 -179.5t133 -63.5zM400 1202v236h862v-236h-862z" />
    <glyph glyph-name="Ohungarumlaut" unicode="&#x150;" horiz-adv-x="1921" 
d="M1808 758q0 -226 -109.5 -404t-304 -278.5t-440.5 -100.5q-239 0 -432.5 101.5t-303 281t-109.5 400.5t108.5 399t302 279.5t438.5 101.5q248 0 441.5 -103.5t301 -281.5t107.5 -395zM958 328q74 0 117 40t61.5 133t18.5 257q0 166 -20.5 258t-62.5 131t-114 39
q-71 0 -113 -38t-61.5 -130t-19.5 -260q0 -164 18.5 -257t60.5 -133t115 -40zM555 1602l186 350h451l-403 -350h-234zM1124 1602l187 350h450l-403 -350h-234z" />
    <glyph glyph-name="ohungarumlaut" unicode="&#x151;" 
d="M1569 526q0 -164 -97.5 -290.5t-265.5 -196.5t-375 -70q-208 0 -375 67.5t-263.5 194.5t-96.5 295q0 166 96.5 293t264.5 195.5t374 68.5q205 0 373 -67.5t266.5 -193.5t98.5 -296zM827 281q93 0 141 65.5t48 185.5q0 115 -46 177.5t-134 62.5t-138.5 -63.5t-50.5 -184.5
q0 -116 47 -179.5t133 -63.5zM403 1188l186 350h451l-403 -350h-234zM974 1188l187 350h450l-403 -350h-234z" />
    <glyph glyph-name="OE" unicode="&#x152;" horiz-adv-x="2566" 
d="M2044 1026v119h-348v-230h299v-307h-299v-246h348v121h395v-483h-1524q-223 0 -405 85t-289.5 256t-107.5 415q0 233 99 402t289.5 259t454.5 90h1483v-481h-395zM1001 362h111v783h-111q-139 0 -222 -99.5t-83 -289.5q0 -197 82 -295.5t223 -98.5z" />
    <glyph glyph-name="oe" unicode="&#x153;" horiz-adv-x="2476" 
d="M1288 965q66 55 181.5 86.5t250.5 31.5q203 0 352.5 -73.5t231.5 -212t82 -326.5h-823v-31q0 -104 51 -164.5t137 -60.5q51 0 91 27.5t73 89.5l446 -60q-69 -147 -226 -225t-382 -78q-289 0 -465 101q-78 -50 -199.5 -75.5t-275.5 -25.5q-240 0 -402.5 79t-241.5 208
t-79 279q0 163 91 288t258 192.5t382 67.5q152 0 271.5 -30.5t195.5 -87.5zM1716 842q-67 0 -108 -60.5t-45 -177.5h311q0 109 -41 173.5t-117 64.5zM831 281q89 0 137 64.5t48 182.5q0 115 -49 179.5t-136 64.5q-86 0 -137 -67.5t-51 -180.5q0 -114 50 -178.5t138 -64.5z
" />
    <glyph glyph-name="Racute" unicode="&#x154;" horiz-adv-x="1896" 
d="M1485 1450q141 -53 209.5 -159.5t68.5 -233.5q0 -115 -60.5 -211t-160.5 -139l209 -345h109v-362h-543l-330 614h-184v-252h115v-362h-820v362h121v783h-121v362h903q328 0 484 -57zM1153 1032q0 66 -47 105t-127 39h-176v-285h172q84 0 131 38t47 103zM779 1602l198 350
h453l-404 -350h-247z" />
    <glyph glyph-name="racute" unicode="&#x155;" horiz-adv-x="1202" 
d="M1161 1069h39v-455q-29 2 -61 2q-199 0 -289 -67.5t-90 -198.5v-18h160v-332h-848v332h141v389h-141v332h651v-265h6q96 281 432 281zM424 1188l180 350h459l-381 -350h-258z" />
    <glyph glyph-name="Rcommaaccent" unicode="&#x156;" horiz-adv-x="1896" 
d="M1485 1450q141 -53 209.5 -159.5t68.5 -233.5q0 -115 -60.5 -211t-160.5 -139l209 -345h109v-362h-543l-330 614h-184v-252h115v-362h-820v362h121v783h-121v362h903q328 0 484 -57zM1153 1032q0 66 -47 105t-127 39h-176v-285h172q84 0 131 38t47 103zM815 -473h-59v119
h37q67 0 101 8t45 26.5t11 55.5h-194v188h424v-153q0 -97 -35 -148t-112 -73.5t-218 -22.5z" />
    <glyph glyph-name="rcommaaccent" unicode="&#x157;" horiz-adv-x="1202" 
d="M1161 1069h39v-455q-29 2 -61 2q-199 0 -289 -67.5t-90 -198.5v-18h160v-332h-848v332h141v389h-141v332h651v-265h6q96 281 432 281zM346 -473h-59v119h37q67 0 101 8t45 26.5t11 55.5h-194v188h424v-153q0 -97 -35 -148t-112 -73.5t-218 -22.5z" />
    <glyph glyph-name="Rcaron" unicode="&#x158;" horiz-adv-x="1896" 
d="M1485 1450q141 -53 209.5 -159.5t68.5 -233.5q0 -115 -60.5 -211t-160.5 -139l209 -345h109v-362h-543l-330 614h-184v-252h115v-362h-820v362h121v783h-121v362h903q328 0 484 -57zM1153 1032q0 66 -47 105t-127 39h-176v-285h172q84 0 131 38t47 103zM1106 1954h277
l-203 -352h-467l-201 352h277l158 -133z" />
    <glyph glyph-name="rcaron" unicode="&#x159;" horiz-adv-x="1202" 
d="M1161 1069h39v-455q-29 2 -61 2q-199 0 -289 -67.5t-90 -198.5v-18h160v-332h-848v332h141v389h-141v332h651v-265h6q96 281 432 281zM805 1587h277l-234 -399h-467l-229 399h276l187 -182z" />
    <glyph glyph-name="Sacute" unicode="&#x15a;" horiz-adv-x="1386" 
d="M897 1413v94h340v-428h-340q-27 84 -81 130t-136 46q-51 0 -82 -24.5t-31 -65.5q0 -47 30 -72.5t212 -107.5l113 -55q374 -185 374 -492q0 -125 -64.5 -230.5t-177 -166.5t-253.5 -61q-92 0 -189.5 32.5t-171.5 87.5v-100h-340v483h340q33 -102 88.5 -149t141.5 -47
q55 0 88 25.5t33 72.5q0 45 -43 85t-146 83l-102 45q-199 86 -305.5 201.5t-106.5 281.5q0 131 60.5 232.5t168 158t244.5 56.5q98 0 184 -30t152 -85zM469 1602l198 350h453l-404 -350h-247z" />
    <glyph glyph-name="sacute" unicode="&#x15b;" horiz-adv-x="1366" 
d="M858 975v78h334v-308h-309q-66 60 -132.5 85.5t-146.5 25.5q-119 0 -119 -68q0 -26 43 -42.5t177 -38.5q174 -31 266 -62q149 -49 223 -120.5t74 -184.5q0 -176 -125 -268t-344 -92q-92 0 -170 20t-160 70v-84h-338v336h315q70 -70 129.5 -99.5t137.5 -29.5q65 0 104 17
t39 44q0 53 -125 80q-158 33 -247 57.5t-185 65.5q-104 47 -152.5 114.5t-48.5 161.5q0 160 115 250t319 90q97 0 189 -27.5t137 -70.5zM461 1188l180 350h459l-381 -350h-258z" />
    <glyph glyph-name="Scedilla" unicode="&#x15e;" horiz-adv-x="1386" 
d="M745 -16l-14 -58q207 -24 207 -188q0 -100 -82 -156.5t-231 -56.5q-125 0 -222 14v139q15 -2 41.5 -4t53.5 -2q59 0 86.5 18.5t27.5 45.5q0 28 -30.5 42.5t-92.5 20.5l68 234q-63 26 -117 67v-100h-340v483h340q33 -102 88.5 -149t141.5 -47q55 0 88 25.5t33 72.5
q0 45 -43 85t-146 83l-102 45q-199 86 -305.5 201.5t-106.5 281.5q0 131 60.5 232.5t168 158t244.5 56.5q98 0 184 -30t152 -85v94h340v-428h-340q-27 84 -81 130t-136 46q-51 0 -82 -24.5t-31 -65.5q0 -47 31 -73.5t211 -106.5l113 -55q374 -185 374 -492
q0 -125 -64.5 -230.5t-177 -166.5t-253.5 -61q-19 0 -56 4z" />
    <glyph glyph-name="scedilla" unicode="&#x15f;" horiz-adv-x="1366" 
d="M469 70v-84h-338v336h315q70 -70 129.5 -99.5t137.5 -29.5q65 0 104 17t39 44q0 53 -125 80q-158 33 -247 57.5t-185 65.5q-104 47 -152.5 114.5t-48.5 161.5q0 160 115 250t319 90q97 0 189 -27.5t137 -70.5v78h334v-308h-309q-66 60 -132.5 85.5t-146.5 25.5
q-119 0 -119 -68q0 -26 43 -42.5t177 -38.5q176 -33 266 -62q149 -49 223 -120.5t74 -184.5q0 -176 -125 -268t-344 -92q-43 0 -62 2l-14 -56q207 -24 207 -188q0 -100 -83 -156.5t-231 -56.5q-124 0 -221 14v139q15 -2 41.5 -4t52.5 -2q60 0 87.5 18.5t27.5 45.5
q0 28 -30.5 42.5t-92.5 20.5l66 230q-35 14 -78 41z" />
    <glyph glyph-name="Scaron" unicode="&#x160;" horiz-adv-x="1386" 
d="M897 1413v94h340v-428h-340q-27 84 -81 130t-136 46q-51 0 -82 -24.5t-31 -65.5q0 -47 30 -72.5t212 -107.5l113 -55q374 -185 374 -492q0 -125 -64.5 -230.5t-177 -166.5t-253.5 -61q-92 0 -189.5 32.5t-171.5 87.5v-100h-340v483h340q33 -102 88.5 -149t141.5 -47
q55 0 88 25.5t33 72.5q0 45 -43 85t-146 83l-102 45q-199 86 -305.5 201.5t-106.5 281.5q0 131 60.5 232.5t168 158t244.5 56.5q98 0 184 -30t152 -85zM821 1954h277l-203 -352h-467l-201 352h277l158 -133z" />
    <glyph glyph-name="scaron" unicode="&#x161;" horiz-adv-x="1366" 
d="M858 975v78h334v-308h-309q-66 60 -132.5 85.5t-146.5 25.5q-119 0 -119 -68q0 -26 43 -42.5t177 -38.5q174 -31 266 -62q149 -49 223 -120.5t74 -184.5q0 -176 -125 -268t-344 -92q-92 0 -170 20t-160 70v-84h-338v336h315q70 -70 129.5 -99.5t137.5 -29.5q65 0 104 17
t39 44q0 53 -125 80q-158 33 -247 57.5t-185 65.5q-104 47 -152.5 114.5t-48.5 161.5q0 160 115 250t319 90q97 0 189 -27.5t137 -70.5zM850 1587h277l-234 -399h-467l-229 399h276l187 -182z" />
    <glyph glyph-name="Tcommaaccent" unicode="&#x162;" 
d="M1583 872h-285v273h-172v-783h134v-362h-340l-19 -74q207 -24 207 -188q0 -100 -83 -156.5t-230 -56.5q-125 0 -222 14v139q15 -2 41.5 -4t53.5 -2q59 0 86.5 18.5t27.5 45.5q0 28 -30.5 42.5t-92.5 20.5l58 201h-309v362h133v783h-172v-273h-285v635h1499v-635z" />
    <glyph glyph-name="tcommaaccent" unicode="&#x163;" horiz-adv-x="1016" 
d="M696 496q0 -76 20.5 -111t76.5 -35q26 0 62 10.5t65 24.5v-324q-56 -38 -147 -63t-183 -29l-10 -43q206 -24 206 -188q0 -100 -81.5 -156.5t-231.5 -56.5q-125 0 -221 14v139q14 -2 40.5 -4t53.5 -2q60 0 87.5 18.5t27.5 45.5q0 28 -31 42.5t-92 20.5l55 193
q-121 37 -181 132t-60 243v354h-138v332h138v159l544 261v-420h224v-332h-224v-225z" />
    <glyph glyph-name="Tcaron" unicode="&#x164;" 
d="M1298 872v273h-172v-783h134v-362h-852v362h133v783h-172v-273h-285v635h1499v-635h-285zM989 1954h277l-203 -352h-467l-201 352h277l158 -133z" />
    <glyph glyph-name="tcaron" unicode="&#x165;" horiz-adv-x="1280" 
d="M920 721h-224v-225q0 -76 20.5 -111t76.5 -35q26 0 62 10.5t65 24.5v-324q-60 -41 -161.5 -66.5t-197.5 -25.5q-207 0 -308 102.5t-101 295.5v354h-138v332h138v159l544 261v-420h224v-332zM907 1198h-60v119h37q68 0 101.5 8t45.5 26.5t11 55.5h-195v188h424v-153
q0 -96 -34.5 -148t-112 -74t-217.5 -22z" />
    <glyph glyph-name="Umacron" unicode="&#x16a;" horiz-adv-x="1618" 
d="M762 1145v-565q0 -136 38 -194t120 -58q79 0 111 58t32 202v557h-76v362h567v-362h-118v-596q0 -275 -159 -424.5t-462 -149.5q-330 0 -483.5 154t-153.5 459v557h-117v362h775v-362h-74zM377 1614v235h862v-235h-862z" />
    <glyph glyph-name="umacron" unicode="&#x16b;" horiz-adv-x="1757" 
d="M846 336q45 0 89 13t77 36v336h-142v332h689v-721h127v-332h-674v133q-101 -72 -216.5 -112.5t-224.5 -40.5q-184 0 -288.5 118.5t-104.5 321.5v301h-127v332h672v-555q0 -82 28.5 -122t94.5 -40zM447 1202v236h862v-236h-862z" />
    <glyph glyph-name="Uring" unicode="&#x16e;" horiz-adv-x="1618" 
d="M762 1145v-565q0 -136 38 -194t120 -58q79 0 111 58t32 202v557h-76v362h567v-362h-118v-596q0 -275 -159 -424.5t-462 -149.5q-330 0 -483.5 154t-153.5 459v557h-117v362h775v-362h-74zM1131 1837q0 -72 -36 -132t-96.5 -95t-129.5 -35q-109 0 -186 77t-77 185
q0 70 35 130.5t95.5 96t132.5 35.5q71 0 131.5 -35.5t95.5 -96t35 -130.5zM869 1726q47 0 78.5 32t31.5 79t-31.5 79t-78.5 32q-45 0 -78 -32t-33 -79t32 -79t79 -32z" />
    <glyph glyph-name="uring" unicode="&#x16f;" horiz-adv-x="1757" 
d="M846 336q45 0 89 13t77 36v336h-142v332h689v-721h127v-332h-674v133q-101 -72 -216.5 -112.5t-224.5 -40.5q-184 0 -288.5 118.5t-104.5 321.5v301h-127v332h672v-555q0 -82 28.5 -122t94.5 -40zM1141 1425q0 -71 -36 -131.5t-96.5 -95.5t-129.5 -35q-72 0 -132.5 36
t-95.5 95.5t-35 130.5q0 70 35 130.5t95.5 96.5t132.5 36q69 0 129.5 -36t96.5 -96.5t36 -130.5zM879 1315q47 0 78.5 32.5t31.5 77.5q0 48 -31.5 79.5t-78.5 31.5q-45 0 -78 -31.5t-33 -79.5q0 -45 33 -77.5t78 -32.5z" />
    <glyph glyph-name="Uhungarumlaut" unicode="&#x170;" horiz-adv-x="1618" 
d="M762 1145v-565q0 -136 38 -194t120 -58q79 0 111 58t32 202v557h-76v362h567v-362h-118v-596q0 -275 -159 -424.5t-462 -149.5q-330 0 -483.5 154t-153.5 459v557h-117v362h775v-362h-74zM391 1602l186 350h451l-403 -350h-234zM960 1602l187 350h450l-403 -350h-234z
" />
    <glyph glyph-name="uhungarumlaut" unicode="&#x171;" horiz-adv-x="1757" 
d="M846 336q45 0 89 13t77 36v336h-142v332h689v-721h127v-332h-674v133q-101 -72 -216.5 -112.5t-224.5 -40.5q-184 0 -288.5 118.5t-104.5 321.5v301h-127v332h672v-555q0 -82 28.5 -122t94.5 -40zM418 1188l186 350h451l-403 -350h-234zM989 1188l187 350h450l-403 -350
h-234z" />
    <glyph glyph-name="Uogonek" unicode="&#x172;" horiz-adv-x="1618" 
d="M762 1145v-565q0 -136 38 -194t120 -58q79 0 111 58t32 202v557h-76v362h567v-362h-118v-596q0 -182 -71 -311t-210 -197q-237 -133 -237 -244q0 -47 30.5 -62.5t104.5 -15.5q77 0 174 31v-184q-66 -25 -144.5 -37t-152.5 -12q-168 0 -251 52t-83 163q0 145 121 248
q-279 20 -409 172.5t-130 435.5v557h-117v362h775v-362h-74z" />
    <glyph glyph-name="uogonek" unicode="&#x173;" horiz-adv-x="1757" 
d="M1284 -203q0 -45 31 -61.5t104 -16.5q78 0 174 31v-184q-65 -25 -145 -37t-154 -12q-168 0 -250.5 52t-82.5 163q0 159 182 268h-131v133q-101 -72 -216.5 -112.5t-224.5 -40.5q-184 0 -288.5 118.5t-104.5 321.5v301h-127v332h672v-555q0 -82 28.5 -122t94.5 -40
q45 0 89 13t77 36v336h-142v332h689v-721h127v-332h-138q-100 -27 -182 -85t-82 -118z" />
    <glyph glyph-name="Ydieresis" unicode="&#x178;" horiz-adv-x="1618" 
d="M739 1145l158 -305l193 305h-91v362h580v-362h-96l-377 -543v-240h119v-362h-824v362h121v240l-381 543h-100v362h786v-362h-88zM744 1786q0 -74 -51.5 -127t-127.5 -53q-73 0 -127.5 52t-54.5 128t54.5 128t127.5 52q76 0 127.5 -53t51.5 -127zM1288 1786
q0 -74 -52 -127t-128 -53q-74 0 -127 52t-53 128t53 128t127 52q76 0 128 -53t52 -127z" />
    <glyph glyph-name="Zacute" unicode="&#x179;" horiz-adv-x="1618" 
d="M768 332h438v205h346v-537h-1489v346l746 830h-379v-187h-346v518h1462v-307zM607 1602l198 350h453l-404 -350h-247z" />
    <glyph glyph-name="zacute" unicode="&#x17a;" horiz-adv-x="1456" 
d="M768 248h362v127h226v-375h-1268v276l592 527h-358v-121h-224v371h1270v-260zM528 1188l180 350h459l-381 -350h-258z" />
    <glyph glyph-name="Zdotaccent" unicode="&#x17b;" horiz-adv-x="1618" 
d="M768 332h438v205h346v-537h-1489v346l746 830h-379v-187h-346v518h1462v-307zM1018 1792q0 -76 -52.5 -129t-127.5 -53q-76 0 -129.5 53t-53.5 129q0 74 54.5 126t128.5 52q73 0 126.5 -52t53.5 -126z" />
    <glyph glyph-name="zdotaccent" unicode="&#x17c;" horiz-adv-x="1456" 
d="M768 248h362v127h226v-375h-1268v276l592 527h-358v-121h-224v371h1270v-260zM928 1378q0 -75 -52.5 -128.5t-127.5 -53.5q-76 0 -129.5 53.5t-53.5 128.5q0 74 54.5 126t128.5 52q73 0 126.5 -52t53.5 -126z" />
    <glyph glyph-name="Zcaron" unicode="&#x17d;" horiz-adv-x="1618" 
d="M768 332h438v205h346v-537h-1489v346l746 830h-379v-187h-346v518h1462v-307zM968 1954h277l-203 -352h-467l-201 352h277l158 -133z" />
    <glyph glyph-name="zcaron" unicode="&#x17e;" horiz-adv-x="1456" 
d="M768 248h362v127h226v-375h-1268v276l592 527h-358v-121h-224v371h1270v-260zM919 1587h277l-234 -399h-467l-229 399h276l187 -182z" />
    <glyph glyph-name="florin" unicode="&#x192;" horiz-adv-x="1225" 
d="M1114 1245q-63 0 -97 -13t-55.5 -57.5t-37.5 -136.5h139l-74 -344h-143l-180 -770q-95 -407 -381 -407h-269l62 299q49 2 77.5 16t49 53t37.5 115l164 694h-138l76 344h139l29 144q33 166 135.5 261t235.5 95h331l-61 -293h-39z" />
    <glyph glyph-name="Ohorn" unicode="&#x1a0;" horiz-adv-x="2126" 
d="M1796 899q12 -70 12 -141q0 -226 -109.5 -404t-304 -278.5t-440.5 -100.5q-239 0 -432.5 101.5t-303 281t-109.5 400.5t108.5 399t302 279.5t438.5 101.5q256 0 455 -110.5t301 -299.5q64 19 90.5 61t26.5 120v6h-150v299h486v-258q0 -189 -95.5 -309.5t-275.5 -147.5z
M958 328q74 0 117 40t61.5 133t18.5 257q0 166 -20.5 258t-62.5 131t-114 39q-71 0 -113 -38t-61.5 -130t-19.5 -260q0 -164 18.5 -257t60.5 -133t115 -40zM1465 1507z" />
    <glyph glyph-name="ohorn" unicode="&#x1a1;" horiz-adv-x="1946" 
d="M1548 668q21 -72 21 -142q0 -164 -97.5 -290.5t-265.5 -196.5t-375 -70q-208 0 -375 67.5t-263.5 194.5t-96.5 295q0 166 96.5 293t264.5 195.5t374 68.5q177 0 328.5 -51t251.5 -145q113 8 158 52t45 142v6h-150v299h486v-258q0 -196 -103.5 -319t-298.5 -141zM827 281
q93 0 141 65.5t48 185.5q0 115 -46 177.5t-134 62.5t-138.5 -63.5t-50.5 -184.5q0 -116 47 -179.5t133 -63.5zM1310 1051z" />
    <glyph glyph-name="Uhorn" unicode="&#x1af;" horiz-adv-x="2009" 
d="M1548 893h-112v-344q0 -275 -159 -424.5t-462 -149.5q-330 0 -483.5 154t-153.5 459v557h-117v362h775v-362h-74v-565q0 -136 38 -194t120 -58q79 0 111 58t32 202v557h-76v362h449v-395q137 2 189 46t52 151v6h-149v299h485v-258q0 -213 -120.5 -338t-344.5 -125z" />
    <glyph glyph-name="uhorn" unicode="&#x1b0;" horiz-adv-x="2132" 
d="M1671 666h-112v-334h127v-332h-674v133q-101 -72 -216.5 -112.5t-224.5 -40.5q-184 0 -288.5 118.5t-104.5 321.5v301h-127v332h672v-555q0 -82 28.5 -122t94.5 -40q45 0 89 12t77 37v336h-142v332h689v-168q137 2 189 46t52 150v6h-149v299h485v-258q0 -213 -121 -337.5
t-344 -124.5z" />
    <glyph glyph-name="circumflex" unicode="&#x2c6;" horiz-adv-x="739" 
d="M557 1188l-186 182l-189 -182h-276l231 399h467l230 -399h-277z" />
    <glyph glyph-name="caron" unicode="&#x2c7;" horiz-adv-x="739" 
d="M559 1587h277l-234 -399h-467l-229 399h276l187 -182z" />
    <glyph glyph-name="breve" unicode="&#x2d8;" horiz-adv-x="739" 
d="M377 1411q82 0 123 36t63 118h242q-19 -185 -136.5 -285t-308.5 -100q-182 0 -295.5 101t-130.5 284h244q29 -154 199 -154z" />
    <glyph glyph-name="dotaccent" unicode="&#x2d9;" horiz-adv-x="739" 
d="M551 1378q0 -75 -52.5 -128.5t-127.5 -53.5q-76 0 -129.5 53.5t-53.5 128.5q0 74 54.5 126t128.5 52q73 0 126.5 -52t53.5 -126z" />
    <glyph glyph-name="ogonek" unicode="&#x2db;" horiz-adv-x="739" 
d="M381 -203q0 -45 30.5 -61.5t104.5 -16.5q78 0 174 31v-184q-69 -25 -147 -37t-152 -12q-168 0 -251 52t-83 163q0 118 100.5 207.5t250.5 132.5l245 -70q-90 -20 -181 -81.5t-91 -123.5z" />
    <glyph glyph-name="tilde" unicode="&#x2dc;" horiz-adv-x="739" 
d="M528 1176q-47 0 -88 13t-94 40q-27 14 -53.5 24.5t-46.5 10.5q-35 0 -58.5 -22.5t-29.5 -63.5h-219q14 161 85.5 252.5t182.5 91.5q45 0 87 -13.5t97 -40.5q31 -14 58.5 -24t50.5 -10q35 0 54 20.5t30 69.5h217q-8 -164 -82 -256t-191 -92z" />
    <glyph glyph-name="hungarumlaut" unicode="&#x2dd;" horiz-adv-x="739" 
d="M-39 1188l186 350h451l-403 -350h-234zM532 1188l187 350h450l-403 -350h-234z" />
    <glyph glyph-name="gravecomb" unicode="&#x300;" horiz-adv-x="0" 
d="M84 1188l-403 350h452l186 -350h-235z" />
    <glyph glyph-name="acutecomb" unicode="&#x301;" horiz-adv-x="0" 
d="M-319 1188l186 350h452l-403 -350h-235z" />
    <glyph glyph-name="tildecomb" unicode="&#x303;" horiz-adv-x="0" 
d="M160 1176q-47 0 -88 13t-95 40q-26 14 -52.5 24.5t-47.5 10.5q-35 0 -58.5 -22.5t-29.5 -63.5h-219q14 161 85 252.5t183 91.5q43 0 84 -12.5t92 -36.5q39 -19 67 -29t50 -10q35 0 54.5 20.5t29.5 69.5h217q-8 -164 -82 -256t-190 -92z" />
    <glyph glyph-name="hookabovecomb" unicode="&#x309;" horiz-adv-x="0" 
d="M0 1257v-49h-221v185q26 -4 61 -4q31 0 49.5 14t18.5 39q0 31 -26.5 44t-84.5 13q-35 0 -63 -8l-2 135q82 21 217 21q157 0 239 -51.5t82 -153.5q0 -84 -55 -135.5t-156 -51.5q-26 0 -38.5 1t-20.5 1z" />
    <glyph glyph-name="dotbelowcomb" unicode="&#x323;" horiz-adv-x="0" 
d="M180 -242q0 -73 -52 -127.5t-128 -54.5t-129 53.5t-53 128.5q0 74 54 126.5t128 52.5t127 -52.5t53 -126.5z" />
    <glyph glyph-name="tonos" unicode="&#x384;" horiz-adv-x="739" 
d="M164 1153l84 354h450l-299 -354h-235z" />
    <glyph glyph-name="dieresistonos" unicode="&#x385;" horiz-adv-x="739" 
d="M229 1194l76 420h334l-238 -420h-172zM186 1360q0 -68 -48 -118t-118 -50q-67 0 -117 50t-50 118q0 70 50 118t117 48q68 0 117 -48t49 -118zM932 1358q0 -68 -48 -117t-120 -49q-68 0 -117 49t-49 117q0 72 49 120t117 48q70 0 119 -48t49 -120z" />
    <glyph glyph-name="Alphatonos" unicode="&#x386;" horiz-adv-x="1970" 
d="M1547 1145l288 -783h111v-362h-789v332h132l-58 188h-387l-63 -188h123v-332h-596v362h112l285 783h-123v362h1085v-362h-120zM1174 709l-127 417h-4l-139 -417h270zM29 1153l84 354h450l-299 -354h-235z" />
    <glyph glyph-name="Epsilontonos" unicode="&#x388;" horiz-adv-x="2152" 
d="M1630 1026v119h-342v-230h299v-307h-299v-246h342v119h395v-481h-1438v362h117v783h-117v362h1438v-481h-395zM29 1153l84 354h450l-299 -354h-235z" />
    <glyph glyph-name="Etatonos" unicode="&#x389;" horiz-adv-x="2435" 
d="M1291 1145v-230h348v230h-94v362h794v-362h-116v-783h116v-362h-794v362h94v246h-348v-246h96v-362h-795v362h115v783h-115v362h795v-362h-96zM29 1153l84 354h450l-299 -354h-235z" />
    <glyph glyph-name="Iotatonos" unicode="&#x38a;" horiz-adv-x="1526" 
d="M1311 1145v-783h141v-362h-864v362h139v783h-139v362h864v-362h-141zM29 1153l84 354h450l-299 -354h-235z" />
    <glyph glyph-name="Omicrontonos" unicode="&#x38c;" horiz-adv-x="2175" 
d="M2062 758q0 -226 -109.5 -404t-304 -278.5t-440.5 -100.5q-239 0 -432.5 101.5t-303 281t-109.5 400.5t108.5 399t302 279.5t438.5 101.5q248 0 441.5 -103.5t301 -281.5t107.5 -395zM1212 328q74 0 117 40t61.5 133t18.5 257q0 166 -20.5 258t-62.5 131t-114 39
q-71 0 -113 -38t-61.5 -130t-19.5 -260q0 -164 18.5 -257t60.5 -133t115 -40zM29 1153l84 354h450l-299 -354h-235z" />
    <glyph glyph-name="Upsilontonos" unicode="&#x38e;" horiz-adv-x="2169" 
d="M1290 1145l158 -305l193 305h-91v362h580v-362h-96l-377 -543v-240h119v-362h-824v362h121v240l-381 543h-100v362h786v-362h-88zM29 1153l84 354h450l-299 -354h-235z" />
    <glyph glyph-name="Omegatonos" unicode="&#x38f;" horiz-adv-x="2308" 
d="M409 918q0 167 113 309.5t312.5 226.5t451.5 84q254 0 455.5 -85t313.5 -227.5t112 -307.5q0 -150 -53.5 -255.5t-161 -183.5t-283.5 -149l-2 -54h209l26 130h330l-61 -406h-836v342q72 55 110 178t38 295q0 203 -46.5 287t-150.5 84t-149.5 -83t-45.5 -288
q0 -174 36 -296t110 -177v-342h-836l-61 406h327l29 -130h215l2 54q-176 71 -285.5 149t-164 184.5t-54.5 254.5zM29 1153l84 354h450l-299 -354h-235z" />
    <glyph glyph-name="iotadieresistonos" unicode="&#x390;" horiz-adv-x="987" 
d="M840 332q28 0 86 10v-330q-101 -30 -301 -30q-209 0 -313.5 69.5t-104.5 200.5v469h-146v332h693v-590q0 -66 18.5 -98.5t67.5 -32.5zM323 1194l76 420h334l-238 -420h-172zM280 1360q0 -68 -48 -118t-118 -50q-67 0 -117 50t-50 118q0 70 50 118t117 48q68 0 117 -48
t49 -118zM1026 1358q0 -68 -48 -117t-120 -49q-68 0 -117 49t-49 117q0 72 49 120t117 48q70 0 119 -48t49 -120z" />
    <glyph glyph-name="Alpha" unicode="&#x391;" horiz-adv-x="1688" 
d="M1264 1145l288 -783h111v-362h-789v332h132l-58 188h-387l-63 -188h123v-332h-596v362h112l285 783h-123v362h1085v-362h-120zM891 709l-127 417h-4l-139 -417h270z" />
    <glyph glyph-name="Beta" unicode="&#x392;" horiz-adv-x="1880" 
d="M1735 1116q0 -117 -74 -198.5t-201 -108.5v-6q154 -39 242 -142.5t88 -236.5q0 -201 -172 -312.5t-485 -111.5h-1051v362h131v783h-131v362h1083q271 0 420.5 -102t149.5 -289zM1137 1038q0 70 -45 104t-144 34h-151v-275h145q100 0 147.5 33t47.5 104zM1157 477
q0 152 -196 152h-164v-297h139q115 0 168 32.5t53 112.5z" />
    <glyph glyph-name="Gamma" unicode="&#x393;" horiz-adv-x="1571" 
d="M1143 899v246h-342v-783h174v-362h-918v362h160v783h-164v362h1485v-608h-395z" />
    <glyph glyph-name="Delta" unicode="&#x394;" horiz-adv-x="1688" 
d="M1264 1145l288 -783h111v-362h-1638v362h112l285 783h-123v362h1085v-362h-120zM764 1126h-2l-264 -794h508z" />
    <glyph glyph-name="Epsilon" unicode="&#x395;" 
d="M1143 1026v119h-342v-230h299v-307h-299v-246h342v119h395v-481h-1438v362h117v783h-117v362h1438v-481h-395z" />
    <glyph glyph-name="Zeta" unicode="&#x396;" horiz-adv-x="1618" 
d="M768 332h438v205h346v-537h-1489v346l746 830h-379v-187h-346v518h1462v-307z" />
    <glyph glyph-name="Eta" unicode="&#x397;" horiz-adv-x="1942" 
d="M797 1145v-230h348v230h-94v362h794v-362h-116v-783h116v-362h-794v362h94v246h-348v-246h96v-362h-795v362h115v783h-115v362h795v-362h-96z" />
    <glyph glyph-name="Theta" unicode="&#x398;" horiz-adv-x="1921" 
d="M1808 758q0 -226 -109.5 -404t-304 -278.5t-440.5 -100.5q-239 0 -432.5 101.5t-303 281t-109.5 400.5t108.5 399t302 279.5t438.5 101.5q248 0 441.5 -103.5t301 -281.5t107.5 -395zM958 330q150 0 212.5 99t62.5 329q0 229 -64.5 327.5t-210.5 98.5
q-145 0 -208.5 -96.5t-63.5 -329.5q0 -230 61.5 -329t210.5 -99zM1145 608h-369v307h369v-307z" />
    <glyph glyph-name="Iota" unicode="&#x399;" horiz-adv-x="1010" 
d="M797 1145v-783h141v-362h-864v362h139v783h-139v362h864v-362h-141z" />
    <glyph glyph-name="Kappa" unicode="&#x39a;" horiz-adv-x="1896" 
d="M799 1145v-783h121v-362h-820v362h115v783h-115v362h820v-362h-121zM1702 1145l-305 -283l383 -500h75v-362h-778v362h70l-330 429l383 354h-123v362h744v-362h-119z" />
    <glyph glyph-name="Lambda" unicode="&#x39b;" 
d="M961 362l-218 783h-14l-227 -783h125v-362h-609v362h111l256 783h-147v362h1187v-362h-153l260 -783h113v-362h-809v362h125z" />
    <glyph glyph-name="Mu" unicode="&#x39c;" horiz-adv-x="2451" 
d="M1454 1507h901v-362h-117v-783h117v-362h-782v362h119v836h-4l-449 -1198h-227l-445 1198h-4v-836h119v-362h-586v362h117v783h-117v362h908l221 -581z" />
    <glyph glyph-name="Nu" unicode="&#x39d;" horiz-adv-x="1896" 
d="M1341 719v426h-127v362h609v-362h-131v-1170h-498l-633 918h-4v-531h135v-362h-618v362h133v783h-133v362h714l549 -788h4z" />
    <glyph glyph-name="Xi" unicode="&#x39e;" horiz-adv-x="1659" 
d="M145 1507h1368v-522h-346v150h-675v-150h-347v522zM567 608v307h525v-307h-525zM473 393h713v160h346v-553h-1405v553h346v-160z" />
    <glyph glyph-name="Omicron" unicode="&#x39f;" horiz-adv-x="1921" 
d="M1808 758q0 -226 -109.5 -404t-304 -278.5t-440.5 -100.5q-239 0 -432.5 101.5t-303 281t-109.5 400.5t108.5 399t302 279.5t438.5 101.5q248 0 441.5 -103.5t301 -281.5t107.5 -395zM958 328q74 0 117 40t61.5 133t18.5 257q0 166 -20.5 258t-62.5 131t-114 39
q-71 0 -113 -38t-61.5 -130t-19.5 -260q0 -164 18.5 -257t60.5 -133t115 -40z" />
    <glyph glyph-name="Pi" unicode="&#x3a0;" horiz-adv-x="1942" 
d="M1729 1145v-783h116v-362h-794v362h94v783h-348v-783h96v-362h-795v362h115v783h-115v362h1747v-362h-116z" />
    <glyph glyph-name="Rho" unicode="&#x3a1;" horiz-adv-x="1796" 
d="M1745 1026q0 -149 -79 -252.5t-208 -155t-278 -51.5h-383v-205h151v-362h-880v362h145v783h-145v362h1028q313 0 481 -129t168 -352zM1135 1036q0 76 -48.5 108t-138.5 32h-151v-277h168q82 0 126 35t44 102z" />
    <glyph glyph-name="Sigma" unicode="&#x3a3;" horiz-adv-x="1618" 
d="M1206 537h346v-537h-1489v346l392 408l-371 446v307h1442v-518h-346v187h-379l350 -404l-424 -440h479v205z" />
    <glyph glyph-name="Tau" unicode="&#x3a4;" 
d="M1298 872v273h-172v-783h134v-362h-852v362h133v783h-172v-273h-285v635h1499v-635h-285z" />
    <glyph glyph-name="Upsilon" unicode="&#x3a5;" horiz-adv-x="1618" 
d="M739 1145l158 -305l193 305h-91v362h580v-362h-96l-377 -543v-240h119v-362h-824v362h121v240l-381 543h-100v362h786v-362h-88z" />
    <glyph glyph-name="Phi" unicode="&#x3a6;" horiz-adv-x="2214" 
d="M51 766q0 211 183.5 313.5t601.5 102.5h79v80h-274v245h932v-245h-275v-80h91q407 0 590.5 -102.5t183.5 -313.5t-186.5 -316.5t-592.5 -105.5h-86v-92h275v-252h-932v252h274v92h-79q-412 0 -598.5 104.5t-186.5 317.5zM659 768q0 -70 46.5 -106.5t136.5 -36.5h73v276
h-73q-84 0 -133.5 -32.5t-49.5 -100.5zM1554 768q0 68 -50 100.5t-134 32.5h-72v-276h74q90 0 136 36.5t46 106.5z" />
    <glyph glyph-name="Chi" unicode="&#x3a7;" horiz-adv-x="2220" 
d="M922 1190l252 -219l223 219h-129v317h837v-362h-225l-407 -340l538 -443h152v-362h-1016v317h158l-277 250l-256 -250h160v-317h-875v362h170l494 383l-494 400h-159v362h1001v-317h-147z" />
    <glyph glyph-name="Psi" unicode="&#x3a8;" horiz-adv-x="2351" 
d="M973 846h16v661h373v-661h8q111 0 165 82t54 260v319h701v-362h-117v-60q0 -303 -177 -447t-558 -144h-76v-132h233v-362h-839v362h233v132h-76q-362 0 -548.5 138t-186.5 453v60h-117v362h701v-323q0 -172 47 -255t164 -83z" />
    <glyph glyph-name="Omega" unicode="&#x3a9;" horiz-adv-x="2044" 
d="M145 918q0 167 113 309.5t312.5 226.5t451.5 84q254 0 455.5 -85t313.5 -227.5t112 -307.5q0 -150 -53.5 -255.5t-161 -183.5t-283.5 -149l-2 -54h209l26 130h330l-61 -406h-836v342q72 55 110 178t38 295q0 203 -46.5 287t-150.5 84t-149.5 -83t-45.5 -288
q0 -174 36 -296t110 -177v-342h-836l-61 406h327l29 -130h215l2 54q-176 71 -285.5 149t-164 184.5t-54.5 254.5z" />
    <glyph glyph-name="Iotadieresis" unicode="&#x3aa;" horiz-adv-x="1010" 
d="M797 1145v-783h141v-362h-864v362h139v783h-139v362h864v-362h-141zM416 1786q0 -74 -51.5 -127t-127.5 -53q-73 0 -127.5 52t-54.5 128t54.5 128t127.5 52q76 0 127.5 -53t51.5 -127zM960 1786q0 -74 -52 -127t-128 -53q-74 0 -127 52t-53 128t53 128t127 52
q76 0 128 -53t52 -127z" />
    <glyph glyph-name="Upsilondieresis" unicode="&#x3ab;" horiz-adv-x="1618" 
d="M739 1145l158 -305l193 305h-91v362h580v-362h-96l-377 -543v-240h119v-362h-824v362h121v240l-381 543h-100v362h786v-362h-88zM744 1786q0 -74 -51.5 -127t-127.5 -53q-73 0 -127.5 52t-54.5 128t54.5 128t127.5 52q76 0 127.5 -53t51.5 -127zM1288 1786
q0 -74 -52 -127t-128 -53q-74 0 -127 52t-53 128t53 128t127 52q76 0 128 -53t52 -127z" />
    <glyph glyph-name="alphatonos" unicode="&#x3ac;" horiz-adv-x="1774" 
d="M1022 956v97h545v-723h127v-330h-672v102q-61 -61 -149.5 -91.5t-190.5 -30.5q-174 0 -306 67.5t-206 190t-74 282.5q0 156 74 281t204 196.5t292 71.5q106 0 198 -28.5t158 -84.5zM842 291q86 0 133 60.5t47 172.5q0 111 -49 172.5t-139 61.5q-185 0 -185 -223
q0 -117 50.5 -180.5t142.5 -63.5zM688 1153l84 354h450l-299 -354h-235z" />
    <glyph glyph-name="epsilontonos" unicode="&#x3ad;" horiz-adv-x="1513" 
d="M1001 1008v51h422v-330h-409q-31 62 -73 87.5t-101 25.5q-60 0 -104 -29t-44 -78q0 -114 160 -114h172v-162h-180q-176 0 -176 -113q0 -55 41 -87t118 -32q142 0 191 105l450 -56q-45 -96 -121.5 -161.5t-220 -105.5t-372.5 -40q-344 0 -500 92.5t-156 237.5
q0 207 215 248q-168 59 -168 215q0 86 57.5 159.5t171 117.5t279.5 44q135 0 213 -19.5t135 -55.5zM651 1153l84 354h450l-299 -354h-235z" />
    <glyph glyph-name="etatonos" unicode="&#x3ae;" horiz-adv-x="1745" 
d="M1593 641v-1124h-544v1040q0 72 -33 115t-101 43q-34 0 -78 -14.5t-79 -38.5v-662h-547v721h-137v332h684v-148q108 86 211.5 125t218.5 39q201 0 303 -111.5t102 -316.5zM721 1153l84 354h450l-299 -354h-235z" />
    <glyph glyph-name="iotatonos" unicode="&#x3af;" horiz-adv-x="987" 
d="M840 332q28 0 86 10v-330q-101 -30 -301 -30q-209 0 -313.5 69.5t-104.5 200.5v469h-146v332h693v-590q0 -66 18.5 -98.5t67.5 -32.5zM301 1153l84 354h450l-299 -354h-235z" />
    <glyph glyph-name="upsilondieresistonos" unicode="&#x3b0;" horiz-adv-x="1712" 
d="M842 -20q-359 0 -511.5 108.5t-152.5 314.5v318h-127v332h672v-555q0 -78 39 -120t106 -42q74 0 109 32.5t35 129.5v223h-142v332h689v-564q0 -194 -70 -304.5t-224.5 -157.5t-422.5 -47zM694 1194l76 420h334l-238 -420h-172zM651 1360q0 -68 -48 -118t-118 -50
q-67 0 -117 50t-50 118q0 70 50 118t117 48q68 0 117 -48t49 -118zM1397 1358q0 -68 -48 -117t-120 -49q-68 0 -117 49t-49 117q0 72 49 120t117 48q70 0 119 -48t49 -120z" />
    <glyph glyph-name="alpha" unicode="&#x3b1;" horiz-adv-x="1774" 
d="M1022 956v97h545v-723h127v-330h-672v102q-61 -61 -149.5 -91.5t-190.5 -30.5q-174 0 -306 67.5t-206 190t-74 282.5q0 156 74 281t204 196.5t292 71.5q106 0 198 -28.5t158 -84.5zM842 291q86 0 133 60.5t47 172.5q0 111 -49 172.5t-139 61.5q-185 0 -185 -223
q0 -117 50.5 -180.5t142.5 -63.5z" />
    <glyph glyph-name="beta" unicode="&#x3b2;" horiz-adv-x="1757" 
d="M1618 1145q0 -107 -63.5 -185.5t-178.5 -111.5v-4q295 -111 295 -391q0 -473 -575 -473q-88 0 -194.5 20t-162.5 55v-538h-546v1489q0 260 183 396t556 136q328 0 507 -102.5t179 -290.5zM926 268q192 0 192 199q0 125 -49 179t-166 63v245q80 0 125 42t45 114
q0 68 -47 114t-121 46q-86 0 -126 -60.5t-40 -185.5v-680q84 -76 187 -76z" />
    <glyph glyph-name="gamma" unicode="&#x3b3;" horiz-adv-x="1464" 
d="M457 -14l-330 735h-102v332h565l266 -680q113 194 152 348h-105v332h494v-332q-64 -193 -148 -342.5t-219 -349.5l-29 -43v-469h-544v469z" />
    <glyph glyph-name="delta" unicode="&#x3b4;" 
d="M1440 1466l2 -309h-371q-10 51 -49 95t-89 69t-95 25q-60 0 -100 -21.5t-40 -71.5q0 -36 48.5 -59t195.5 -74q223 -76 359.5 -157.5t202 -187t65.5 -249.5q0 -557 -738 -557q-362 0 -548.5 135.5t-186.5 391.5q0 170 83 280.5t249 175.5q-100 33 -165.5 104.5
t-65.5 174.5q0 160 144 244t480 84q140 0 302.5 -26t316.5 -67zM831 264q91 0 138 63.5t47 178.5q0 186 -193 262l-55 23q-61 -50 -91 -119.5t-30 -167.5q0 -111 47 -175.5t137 -64.5zM1465 1507z" />
    <glyph glyph-name="epsilon" unicode="&#x3b5;" horiz-adv-x="1513" 
d="M1001 1008v51h422v-330h-409q-31 62 -73 87.5t-101 25.5q-60 0 -104 -29t-44 -78q0 -114 160 -114h172v-162h-180q-176 0 -176 -113q0 -55 41 -87t118 -32q142 0 191 105l450 -56q-45 -96 -121.5 -161.5t-220 -105.5t-372.5 -40q-344 0 -500 92.5t-156 237.5
q0 207 215 248q-168 59 -168 215q0 86 57.5 159.5t171 117.5t279.5 44q135 0 213 -19.5t135 -55.5z" />
    <glyph glyph-name="zeta" unicode="&#x3b6;" horiz-adv-x="1208" 
d="M627 522q0 -65 14 -99t57 -55.5t138 -41.5q174 -35 272 -127.5t98 -233.5q0 -221 -129 -335.5t-381 -114.5q-164 0 -266 12v283q76 -17 174 -17q68 0 112 24.5t44 71.5q0 91 -174 115q-246 35 -370 138.5t-124 289.5q0 221 169 418t519 407h-641v250h1061v-241
q-328 -285 -450.5 -461t-122.5 -283z" />
    <glyph glyph-name="eta" unicode="&#x3b7;" horiz-adv-x="1745" 
d="M1593 641v-1124h-544v1040q0 72 -33 115t-101 43q-34 0 -78 -14.5t-79 -38.5v-662h-547v721h-137v332h684v-148q108 86 211.5 125t218.5 39q201 0 303 -111.5t102 -316.5z" />
    <glyph glyph-name="theta" unicode="&#x3b8;" 
d="M1569 743q0 -235 -100.5 -408t-270.5 -264t-377 -91q-205 0 -369.5 97t-260 277.5t-95.5 419.5q0 221 96.5 395t264.5 271.5t379 97.5q213 0 379.5 -96t260 -276.5t93.5 -422.5zM639 877h393q-8 219 -55 315t-139 96q-90 0 -140.5 -99t-58.5 -312zM1032 641h-391
q6 -158 29.5 -247t63.5 -127t104 -38q92 0 139 95.5t55 316.5z" />
    <glyph glyph-name="iota" unicode="&#x3b9;" horiz-adv-x="987" 
d="M840 332q28 0 86 10v-330q-101 -30 -301 -30q-209 0 -313.5 69.5t-104.5 200.5v469h-146v332h693v-590q0 -66 18.5 -98.5t67.5 -32.5z" />
    <glyph glyph-name="kappa" unicode="&#x3ba;" horiz-adv-x="1642" 
d="M1137 1053h422l-5 -328h-163l-154 -152l238 -241h84v-332l-422 -8l-402 463v-455h-547v723h-135v332h682v-465z" />
    <glyph glyph-name="lambda" unicode="&#x3bb;" horiz-adv-x="1315" 
d="M723 489l-195 -489h-520l469 1057l-71 149h-181v330h410l524 -1204h125v-332h-362z" />
    <glyph glyph-name="mu" unicode="&#x3bc;" horiz-adv-x="1757" 
d="M723 557q0 -96 37 -158.5t114 -62.5q101 0 138 63v654h547v-721h127v-332h-674v143q-37 -80 -81 -121.5t-102 -41.5q-61 0 -106 45v-508h-545v1536h545v-496z" />
    <glyph glyph-name="nu" unicode="&#x3bd;" horiz-adv-x="1464" 
d="M877 444q55 95 84.5 154t46.5 123h-105v332h494v-332q-68 -201 -174.5 -371t-261.5 -364h-508l-326 735h-102v332h565l258 -658z" />
    <glyph glyph-name="xi" unicode="&#x3be;" horiz-adv-x="1231" 
d="M1022 1266q-160 0 -247 -47.5t-87 -137.5q0 -82 64.5 -120.5t201.5 -38.5h150v-242h-176q-160 0 -232.5 -56.5t-72.5 -129.5q0 -45 16 -74t60 -51.5t132 -42.5q187 -45 279 -132.5t92 -228.5q0 -219 -129 -333.5t-381 -114.5q-170 0 -264 10l-2 283q111 -17 174 -17
q72 0 114 27.5t42 68.5q0 50 -46 75.5t-128 39.5q-244 37 -366 136.5t-122 273.5q0 137 73 227t224 152q-112 32 -166.5 90.5t-54.5 150.5q0 76 48 135.5t130 83.5v13h-246v241h1094v-241h-174z" />
    <glyph glyph-name="omicron" unicode="&#x3bf;" 
d="M1569 526q0 -164 -97.5 -290.5t-265.5 -196.5t-375 -70q-208 0 -375 67.5t-263.5 194.5t-96.5 295q0 166 96.5 293t264.5 195.5t374 68.5q205 0 373 -67.5t266.5 -193.5t98.5 -296zM827 281q93 0 141 65.5t48 185.5q0 115 -46 177.5t-134 62.5t-138.5 -63.5t-50.5 -184.5
q0 -116 47 -179.5t133 -63.5z" />
    <glyph glyph-name="pi" unicode="&#x3c0;" horiz-adv-x="1700" 
d="M252 0v721h-232v332h1614v-332h-225v-285q0 -57 18.5 -80.5t67.5 -23.5q29 0 86 10v-330q-86 -30 -264 -30q-180 0 -273.5 69.5t-93.5 202.5v467h-252v-721h-446z" />
    <glyph glyph-name="rho" unicode="&#x3c1;" horiz-adv-x="1716" 
d="M1620 520q0 -151 -70.5 -274t-210 -194.5t-333.5 -71.5q-215 0 -312 88v-551h-544v938q0 288 188 454t551 166q350 0 540.5 -142t190.5 -413zM874 291q195 0 195 244q0 223 -190 223q-91 0 -138 -59.5t-47 -174.5q0 -121 44 -177t136 -56z" />
    <glyph glyph-name="sigma1" unicode="&#x3c2;" horiz-adv-x="1466" 
d="M96 518q0 154 82 280t225.5 198.5t317.5 72.5q205 0 344 -106v90h334v-449h-334q-18 70 -74.5 127t-136.5 57q-86 0 -145.5 -64.5t-59.5 -158.5q0 -82 41 -129t126 -73.5t237 -47.5q385 -49 385 -374q0 -203 -130 -313.5t-380 -110.5q-170 0 -264 10l-2 283
q110 -17 174 -17q71 0 113 24.5t42 65.5q0 39 -41 65.5t-119 31.5q-356 16 -545.5 151t-189.5 387z" />
    <glyph glyph-name="sigma" unicode="&#x3c3;" horiz-adv-x="1794" 
d="M1507 721q60 -105 60 -223q0 -258 -195.5 -393.5t-540.5 -135.5q-335 0 -535 134.5t-200 402.5q0 168 89 292t264.5 191.5t429.5 67.5h839v-336h-211zM827 281q189 0 189 245q0 80 -39 195q-162 0 -246 -59.5t-84 -176.5q0 -98 50.5 -151t129.5 -53z" />
    <glyph glyph-name="tau" unicode="&#x3c4;" horiz-adv-x="1249" 
d="M844 721v-252q0 -68 27.5 -102.5t91.5 -34.5q106 0 161 18v-332q-135 -36 -391 -36q-178 0 -273 36.5t-129 105.5t-34 181v416h-270v332h1130v-332h-313z" />
    <glyph glyph-name="upsilon" unicode="&#x3c5;" horiz-adv-x="1712" 
d="M842 -20q-359 0 -511.5 108.5t-152.5 314.5v318h-127v332h672v-555q0 -78 39 -120t106 -42q74 0 109 32.5t35 129.5v223h-142v332h689v-564q0 -194 -70 -304.5t-224.5 -157.5t-422.5 -47z" />
    <glyph glyph-name="phi" unicode="&#x3c6;" horiz-adv-x="2171" 
d="M2075 526q0 -153 -91.5 -273t-270.5 -193.5t-437 -90.5v-452h-383v452q-256 15 -435 88.5t-270.5 191.5t-91.5 269q0 184 113 309t294 187.5t390 68.5v93h-111v331h494v-424q209 -4 390 -65.5t295 -185t114 -306.5zM893 289v473q-121 -10 -183.5 -69.5t-62.5 -168.5
q0 -104 68.5 -165.5t177.5 -69.5zM1522 532q0 205 -246 230v-473q110 10 178 71.5t68 171.5z" />
    <glyph glyph-name="chi" unicode="&#x3c7;" horiz-adv-x="1413" 
d="M6 -483l461 843l-201 361h-170v332h381l207 -367l166 369h543l-445 -840l209 -367h162v-331h-377l-215 385l-176 -385h-545z" />
    <glyph glyph-name="psi" unicode="&#x3c8;" horiz-adv-x="2386" 
d="M930 336l2 717h504v-717q125 6 176 74.5t51 193.5v449h672v-332h-127v-270q0 -222 -175 -336.5t-569 -114.5h-28v-483h-506v483h-29q-389 0 -556 115.5t-167 324.5v281h-127v332h672v-469q0 -111 42 -176.5t165 -71.5z" />
    <glyph glyph-name="omega" unicode="&#x3c9;" horiz-adv-x="2019" 
d="M606 -31q-200 0 -313 68.5t-155 188.5t-42 296q0 287 162 529h453v-326q-39 -49 -53.5 -104.5t-14.5 -122.5q0 -58 23.5 -109t78.5 -51q78 0 78 104v338h373v-338q0 -104 78 -104q55 0 78.5 51t23.5 109q0 67 -14 122.5t-53 104.5v326h452q162 -242 162 -529
q0 -553 -510 -553q-141 0 -249.5 60.5t-153.5 156.5q-45 -96 -153.5 -156.5t-250.5 -60.5z" />
    <glyph glyph-name="iotadieresis" unicode="&#x3ca;" horiz-adv-x="987" 
d="M840 332q28 0 86 10v-330q-101 -30 -301 -30q-209 0 -313.5 69.5t-104.5 200.5v469h-146v332h693v-590q0 -66 18.5 -98.5t67.5 -32.5zM405 1374q0 -74 -51 -127t-127 -53q-74 0 -128 53t-54 127q0 76 54 128t128 52t126 -52t52 -128zM897 1374q0 -74 -52.5 -127
t-128.5 -53q-75 0 -127.5 53t-52.5 127q0 76 53.5 128t126.5 52q74 0 127.5 -52t53.5 -128z" />
    <glyph glyph-name="upsilondieresis" unicode="&#x3cb;" horiz-adv-x="1712" 
d="M842 -20q-359 0 -511.5 108.5t-152.5 314.5v318h-127v332h672v-555q0 -78 39 -120t106 -42q74 0 109 32.5t35 129.5v223h-142v332h689v-564q0 -194 -70 -304.5t-224.5 -157.5t-422.5 -47zM784 1374q0 -74 -51 -127t-127 -53q-74 0 -128 53t-54 127q0 76 54 128t128 52
t126 -52t52 -128zM1276 1374q0 -74 -52.5 -127t-128.5 -53q-75 0 -127.5 53t-52.5 127q0 76 53.5 128t126.5 52q74 0 127.5 -52t53.5 -128z" />
    <glyph glyph-name="omicrontonos" unicode="&#x3cc;" 
d="M1569 526q0 -164 -97.5 -290.5t-265.5 -196.5t-375 -70q-208 0 -375 67.5t-263.5 194.5t-96.5 295q0 166 96.5 293t264.5 195.5t374 68.5q205 0 373 -67.5t266.5 -193.5t98.5 -296zM827 281q93 0 141 65.5t48 185.5q0 115 -46 177.5t-134 62.5t-138.5 -63.5t-50.5 -184.5
q0 -116 47 -179.5t133 -63.5zM690 1153l84 354h450l-299 -354h-235z" />
    <glyph glyph-name="upsilontonos" unicode="&#x3cd;" horiz-adv-x="1712" 
d="M842 -20q-359 0 -511.5 108.5t-152.5 314.5v318h-127v332h672v-555q0 -78 39 -120t106 -42q74 0 109 32.5t35 129.5v223h-142v332h689v-564q0 -194 -70 -304.5t-224.5 -157.5t-422.5 -47zM719 1153l84 354h450l-299 -354h-235z" />
    <glyph glyph-name="omegatonos" unicode="&#x3ce;" horiz-adv-x="2019" 
d="M606 -31q-200 0 -313 68.5t-155 188.5t-42 296q0 287 162 529h453v-326q-39 -49 -53.5 -104.5t-14.5 -122.5q0 -58 23.5 -109t78.5 -51q78 0 78 104v338h373v-338q0 -104 78 -104q55 0 78.5 51t23.5 109q0 67 -14 122.5t-53 104.5v326h452q162 -242 162 -529
q0 -553 -510 -553q-141 0 -249.5 60.5t-153.5 156.5q-45 -96 -153.5 -156.5t-250.5 -60.5zM864 1153l84 354h450l-299 -354h-235z" />
    <glyph glyph-name="afii10023" unicode="&#x401;" 
d="M1143 1026v119h-342v-230h299v-307h-299v-246h342v119h395v-481h-1438v362h117v783h-117v362h1438v-481h-395zM781 1786q0 -74 -51.5 -127t-127.5 -53q-73 0 -127.5 52t-54.5 128t54.5 128t127.5 52q76 0 127.5 -53t51.5 -127zM1325 1786q0 -74 -52 -127t-128 -53
q-74 0 -127 52t-53 128t53 128t127 52q76 0 128 -53t52 -127z" />
    <glyph glyph-name="afii10051" unicode="&#x402;" horiz-adv-x="2042" 
d="M1298 1004v141h-172v-361q88 70 192.5 110t211.5 40q209 0 335 -124t126 -349q0 -238 -119 -357.5t-367 -119.5q-100 0 -192 16v289h26q60 0 82.5 42t22.5 99q0 72 -39 111t-107 39q-104 0 -172 -45v-173h105v-362h-823v362h133v783h-172v-141h-285v503h1499v-503h-285z
" />
    <glyph glyph-name="afii10052" unicode="&#x403;" horiz-adv-x="1571" 
d="M1143 899v246h-342v-783h174v-362h-918v362h160v783h-164v362h1485v-608h-395zM629 1602l198 350h453l-404 -350h-247z" />
    <glyph glyph-name="afii10053" unicode="&#x404;" horiz-adv-x="1767" 
d="M1278 1407v100h362v-487h-374q-35 74 -96.5 115t-129.5 41q-221 0 -266 -261h414v-282h-418q18 -154 85 -229.5t177 -75.5q92 0 149.5 55t108.5 168l385 -92q-84 -172 -177 -275.5t-227 -156t-333 -52.5q-262 0 -449.5 101.5t-283.5 281t-96 410.5q0 219 97 395
t267 275.5t377 99.5q125 0 236.5 -34t191.5 -97z" />
    <glyph glyph-name="afii10054" unicode="&#x405;" horiz-adv-x="1386" 
d="M897 1413v94h340v-428h-340q-27 84 -81 130t-136 46q-51 0 -82 -24.5t-31 -65.5q0 -47 30 -72.5t212 -107.5l113 -55q374 -185 374 -492q0 -125 -64.5 -230.5t-177 -166.5t-253.5 -61q-92 0 -189.5 32.5t-171.5 87.5v-100h-340v483h340q33 -102 88.5 -149t141.5 -47
q55 0 88 25.5t33 72.5q0 45 -43 85t-146 83l-102 45q-199 86 -305.5 201.5t-106.5 281.5q0 131 60.5 232.5t168 158t244.5 56.5q98 0 184 -30t152 -85z" />
    <glyph glyph-name="afii10055" unicode="&#x406;" horiz-adv-x="1010" 
d="M797 1145v-783h141v-362h-864v362h139v783h-139v362h864v-362h-141z" />
    <glyph glyph-name="afii10056" unicode="&#x407;" horiz-adv-x="1010" 
d="M797 1145v-783h141v-362h-864v362h139v783h-139v362h864v-362h-141zM416 1786q0 -74 -51.5 -127t-127.5 -53q-73 0 -127.5 52t-54.5 128t54.5 128t127.5 52q76 0 127.5 -53t51.5 -127zM960 1786q0 -74 -52 -127t-128 -53q-74 0 -127 52t-53 128t53 128t127 52
q76 0 128 -53t52 -127z" />
    <glyph glyph-name="afii10057" unicode="&#x408;" horiz-adv-x="995" 
d="M799 1145v-1045q0 -151 -23.5 -253.5t-85.5 -172.5q-69 -80 -158.5 -118.5t-244.5 -38.5q-142 0 -242 16v371q35 -8 64 -8q45 0 67.5 19t30.5 63.5t8 127.5v1039h-137v362h850v-362h-129z" />
    <glyph glyph-name="afii10058" unicode="&#x409;" horiz-adv-x="2480" 
d="M1264 1145l84 -230h415q666 0 666 -444q0 -233 -170 -352t-487 -119h-898v332h132l-242 794h-4l-262 -794h123v-332h-596v362h112l285 783h-123v362h1085v-362h-120zM1575 332q115 0 168 32.5t53 112.5q0 74 -48 102.5t-149 28.5h-137l103 -276h10z" />
    <glyph glyph-name="afii10059" unicode="&#x40a;" horiz-adv-x="2714" 
d="M797 1145v-230h348v230h-94v362h794v-362h-116v-230h268q665 0 665 -444q0 -233 -170 -352t-487 -119h-954v362h94v246h-348v-246h96v-362h-795v362h115v783h-115v362h795v-362h-96zM1808 332q115 0 168.5 32.5t53.5 112.5q0 74 -48.5 102.5t-148.5 28.5h-104v-276h79z
" />
    <glyph glyph-name="afii10060" unicode="&#x40b;" horiz-adv-x="2150" 
d="M1280 580q-92 0 -154 -45v-173h146v-362h-864v362h133v783h-172v-141h-285v503h1499v-503h-285v141h-172v-359q84 68 185.5 108t204.5 40q200 0 320 -122t120 -345v-105h125v-362h-672v428q0 74 -34 113t-95 39z" />
    <glyph glyph-name="afii10061" unicode="&#x40c;" horiz-adv-x="1896" 
d="M799 1145v-783h121v-362h-820v362h115v783h-115v362h820v-362h-121zM1702 1145l-305 -283l383 -500h75v-362h-778v362h70l-330 429l383 354h-123v362h744v-362h-119zM809 1602l198 350h453l-404 -350h-247z" />
    <glyph glyph-name="afii10062" unicode="&#x40e;" horiz-adv-x="1599" 
d="M582 397l-441 748h-100v362h786v-362h-88l172 -346l179 346h-91v362h580v-362h-96l-301 -580q-119 -227 -213.5 -348t-222.5 -178t-328 -57q-103 0 -197 16v389q78 -27 207 -27q92 0 154 37zM877 1804q72 0 119 50.5t47 142.5h411q0 -178 -165.5 -278.5t-434.5 -100.5
q-254 0 -412.5 99.5t-160.5 279.5h414q0 -90 52 -141.5t130 -51.5z" />
    <glyph glyph-name="afii10145" unicode="&#x40f;" horiz-adv-x="1942" 
d="M98 362h115v783h-115v362h795v-362h-96v-783h348v783h-94v362h794v-362h-116v-783h116v-362h-680v-365h-405v365h-662v362z" />
    <glyph glyph-name="afii10017" unicode="&#x410;" horiz-adv-x="1688" 
d="M1264 1145l288 -783h111v-362h-789v332h132l-58 188h-387l-63 -188h123v-332h-596v362h112l285 783h-123v362h1085v-362h-120zM891 709l-127 417h-4l-139 -417h270z" />
    <glyph glyph-name="afii10018" unicode="&#x411;" horiz-adv-x="1819" 
d="M1239 1014v131h-438v-230h262q666 0 666 -444q0 -233 -170 -352t-488 -119h-1014v362h160v783h-164v362h1581v-493h-395zM874 332q115 0 168.5 32.5t53.5 112.5q0 74 -48.5 102.5t-148.5 28.5h-98v-276h73z" />
    <glyph glyph-name="afii10019" unicode="&#x412;" horiz-adv-x="1880" 
d="M1735 1116q0 -117 -74 -198.5t-201 -108.5v-6q154 -39 242 -142.5t88 -236.5q0 -201 -172 -312.5t-485 -111.5h-1051v362h131v783h-131v362h1083q271 0 420.5 -102t149.5 -289zM1137 1038q0 70 -45 104t-144 34h-151v-275h145q100 0 147.5 33t47.5 104zM1157 477
q0 152 -196 152h-164v-297h139q115 0 168 32.5t53 112.5z" />
    <glyph glyph-name="afii10020" unicode="&#x413;" horiz-adv-x="1571" 
d="M1143 899v246h-342v-783h174v-362h-918v362h160v783h-164v362h1485v-608h-395z" />
    <glyph glyph-name="afii10021" unicode="&#x414;" horiz-adv-x="1843" 
d="M500 1145h-123v362h1085v-362h-121l289 -783h172v-727h-405v365h-951v-365h-405v727h174zM838 1126l-252 -764h487l-231 764h-4z" />
    <glyph glyph-name="afii10022" unicode="&#x415;" 
d="M1143 1026v119h-342v-230h299v-307h-299v-246h342v119h395v-481h-1438v362h117v783h-117v362h1438v-481h-395z" />
    <glyph glyph-name="afii10024" unicode="&#x416;" horiz-adv-x="2474" 
d="M645 1145l352 -354l-305 -429h68v-362h-719v362h70l354 500l-283 283h-106v362h684v-362h-115zM1460 1145v-783h111v-362h-668v362h111v783h-111v362h668v-362h-111zM2292 1145l-281 -283l352 -500h70v-362h-717v362h66l-305 429l354 354h-115v362h684v-362h-108z" />
    <glyph glyph-name="afii10025" unicode="&#x417;" horiz-adv-x="1642" 
d="M1499 1139q0 -125 -67.5 -206t-206.5 -130q164 -43 245.5 -131t81.5 -226q0 -466 -786 -466q-666 0 -686 526l452 29q21 -236 226 -236q88 0 135 55.5t47 139.5q0 75 -54.5 123.5t-166.5 48.5h-53l-2 241h45q71 0 131.5 44t60.5 136q0 76 -47 122t-133 46
q-88 0 -143.5 -57t-73.5 -164h-389v473h401v-94q96 64 196.5 91.5t254.5 27.5q250 0 391 -103.5t141 -289.5z" />
    <glyph glyph-name="afii10026" unicode="&#x418;" horiz-adv-x="1942" 
d="M797 1145v-350l348 344v6h-94v362h794v-362h-116v-783h116v-362h-794v362h94v359l-348 -344v-15h96v-362h-795v362h115v783h-115v362h795v-362h-96z" />
    <glyph glyph-name="afii10027" unicode="&#x419;" horiz-adv-x="1942" 
d="M797 1145v-350l348 344v6h-94v362h794v-362h-116v-783h116v-362h-794v362h94v359l-348 -344v-15h96v-362h-795v362h115v783h-115v362h795v-362h-96zM983 1804q72 0 119 50.5t47 142.5h411q0 -178 -165.5 -278.5t-434.5 -100.5q-254 0 -412.5 99.5t-160.5 279.5h414
q0 -90 52 -141.5t130 -51.5z" />
    <glyph glyph-name="afii10028" unicode="&#x41a;" horiz-adv-x="1896" 
d="M799 1145v-783h121v-362h-820v362h115v783h-115v362h820v-362h-121zM1702 1145l-305 -283l383 -500h75v-362h-778v362h70l-330 429l383 354h-123v362h744v-362h-119z" />
    <glyph glyph-name="afii10029" unicode="&#x41b;" 
d="M961 362l-218 783h-14l-227 -783h125v-362h-609v362h111l256 783h-147v362h1187v-362h-153l260 -783h113v-362h-809v362h125z" />
    <glyph glyph-name="afii10030" unicode="&#x41c;" horiz-adv-x="2451" 
d="M1454 1507h901v-362h-117v-783h117v-362h-782v362h119v836h-4l-449 -1198h-227l-445 1198h-4v-836h119v-362h-586v362h117v783h-117v362h908l221 -581z" />
    <glyph glyph-name="afii10031" unicode="&#x41d;" horiz-adv-x="1942" 
d="M797 1145v-230h348v230h-94v362h794v-362h-116v-783h116v-362h-794v362h94v246h-348v-246h96v-362h-795v362h115v783h-115v362h795v-362h-96z" />
    <glyph glyph-name="afii10032" unicode="&#x41e;" horiz-adv-x="1921" 
d="M1808 758q0 -226 -109.5 -404t-304 -278.5t-440.5 -100.5q-239 0 -432.5 101.5t-303 281t-109.5 400.5t108.5 399t302 279.5t438.5 101.5q248 0 441.5 -103.5t301 -281.5t107.5 -395zM958 328q74 0 117 40t61.5 133t18.5 257q0 166 -20.5 258t-62.5 131t-114 39
q-71 0 -113 -38t-61.5 -130t-19.5 -260q0 -164 18.5 -257t60.5 -133t115 -40z" />
    <glyph glyph-name="afii10033" unicode="&#x41f;" horiz-adv-x="1942" 
d="M1147 362v783h-348v-783h94v-362h-795v362h117v783h-117v362h1747v-362h-114v-783h114v-362h-794v362h96z" />
    <glyph glyph-name="afii10034" unicode="&#x420;" horiz-adv-x="1796" 
d="M1745 1026q0 -149 -79 -252.5t-208 -155t-278 -51.5h-383v-205h151v-362h-880v362h145v783h-145v362h1028q313 0 481 -129t168 -352zM1135 1036q0 76 -48.5 108t-138.5 32h-151v-277h168q82 0 126 35t44 102z" />
    <glyph glyph-name="afii10035" unicode="&#x421;" horiz-adv-x="1780" 
d="M1278 1407v100h362v-551h-374q-35 109 -101.5 164.5t-156.5 55.5q-125 0 -184.5 -104.5t-59.5 -313.5q0 -221 60.5 -325.5t191.5 -104.5q112 0 180 82t100 256l392 -140q-70 -284 -256.5 -417.5t-493.5 -133.5q-262 0 -449.5 101.5t-283.5 281t-96 410.5q0 219 97 395
t267 275.5t377 99.5q125 0 236.5 -34t191.5 -97z" />
    <glyph glyph-name="afii10036" unicode="&#x422;" 
d="M1298 872v273h-172v-783h134v-362h-852v362h133v783h-172v-273h-285v635h1499v-635h-285z" />
    <glyph glyph-name="afii10037" unicode="&#x423;" horiz-adv-x="1599" 
d="M582 397l-441 748h-100v362h786v-362h-88l172 -346l179 346h-91v362h580v-362h-96l-301 -580q-119 -227 -213.5 -348t-222.5 -178t-328 -57q-103 0 -197 16v389q78 -27 207 -27q92 0 154 37z" />
    <glyph glyph-name="afii10038" unicode="&#x424;" horiz-adv-x="2214" 
d="M51 766q0 211 183.5 313.5t601.5 102.5h79v80h-274v245h932v-245h-275v-80h91q407 0 590.5 -102.5t183.5 -313.5t-186.5 -316.5t-592.5 -105.5h-86v-92h275v-252h-932v252h274v92h-79q-412 0 -598.5 104.5t-186.5 317.5zM659 768q0 -70 46.5 -106.5t136.5 -36.5h73v276
h-73q-84 0 -133.5 -32.5t-49.5 -100.5zM1554 768q0 68 -50 100.5t-134 32.5h-72v-276h74q90 0 136 36.5t46 106.5z" />
    <glyph glyph-name="afii10039" unicode="&#x425;" horiz-adv-x="2220" 
d="M922 1190l252 -219l223 219h-129v317h837v-362h-225l-407 -340l538 -443h152v-362h-1016v317h158l-277 250l-256 -250h160v-317h-875v362h170l494 383l-494 400h-159v362h1001v-317h-147z" />
    <glyph glyph-name="afii10040" unicode="&#x426;" horiz-adv-x="1960" 
d="M98 362h117v783h-117v362h795v-362h-94v-783h348v783h-96v362h794v-362h-114v-783h176v-727h-406v365h-1403v362z" />
    <glyph glyph-name="afii10041" unicode="&#x427;" horiz-adv-x="1942" 
d="M707 477q-230 0 -362 122t-132 357v189h-115v362h795v-362h-96v-156q0 -90 40 -129t119 -39q101 0 189 70v254h-94v362h794v-362h-116v-783h116v-362h-794v362h94v232q-98 -51 -212 -84t-226 -33z" />
    <glyph glyph-name="afii10042" unicode="&#x428;" horiz-adv-x="2533" 
d="M1520 1145v-783h305v783h-82v362h692v-362h-102v-783h102v-362h-2337v362h101v783h-101v362h693v-362h-84v-783h305v783h-82v362h674v-362h-84z" />
    <glyph glyph-name="afii10043" unicode="&#x429;" horiz-adv-x="2550" 
d="M98 362h101v783h-101v362h693v-362h-84v-783h305v783h-82v362h674v-362h-84v-783h305v783h-82v362h692v-362h-102v-783h164v-727h-363v365h-2036v362z" />
    <glyph glyph-name="afii10044" unicode="&#x42a;" horiz-adv-x="2241" 
d="M1262 1145v-230h262q665 0 665 -444q0 -233 -170 -352t-487 -119h-1028v362h174v783h-250v-246h-395v608h1392v-362h-163zM1335 332q115 0 168 32.5t53 112.5q0 74 -48 102.5t-148 28.5h-98v-276h73z" />
    <glyph glyph-name="afii10045" unicode="&#x42b;" horiz-adv-x="2695" 
d="M797 1145v-230h221q665 0 665 -444q0 -233 -170 -352t-487 -119h-952v362h139v783h-139v362h864v-362h-141zM2482 1145v-783h141v-362h-864v362h139v783h-139v362h864v-362h-141zM829 332q115 0 168.5 32.5t53.5 112.5q0 74 -48.5 102.5t-148.5 28.5h-57v-276h32z" />
    <glyph glyph-name="afii10046" unicode="&#x42c;" horiz-adv-x="1800" 
d="M821 1145v-230h262q666 0 666 -444q0 -233 -170 -352t-487 -119h-994v362h140v783h-140v362h865v-362h-142zM895 332q115 0 168 32.5t53 112.5q0 74 -48 102.5t-148 28.5h-99v-276h74z" />
    <glyph glyph-name="afii10047" unicode="&#x42d;" horiz-adv-x="1767" 
d="M489 1507v-100q80 63 192 97t237 34q206 0 376 -99.5t267.5 -275.5t97.5 -395q0 -231 -96.5 -410.5t-283.5 -281t-450 -101.5q-299 0 -478 119t-259 365l385 92q51 -113 108.5 -168t149.5 -55q223 0 262 305h-417v282h411q-47 261 -268 261q-68 0 -128 -40t-95 -114h-373
v485h362z" />
    <glyph glyph-name="afii10048" unicode="&#x42e;" horiz-adv-x="2701" 
d="M2593 757q0 -225 -106.5 -403.5t-297 -278.5t-430.5 -100q-215 0 -392 85t-288.5 236.5t-138.5 311.5h-143v-246h116v-362h-815v362h115v783h-115v362h815v-362h-116v-230h157q41 209 153 342t280.5 206.5t373.5 73.5q244 0 433.5 -103.5t294 -281.5t104.5 -395z
M1763 327q66 0 104 40t55 133t17 257t-18 257t-56 132t-102 39q-65 0 -103 -38t-55.5 -130t-17.5 -260q0 -164 16.5 -257t54.5 -133t105 -40z" />
    <glyph glyph-name="afii10049" unicode="&#x42f;" horiz-adv-x="1896" 
d="M412 1450q155 57 483 57h903v-362h-121v-783h121v-362h-819v362h115v252h-185l-329 -614h-543v362h108l209 345q-100 43 -160.5 139t-60.5 211q0 127 69.5 233.5t209.5 159.5zM743 1032q0 -65 47.5 -103t131.5 -38h172v285h-176q-80 0 -127.5 -39t-47.5 -105z" />
    <glyph glyph-name="afii10065" unicode="&#x430;" 
d="M1466 694v-362h140v-332h-684v94q-70 -65 -154 -89.5t-219 -24.5q-141 0 -243.5 43t-156 117.5t-53.5 168.5q0 99 62.5 174.5t177.5 118.5t264 43q94 0 179 -14.5t143 -40.5v102q0 72 -57.5 118t-147.5 46q-135 0 -205 -100l-426 43q45 104 127 166.5t216 90t343 27.5
q258 0 409.5 -41t218 -126t66.5 -222zM758 207q43 0 87 16.5t77 44.5v191q-76 41 -154 41q-70 0 -114 -39t-44 -103q0 -67 42 -109t106 -42z" />
    <glyph glyph-name="afii10066" unicode="&#x431;" 
d="M922 1030q206 0 352.5 -67.5t220.5 -185.5t74 -265q0 -272 -193.5 -407.5t-511.5 -135.5q-368 0 -568 181.5t-200 560.5q0 321 153.5 508.5t434.5 234.5q88 14 133 32.5t66 57.5h620q-45 -129 -103.5 -202.5t-156.5 -110.5t-264 -45q-180 -10 -281.5 -58.5t-141.5 -107.5
t-71 -148q72 74 183.5 116t253.5 42zM827 281q93 0 141 58t48 167q0 102 -46 157.5t-134 55.5t-138.5 -57.5t-50.5 -163.5q0 -105 47 -161t133 -56zM1292 1051z" />
    <glyph glyph-name="afii10067" unicode="&#x432;" horiz-adv-x="1642" 
d="M207 332v389h-109v332h936q240 0 362 -75t122 -208q0 -78 -45.5 -138.5t-122.5 -86.5q215 -39 215 -236q0 -162 -155 -235.5t-480 -73.5h-832v332h109zM811 618q160 0 160 99q0 43 -39 67.5t-101 24.5h-77v-191h57zM995 358q0 99 -176 99h-65v-201h82q77 0 118 26.5
t41 75.5z" />
    <glyph glyph-name="afii10068" unicode="&#x433;" horiz-adv-x="1384" 
d="M885 0h-787v332h109v389h-109v332h1229v-504h-332v172h-241v-389h131v-332z" />
    <glyph glyph-name="afii10069" unicode="&#x434;" horiz-adv-x="1606" 
d="M1210 721l211 -389h144v-697h-344v365h-836v-365h-344v697h164l201 389h-150v332h1114v-332h-160zM541 332h360l-172 389h-10z" />
    <glyph glyph-name="afii10070" unicode="&#x435;" horiz-adv-x="1550" 
d="M1452 471h-827q2 -125 51 -190.5t141 -65.5q53 0 95 30.5t65 86.5l450 -56q-65 -147 -222.5 -227t-383.5 -80q-227 0 -390 67.5t-248 192.5t-85 291t85 294t238.5 198.5t350.5 70.5q207 0 360.5 -72.5t236.5 -210.5t83 -329zM938 633q0 98 -42 153.5t-114 55.5
q-67 0 -109 -59.5t-42 -149.5v-25h307v25z" />
    <glyph glyph-name="afii10072" unicode="&#x436;" horiz-adv-x="2288" 
d="M1722 793h-190v260h672v-287h-125l-197 -193l238 -241h84v-332h-392l-430 455v-455h-477v455l-430 -455h-391v332h84l238 241l-197 193h-125v287h672v-260h-191l340 -336v596h477v-596z" />
    <glyph glyph-name="afii10073" unicode="&#x437;" horiz-adv-x="1513" 
d="M1368 762q0 -156 -168 -215q215 -41 215 -248q0 -154 -162.5 -242t-492.5 -88q-230 0 -373 40t-220 105.5t-122 161.5l451 56q49 -105 190 -105q78 0 119 32t41 87q0 113 -176 113h-181v162h173q159 0 159 114q0 49 -41 78t-102 29q-57 0 -98 -27t-70 -84h-420v328h422
v-51q57 36 135 55.5t213 19.5q166 0 279.5 -44t171 -117.5t57.5 -159.5z" />
    <glyph glyph-name="afii10074" unicode="&#x438;" horiz-adv-x="1855" 
d="M207 332v389h-109v332h705v-312h-90v-362l389 674h655v-332h-108v-389h108v-332h-723v311h109v379l-389 -690h-656v332h109z" />
    <glyph glyph-name="afii10075" unicode="&#x439;" horiz-adv-x="1855" 
d="M207 332v389h-109v332h705v-312h-90v-362l389 674h655v-332h-108v-389h108v-332h-723v311h109v379l-389 -690h-656v332h109zM954 1391q72 0 119 50t47 142h411q0 -178 -164.5 -278.5t-435.5 -100.5q-254 0 -413.5 100.5t-159.5 278.5h414q0 -90 51 -141t131 -51z" />
    <glyph glyph-name="afii10076" unicode="&#x43a;" horiz-adv-x="1642" 
d="M1077 793h-192v260h674v-287h-125l-197 -193l238 -241h84v-332h-392l-432 455v-455h-682v332h135v389h-135v332h682v-596z" />
    <glyph glyph-name="afii10077" unicode="&#x43b;" horiz-adv-x="1503" 
d="M1149 721l211 -389h102v-332h-731v332h109l-172 389h-11l-178 -389h105v-332h-543v332h102l201 389h-149v332h1114v-332h-160z" />
    <glyph glyph-name="afii10078" unicode="&#x43c;" horiz-adv-x="2441" 
d="M1446 1051h897v-330h-109v-389h109v-332h-746v311h91v443h-17l-274 -754h-494l-307 756h-14v-445h90v-311h-574v332h109v389h-109v330h903l228 -592z" />
    <glyph glyph-name="afii10079" unicode="&#x43d;" horiz-adv-x="1847" 
d="M1640 721v-389h109v-332h-750v291h91v129h-332v-129h90v-291h-750v332h109v389h-109v332h750v-291h-90v-115h332v115h-91v291h750v-332h-109z" />
    <glyph glyph-name="afii10080" unicode="&#x43e;" 
d="M1569 526q0 -164 -97.5 -290.5t-265.5 -196.5t-375 -70q-208 0 -375 67.5t-263.5 194.5t-96.5 295q0 166 96.5 293t264.5 195.5t374 68.5q205 0 373 -67.5t266.5 -193.5t98.5 -296zM827 281q93 0 141 65.5t48 185.5q0 115 -46 177.5t-134 62.5t-138.5 -63.5t-50.5 -184.5
q0 -116 47 -179.5t133 -63.5z" />
    <glyph glyph-name="afii10081" unicode="&#x43f;" horiz-adv-x="1806" 
d="M1599 721v-389h109v-332h-750v332h91v389h-291v-389h90v-332h-750v332h109v389h-109v332h1610v-332h-109z" />
    <glyph glyph-name="afii10082" unicode="&#x440;" horiz-adv-x="1774" 
d="M1677 520q0 -160 -72.5 -282.5t-205.5 -190t-307 -67.5q-201 0 -340 88v-222h139v-329h-811v329h127v875h-127v332h672v-97q151 113 356 113q162 0 292 -71.5t203.5 -196.5t73.5 -281zM932 291q92 0 143 64.5t51 179.5q0 223 -190 223q-86 0 -135 -60.5t-49 -173.5
q0 -112 47 -172.5t133 -60.5z" />
    <glyph glyph-name="afii10083" unicode="&#x441;" horiz-adv-x="1528" 
d="M1067 963v90h334v-449h-334q-66 184 -209 184q-90 0 -148.5 -75.5t-58.5 -198.5q0 -121 57.5 -192.5t149.5 -71.5q74 0 123 48t66 134l405 -90q-53 -178 -221 -275.5t-422 -97.5q-211 0 -372 66.5t-250 191.5t-89 291q0 154 83 280t226.5 198.5t315.5 72.5
q205 0 344 -106z" />
    <glyph glyph-name="afii10084" unicode="&#x442;" horiz-adv-x="1604" 
d="M1204 0h-805v332h129v389h-180v-172h-291v504h1489v-504h-291v172h-180v-389h129v-332z" />
    <glyph glyph-name="afii10085" unicode="&#x443;" horiz-adv-x="1456" 
d="M625 721l184 -412l166 412h-103v332h545v-332h-104l-576 -1204h-461v329h179l53 99l-404 776h-81v332h716v-332h-114z" />
    <glyph glyph-name="afii10086" unicode="&#x444;" horiz-adv-x="2589" 
d="M2492 520q0 -160 -72.5 -282.5t-205.5 -190t-307 -67.5q-201 0 -340 88v-222h139v-329h-823v329h139v222q-139 -88 -340 -88q-174 0 -307 67.5t-206 190t-73 282.5q0 156 74 281t204 196.5t292 71.5q204 0 356 -113v218h-127v331h672v-549q151 113 356 113
q162 0 292 -71.5t203.5 -196.5t73.5 -281zM838 758q-191 0 -191 -223q0 -115 51.5 -179.5t143.5 -64.5q86 0 133 60.5t47 172.5v11q-2 106 -52 164.5t-132 58.5zM1747 291q92 0 143.5 64.5t51.5 179.5q0 223 -191 223q-86 0 -135 -60.5t-49 -173.5q0 -112 47 -172.5
t133 -60.5z" />
    <glyph glyph-name="afii10087" unicode="&#x445;" horiz-adv-x="1503" 
d="M987 1053h412v-332h-148l-135 -154l201 -235h121v-332h-520l-205 287l-211 -287h-414v332h131l156 168l-185 221h-127v332h535l193 -285z" />
    <glyph glyph-name="afii10088" unicode="&#x446;" horiz-adv-x="1835" 
d="M98 332h109v389h-109v332h750v-291h-90v-430h291v430h-91v291h750v-332h-109v-389h170v-697h-344v365h-1327v332z" />
    <glyph glyph-name="afii10089" unicode="&#x447;" horiz-adv-x="1776" 
d="M870 1053h830v-332h-133v-389h133v-332h-684v328q-101 -70 -199 -101.5t-213 -31.5q-203 0 -310.5 115.5t-107.5 318.5v92h-125v332h672v-367q0 -65 37 -101t94 -36q45 0 76 8t76 25v139h-146v332z" />
    <glyph glyph-name="afii10090" unicode="&#x448;" horiz-adv-x="2648" 
d="M207 332v389h-109v332h750v-332h-90v-389h291v389h-91v332h732v-332h-91v-389h291v389h-90v332h750v-332h-109v-389h109v-332h-2452v332h109z" />
    <glyph glyph-name="afii10091" unicode="&#x449;" horiz-adv-x="2677" 
d="M98 332h109v389h-109v332h750v-332h-90v-389h291v389h-91v332h732v-332h-91v-389h291v389h-90v332h750v-332h-109v-389h170v-697h-344v365h-2169v332z" />
    <glyph glyph-name="afii10092" unicode="&#x44a;" horiz-adv-x="1942" 
d="M1890 309q0 -164 -154.5 -236.5t-480.5 -72.5h-792v332h90v389h-205v-172h-291v504h1151v-332h-108v-103h196q314 0 454 -74.5t140 -234.5zM1321 326q0 98 -176 98h-45v-201h61q78 0 119 26.5t41 76.5z" />
    <glyph glyph-name="afii10093" unicode="&#x44b;" horiz-adv-x="2482" 
d="M758 721v-103h196q320 0 457 -75.5t137 -233.5q0 -164 -154.5 -236.5t-480.5 -72.5h-811v332h109v389h-109v332h764v-332h-108zM2271 721v-389h90v-332h-745v332h108v389h-108v332h745v-332h-90zM979 326q0 98 -176 98h-45v-201h61q78 0 119 26.5t41 76.5z" />
    <glyph glyph-name="afii10094" unicode="&#x44c;" horiz-adv-x="1595" 
d="M754 721v-103h196q314 0 454 -74.5t140 -234.5q0 -164 -154.5 -236.5t-480.5 -72.5h-811v332h109v389h-109v332h764v-332h-108zM975 326q0 98 -176 98h-45v-201h61q78 0 119 26.5t41 76.5z" />
    <glyph glyph-name="afii10095" unicode="&#x44d;" horiz-adv-x="1528" 
d="M1430 526q0 -166 -89.5 -293t-250 -195.5t-371.5 -68.5q-246 0 -410 82t-231 246l401 51q27 -65 81 -95t122 -30q78 0 145.5 52.5t83.5 170.5h-387v170h383q-18 107 -76.5 155t-158.5 48q-86 0 -135.5 -40t-65.5 -97h-344v371h334v-90q67 55 160.5 80.5t199.5 25.5
q305 0 457 -141.5t152 -401.5z" />
    <glyph glyph-name="afii10096" unicode="&#x44e;" horiz-adv-x="2392" 
d="M2296 526q0 -164 -93.5 -290.5t-256 -196.5t-363.5 -70q-180 0 -329.5 54.5t-247 157t-125.5 239.5h-123v-129h90v-291h-750v332h109v389h-109v332h750v-291h-90v-115h127q30 133 128.5 231.5t246 151.5t323.5 53q197 0 359.5 -67.5t258 -193.5t95.5 -296zM1579 281
q80 0 122 65.5t42 185.5q0 115 -41 177.5t-117 62.5t-120 -63.5t-44 -184.5q0 -116 41 -179.5t117 -63.5z" />
    <glyph glyph-name="afii10097" unicode="&#x44f;" horiz-adv-x="1642" 
d="M573 0h-514v332h129l105 114q-191 86 -191 281q0 166 149.5 246t461.5 80h831v-332h-108v-389h108v-332h-657l2 340h-49zM647 694q0 -98 176 -98h66v201h-82q-78 0 -119 -27t-41 -76z" />
    <glyph glyph-name="afii10071" unicode="&#x451;" horiz-adv-x="1550" 
d="M1452 471h-827q2 -125 51 -190.5t141 -65.5q53 0 95 30.5t65 86.5l450 -56q-65 -147 -222.5 -227t-383.5 -80q-227 0 -390 67.5t-248 192.5t-85 291t85 294t238.5 198.5t350.5 70.5q207 0 360.5 -72.5t236.5 -210.5t83 -329zM938 633q0 98 -42 153.5t-114 55.5
q-67 0 -109 -59.5t-42 -149.5v-25h307v25zM711 1374q0 -74 -51 -127t-127 -53q-74 0 -128 53t-54 127q0 76 54 128t128 52t126 -52t52 -128zM1203 1374q0 -74 -52.5 -127t-128.5 -53q-75 0 -127.5 53t-52.5 127q0 76 53.5 128t126.5 52q74 0 127.5 -52t53.5 -128z" />
    <glyph glyph-name="afii10099" unicode="&#x452;" horiz-adv-x="1714" 
d="M885 715q-33 0 -68 -11.5t-84 -33.5v-338h146v-332h-830v332h137v827h-182v256h180v123h549v-121h309v-258h-309v-235q103 71 215.5 108t220.5 37q191 0 292.5 -116.5t101.5 -323.5v-512q0 -219 -43 -338t-163 -176.5t-358 -59.5q-137 0 -192 8v295q106 0 139 17
q39 16 54.5 62t15.5 163v477q0 70 -33 110t-98 40z" />
    <glyph glyph-name="afii10100" unicode="&#x453;" horiz-adv-x="1384" 
d="M885 0h-787v332h109v389h-109v332h1229v-504h-332v172h-241v-389h131v-332zM560 1188l186 350h452l-403 -350h-235z" />
    <glyph glyph-name="afii10101" unicode="&#x454;" horiz-adv-x="1528" 
d="M1067 963v90h334v-371h-344q-17 57 -67 97t-138 40q-80 0 -142.5 -52t-86.5 -151h381v-170h-388q15 -100 75.5 -161.5t154.5 -61.5q65 0 120.5 31t82.5 94l401 -51q-68 -164 -231.5 -246t-409.5 -82q-342 0 -526.5 146.5t-184.5 410.5q0 156 75 279t213 193.5t321 70.5
q106 0 200 -25.5t160 -80.5z" />
    <glyph glyph-name="afii10102" unicode="&#x455;" horiz-adv-x="1366" 
d="M858 975v78h334v-308h-309q-66 60 -132.5 85.5t-146.5 25.5q-119 0 -119 -68q0 -26 43 -42.5t177 -38.5q174 -31 266 -62q149 -49 223 -120.5t74 -184.5q0 -176 -125 -268t-344 -92q-92 0 -170 20t-160 70v-84h-338v336h315q70 -70 129.5 -99.5t137.5 -29.5q65 0 104 17
t39 44q0 53 -125 80q-158 33 -247 57.5t-185 65.5q-104 47 -152.5 114.5t-48.5 161.5q0 160 115 250t319 90q97 0 189 -27.5t137 -70.5z" />
    <glyph glyph-name="afii10103" unicode="&#x456;" horiz-adv-x="942" 
d="M756 1352q0 -82 -82 -135.5t-213 -53.5q-139 0 -219 51.5t-80 137.5q0 78 86 132t213 54q129 0 212 -53t83 -133zM844 332v-332h-746v332h109v389h-109v332h656v-721h90z" />
    <glyph glyph-name="afii10104" unicode="&#x457;" horiz-adv-x="942" 
d="M844 332v-332h-746v332h109v389h-109v332h656v-721h90zM407 1374q0 -74 -51 -127t-127 -53q-74 0 -128 53t-54 127q0 76 54 128t128 52t126 -52t52 -128zM899 1374q0 -74 -52.5 -127t-128.5 -53q-75 0 -127.5 53t-52.5 127q0 76 53.5 128t126.5 52q74 0 127.5 -52
t53.5 -128z" />
    <glyph glyph-name="afii10105" unicode="&#x458;" horiz-adv-x="901" 
d="M735 1352q0 -86 -82 -137.5t-213 -51.5q-139 0 -219 50.5t-80 138.5q0 80 85 133t214 53q131 0 213 -52t82 -134zM184 -457q-133 0 -188 8v295q106 0 139 17q41 16 55.5 58t14.5 157v643h-109v332h654v-936q-7 -221 -50 -339t-161.5 -175.5t-354.5 -59.5z" />
    <glyph glyph-name="afii10106" unicode="&#x459;" horiz-adv-x="2222" 
d="M1151 721l55 -103h371q319 0 456.5 -76.5t137.5 -232.5q0 -164 -154.5 -236.5t-480.5 -72.5h-803v332h107l-172 389h-11l-178 -389h105v-332h-543v332h102l201 389h-149v332h1114v-332h-158zM1442 223q78 0 119 26.5t41 76.5q0 98 -177 98h-114l108 -201h23z" />
    <glyph glyph-name="afii10107" unicode="&#x45a;" horiz-adv-x="2482" 
d="M1640 762v-144h197q320 0 457 -76.5t137 -232.5q0 -162 -154.5 -235.5t-480.5 -73.5h-797v291h91v129h-332v-129h90v-291h-750v332h109v389h-109v332h750v-291h-90v-115h332v115h-91v291h750v-291h-109zM1862 326q0 98 -176 98h-46v-201h62q78 0 119 26.5t41 76.5z" />
    <glyph glyph-name="afii10108" unicode="&#x45b;" horiz-adv-x="1757" 
d="M1042 1415v-256h-309v-235q103 71 215.5 108t220.5 37q191 0 292.5 -116.5t101.5 -323.5v-297h125v-332h-672v565q0 70 -33 110t-98 40q-33 0 -68 -11.5t-84 -33.5v-338h146v-332h-830v332h137v827h-182v256h180v123h549v-123h309z" />
    <glyph glyph-name="afii10109" unicode="&#x45c;" horiz-adv-x="1642" 
d="M1077 793h-192v260h674v-287h-125l-197 -193l238 -241h84v-332h-392l-432 455v-455h-682v332h135v389h-135v332h682v-596zM605 1188l186 350h452l-403 -350h-235z" />
    <glyph glyph-name="afii10110" unicode="&#x45e;" horiz-adv-x="1456" 
d="M625 721l184 -412l166 412h-103v332h545v-332h-104l-576 -1204h-461v329h179l53 99l-404 776h-81v332h716v-332h-114zM737 1391q72 0 119 50t47 142h411q0 -178 -164.5 -278.5t-435.5 -100.5q-254 0 -413.5 100.5t-159.5 278.5h414q0 -90 51 -141t131 -51z" />
    <glyph glyph-name="afii10193" unicode="&#x45f;" horiz-adv-x="1806" 
d="M729 -365v365h-631v332h109v389h-109v332h750v-291h-90v-430h291v430h-91v291h750v-332h-109v-389h109v-332h-635v-365h-344z" />
    <glyph glyph-name="afii10050" unicode="&#x490;" horiz-adv-x="1571" 
d="M1538 1868v-723h-737v-783h174v-362h-918v362h160v783h-164v362h1088v361h397z" />
    <glyph glyph-name="afii10098" unicode="&#x491;" horiz-adv-x="1384" 
d="M1327 1276v-555h-573v-389h90v-332h-746v332h109v389h-109v332h897v223h332z" />
    <glyph glyph-name="uni0496" unicode="&#x496;" horiz-adv-x="2535" 
d="M645 1145l352 -354l-305 -429h68v-362h-719v362h70l354 500l-283 283h-106v362h684v-362h-115zM1460 1145v-783h111v-362h-668v362h111v783h-111v362h668v-362h-111zM1716 362h66l-305 429l354 354h-115v362h684v-362h-108l-281 -283l352 -500h131v-727h-405v365h-373
v362z" />
    <glyph glyph-name="uni0497" unicode="&#x497;" horiz-adv-x="2331" 
d="M1722 793h-190v260h672v-287h-125l-197 -193l238 -241h145v-697h-344v365h-109l-430 455v-455h-477v455l-430 -455h-391v332h84l238 241l-197 193h-125v287h672v-260h-191l340 -336v596h477v-596z" />
    <glyph glyph-name="uni049A" unicode="&#x49a;" horiz-adv-x="1958" 
d="M799 1145v-783h121v-362h-820v362h115v783h-115v362h820v-362h-121zM1702 1145l-305 -283l383 -500h137v-727h-406v365h-434v362h70l-330 429l383 354h-123v362h744v-362h-119z" />
    <glyph glyph-name="uni049B" unicode="&#x49b;" horiz-adv-x="1686" 
d="M1077 793h-192v260h674v-287h-125l-197 -193l238 -241h145v-697h-344v365h-109l-432 455v-455h-682v332h135v389h-135v332h682v-596z" />
    <glyph glyph-name="uni04B0" unicode="&#x4b0;" horiz-adv-x="1618" 
d="M1579 1145h-96l-244 -350h199v-263h-332v-170h119v-362h-824v362h121v170h-336v263h201l-246 350h-100v362h786v-362h-88l158 -305l193 305h-91v362h580v-362z" />
    <glyph glyph-name="uni04B1" unicode="&#x4b1;" horiz-adv-x="1503" 
d="M483 88l-340 633h-102v332h741v-332h-118l176 -399l184 399h-104v332h542v-332h-102l-330 -633v-8h322v-262h-322v-301h-547v301h-321v262h321v8z" />
    <glyph glyph-name="uni04B2" unicode="&#x4b2;" horiz-adv-x="2220" 
d="M922 1190l252 -219l223 219h-129v317h837v-362h-225l-407 -340l538 -443h152v-727h-406v365h-610v317h158l-277 250l-256 -250h160v-317h-875v362h170l494 383l-494 400h-159v362h1001v-317h-147z" />
    <glyph glyph-name="uni04B3" unicode="&#x4b3;" horiz-adv-x="1565" 
d="M987 1053h412v-332h-148l-135 -154l201 -235h182v-697h-344v365h-237l-205 287l-211 -287h-414v332h131l156 168l-185 221h-127v332h535l193 -285z" />
    <glyph glyph-name="uni04B6" unicode="&#x4b6;" horiz-adv-x="1960" 
d="M707 477q-230 0 -362 122t-132 357v189h-115v362h795v-362h-96v-156q0 -90 40 -129t119 -39q101 0 189 70v254h-94v362h794v-362h-116v-783h178v-727h-406v365h-450v362h94v232q-98 -51 -212 -84t-226 -33z" />
    <glyph glyph-name="uni04B7" unicode="&#x4b7;" horiz-adv-x="1827" 
d="M870 1053h830v-332h-133v-389h194v-697h-344v365h-401v328q-101 -70 -199 -101.5t-213 -31.5q-203 0 -310.5 115.5t-107.5 318.5v92h-125v332h672v-367q0 -65 37 -101t94 -36q54 0 80.5 8t71.5 25v139h-146v332z" />
    <glyph glyph-name="uni0E3F" unicode="&#xe3f;" horiz-adv-x="1528" 
d="M80 0v362h131v783h-131v362h545v228h243v-228h6q228 0 353 -102t125 -289q0 -117 -74 -198.5t-201 -108.5v-6q154 -39 242 -142.5t88 -236.5q0 -201 -141.5 -311.5t-397.5 -112.5v-276h-243v276h-545zM887 1038q0 70 -45 104t-144 34h-36v-275h30q101 0 148 33t47 104z
M907 477q0 152 -196 152h-49v-297h24q115 0 168 32.5t53 112.5z" />
    <glyph glyph-name="endash" unicode="&#x2013;" horiz-adv-x="1358" 
d="M111 475v422h1136v-422h-1136z" />
    <glyph glyph-name="emdash" unicode="&#x2014;" horiz-adv-x="2468" 
d="M111 475v422h2246v-422h-2246z" />
    <glyph glyph-name="afii00208" unicode="&#x2015;" horiz-adv-x="2220" 
d="M-14 475v422h2246v-422h-2246z" />
    <glyph glyph-name="quoteleft" unicode="&#x2018;" horiz-adv-x="879" 
d="M711 1505v-213q-117 0 -161 -45t-44 -162v-18h205v-395h-541v487q0 160 114.5 255t323.5 95q86 0 103 -4z" />
    <glyph glyph-name="quoteright" unicode="&#x2019;" horiz-adv-x="879" 
d="M270 670q-73 0 -102 6v213q117 0 161 45t44 160v18h-205v395h541v-491q0 -158 -115 -252t-324 -94z" />
    <glyph glyph-name="quotesinglbase" unicode="&#x201a;" horiz-adv-x="879" 
d="M270 -442q-65 0 -102 4v215q117 0 161 45t44 160v18h-205v395h541v-485q0 -162 -114 -257t-325 -95z" />
    <glyph glyph-name="quotedblleft" unicode="&#x201c;" horiz-adv-x="1595" 
d="M702 1505v-213q-116 0 -160 -45t-44 -162v-18h204v-395h-540v489q0 160 114.5 254t325.5 94q80 0 100 -4zM1434 1505v-213q-117 0 -161 -45t-44 -162v-18h205v-395h-539v489q0 162 115.5 255t326.5 93q80 0 97 -4z" />
    <glyph glyph-name="quotedblright" unicode="&#x201d;" horiz-adv-x="1595" 
d="M264 670q-76 0 -102 6v213q117 0 161 45t44 153v25h-205v395h540v-491q0 -158 -114.5 -252t-323.5 -94zM997 670q-71 0 -102 6v213q117 0 161 45t44 160v18h-205v395h539v-491q0 -158 -115 -252t-322 -94z" />
    <glyph glyph-name="quotedblbase" unicode="&#x201e;" horiz-adv-x="1595" 
d="M264 -442q-65 0 -102 4v215q117 0 161 45t44 153v25h-205v395h540v-485q0 -162 -113.5 -257t-324.5 -95zM997 -442q-69 0 -102 4v215q117 0 161 45t44 160v18h-205v395h539v-485q0 -162 -114 -257t-323 -95z" />
    <glyph glyph-name="dagger" unicode="&#x2020;" horiz-adv-x="1503" 
d="M881 971q90 8 165.5 33.5t149.5 76.5h242v-370h-242q-141 102 -315 116q2 -90 33.5 -164.5t86.5 -121.5v-248l-120 -754h-256l-121 754v248q106 96 121 286q-172 -14 -318 -116h-239v370h239q68 -47 142.5 -73.5t175.5 -36.5q-13 178 -121 256v280h497v-280
q-55 -39 -86.5 -105.5t-33.5 -150.5z" />
    <glyph glyph-name="daggerdbl" unicode="&#x2021;" horiz-adv-x="1434" 
d="M852 969q88 8 150.5 34.5t109.5 77.5h238v-372h-238q-47 47 -115.5 76.5t-144.5 37.5q2 -112 37 -164l90 -135l-82 -125q-23 -30 -33 -70t-12 -108q78 10 145.5 40t114.5 77h238v-373h-238q-92 98 -260 113q8 -92 35.5 -152.5t81.5 -101.5v-285h-504v285
q55 45 81.5 103.5t35.5 150.5q-170 -17 -260 -113h-240v373h240q47 -47 114.5 -77t145.5 -40q-2 111 -35 166l-92 137l90 133q35 58 37 166q-76 -8 -143.5 -37.5t-116.5 -76.5h-240v372h240q96 -100 260 -112q-9 90 -36.5 149.5t-80.5 100.5v288h504v-286
q-56 -45 -82.5 -103.5t-34.5 -148.5z" />
    <glyph glyph-name="bullet" unicode="&#x2022;" horiz-adv-x="1110" 
d="M915 782q0 -96 -48 -179t-131 -132t-181 -49t-181 49t-131 132t-48 179q0 95 48 177.5t131 132t181 49.5t181 -49.5t131 -132t48 -177.5z" />
    <glyph glyph-name="ellipsis" unicode="&#x2026;" horiz-adv-x="2220" 
d="M98 0v395h539v-395h-539zM840 0v395h538v-395h-538zM1581 0v395h539v-395h-539z" />
    <glyph glyph-name="perthousand" unicode="&#x2030;" horiz-adv-x="2867" 
d="M846 1122q0 -118 -50.5 -213.5t-139.5 -147.5t-205 -52q-117 0 -207 53t-140.5 147.5t-50.5 212.5q0 121 50.5 215.5t140.5 147.5t207 53q114 0 204 -53t140.5 -147.5t50.5 -215.5zM365 0l1015 1507h238l-1016 -1507h-237zM451 915q47 0 63 44.5t16 162.5q0 90 -7 134
t-23.5 59.5t-48.5 15.5q-45 0 -63.5 -48t-18.5 -163q0 -119 17 -162t65 -43zM1915 385q0 -121 -50 -215t-139.5 -147.5t-205.5 -53.5q-115 0 -206 53.5t-141.5 147.5t-50.5 215q0 119 50.5 213t140.5 147.5t207 53.5q114 0 204.5 -53.5t140.5 -147.5t50 -213zM2814 385
q0 -121 -50 -215t-139.5 -147.5t-205.5 -53.5q-115 0 -206 53.5t-141.5 147.5t-50.5 215q0 119 50.5 213t140.5 147.5t207 53.5q114 0 204.5 -53.5t140.5 -147.5t50 -213zM1520 176q47 0 63 44t16 165q0 90 -7 133t-23.5 58.5t-48.5 15.5q-45 0 -63.5 -48t-18.5 -163
q0 -119 17.5 -162t64.5 -43zM2419 176q47 0 63.5 44t16.5 165q0 90 -7.5 133t-24 58.5t-48.5 15.5q-45 0 -63.5 -48t-18.5 -163q0 -119 17.5 -162t64.5 -43z" />
    <glyph glyph-name="guilsinglleft" unicode="&#x2039;" horiz-adv-x="901" 
d="M825 0h-503l-246 524l246 529h503l-250 -529z" />
    <glyph glyph-name="guilsinglright" unicode="&#x203a;" horiz-adv-x="901" 
d="M580 0h-504l250 528l-250 525h504l245 -525z" />
    <glyph glyph-name="uni20A0" unicode="&#x20a0;" horiz-adv-x="1626" 
d="M1319 727v84h-191v-162h162v-219h-162v-176h191v86h258v-342h-909v256h77v176l-92 -2q-192 -2 -324 67.5t-197.5 194.5t-65.5 289q0 156 63.5 280.5t175 195.5t248.5 71q82 0 155.5 -24.5t127.5 -69.5v73h239v-356h-246q-24 59 -68 90t-102 31q-108 0 -160.5 -73
t-52.5 -222q0 -168 63.5 -248t199.5 -80h36v164h-77v258h909v-342h-258zM1675 1051z" />
    <glyph glyph-name="colonmonetary" unicode="&#x20a1;" horiz-adv-x="1626" 
d="M98 768q0 203 77 369t212 270t303 125l41 203h244l-43 -213q80 -19 147 -56l54 269h243l-45 -228h168v-551h-342q-33 109 -93 164.5t-142 55.5q-115 0 -169.5 -104.5t-54.5 -313.5q0 -221 55.5 -325.5t174.5 -104.5q104 0 165.5 82t90.5 256l358 -140q-53 -237 -179 -368
t-327 -166l-53 -268h-244l49 253q-73 7 -151 23l-55 -276h-244l74 372q-152 103 -233 277t-81 395z" />
    <glyph glyph-name="uni20A2" unicode="&#x20a2;" horiz-adv-x="1626" 
d="M1376 954h107v-284h-123q-164 0 -224.5 -57.5t-60.5 -168.5v-100q82 59 129 203l318 -125q-168 -447 -670 -447q-240 0 -410 101.5t-257 281t-87 410.5q0 233 94.5 407.5t260 268.5t376.5 94q113 0 201 -35t141 -96v100h328v-475h-301q-65 185 -297 185q-162 0 -259 -125
t-97 -332q0 -174 54 -287t159 -156v418h-96v209h413v-166h2q68 176 299 176z" />
    <glyph glyph-name="franc" unicode="&#x20a3;" horiz-adv-x="1626" 
d="M231 1145h-170v362h1532v-497h-407v135h-355v-217h267v-305h-267v-142h494v-260h-494v-221h-598v221h-215v260h213v664z" />
    <glyph glyph-name="lira" unicode="&#x20a4;" horiz-adv-x="1386" 
d="M223 1108q0 199 156 314.5t432 115.5q252 0 388 -90t147 -254l-367 -37q-12 45 -47 77t-88 32q-58 0 -93.5 -37t-35.5 -90q0 -33 18 -92h404v-185h-326l31 -88h295v-184h-263v-23q0 -61 -6 -98t-24 -90q67 -41 143 -41q62 0 96.5 31.5t51.5 107.5l256 -65
q-19 -211 -123.5 -321.5t-274.5 -110.5q-92 0 -166.5 33.5t-136.5 103.5q-133 -137 -297 -137q-133 0 -218 80.5t-85 205.5q0 115 78 186.5t203 71.5q39 0 66.5 -6t66.5 -24q-25 65 -41 96h-395v184h278q-49 76 -55 88h-223v185h159q-4 18 -4 61zM367 129q71 0 115 41
t53 121q-89 100 -187 100q-55 0 -91 -36t-36 -89q0 -59 41 -98t105 -39z" />
    <glyph glyph-name="uni20A5" unicode="&#x20a5;" horiz-adv-x="2077" 
d="M733 715q-65 0 -139 -68v-647h-518v332h102v389h-102v332h518v-156q151 172 348 172q119 0 197 -72l159 338h267l-148 -309q86 43 176 43q146 0 222.5 -114.5t76.5 -315.5v-307h107v-332h-524v586q0 61 -25 95t-68 34q-32 0 -69 -18.5t-70 -49.5v-315h115v-332h-428
l-68 -145h-266l229 483v248q0 63 -21.5 96t-70.5 33z" />
    <glyph glyph-name="uni20A6" unicode="&#x20a6;" horiz-adv-x="1626" 
d="M262 1206h-102v301h545l225 -428h196v127h-96v301h463v-301h-100v-127h211v-184h-211v-176h211v-184h-211v-560h-379l-295 560h-191v-234h103v-301h-471v301h102v234h-239v184h239v176h-239v184h239v127zM1126 895h-98l94 -176h4v176zM530 893h-2v-174h95z" />
    <glyph glyph-name="peseta" unicode="&#x20a7;" horiz-adv-x="2693" 
d="M1745 762h-176v-266q0 -78 12 -112t49 -34q68 0 115 35v-324q-41 -41 -109.5 -66.5t-136.5 -25.5q-139 0 -208.5 103.5t-69.5 294.5v395h-138q-112 -195 -421 -195h-121v-245h96v-322h-561v322h92v864h-92v321h569q250 0 372 -118.5t128 -335.5h76v159l348 261v-420h176
v-291zM774 1036q0 78 -31.5 119t-87.5 41h-96v-317h107q51 0 79.5 44t28.5 113zM2343 975v78h252v-308h-238q-41 60 -84 85.5t-94 25.5q-74 0 -74 -68q0 -26 27 -42.5t113 -38.5q112 -33 168 -62q106 -53 167.5 -124.5t61.5 -180.5q0 -115 -46 -197t-123 -122.5t-169 -40.5
q-59 0 -107.5 19t-103.5 71v-70h-256v322h242q45 -68 88 -98.5t94 -30.5q80 0 80 61q0 53 -82 80q-80 26 -140.5 54t-131.5 69q-68 39 -119 113.5t-51 162.5q0 105 43 181.5t115.5 117.5t160.5 41q62 0 120 -27.5t87 -70.5z" />
    <glyph glyph-name="uni20A8" unicode="&#x20a8;" horiz-adv-x="2232" 
d="M1022 1450q94 -53 140 -159.5t46 -233.5q0 -115 -41 -211t-106 -139l139 -385h72v-322h-363l-219 614h-123v-292h76v-322h-545v322h80v864h-80v321h602q220 0 322 -57zM801 1032q0 68 -32 116t-85 48h-117v-326h115q55 0 87 46.5t32 115.5zM1868 975v78h264v-308h-248
q-43 60 -88 85.5t-98 25.5q-41 0 -59.5 -17.5t-18.5 -50.5q0 -26 28.5 -42.5t116.5 -38.5q117 -31 179 -62q110 -53 173.5 -124.5t63.5 -180.5q0 -115 -48 -197t-128 -122.5t-176 -40.5q-62 0 -113 20t-106 70v-72h-267v324h250q45 -70 85 -99.5t94 -29.5q43 0 68.5 16
t25.5 45q0 53 -82 80q-209 65 -326 141q-69 49 -103 116.5t-34 168.5q0 90 44 161.5t120 111.5t166 40q65 0 126.5 -27.5t90.5 -70.5z" />
    <glyph glyph-name="uni20A9" unicode="&#x20a9;" horiz-adv-x="1626" 
d="M174 1190h-49v321h444v-321h-69l12 -111h213l20 111h-73v321h375v-321h-72l18 -111h213l17 111h-70v321h346v-321h-51l-25 -111h158v-184h-195l-36 -176h231v-184h-270l-115 -549h-266l-109 549h-18l-105 -549h-272l-115 549h-268v184h229l-36 176h-193v184h154zM692 895
h-157l22 -176h105zM1182 895h-158l31 -176h104zM580 535l12 -91h22l15 91h-49zM1085 535l17 -91h20l13 91h-50z" />
    <glyph glyph-name="afii57636" unicode="&#x20aa;" horiz-adv-x="1960" 
d="M1341 696v-282h-297v295q0 122 -51 171.5t-159 49.5h-326v-930h-297v1206h647q483 0 483 -510zM926 793v-517h325q109 0 160 49.5t51 174.5v706h297v-696q0 -231 -116.5 -370.5t-409.5 -139.5h-604v793h297z" />
    <glyph glyph-name="dong" unicode="&#x20ab;" horiz-adv-x="1626" 
d="M1470 1434v-275h-143v-739h107v-311h-533v92q-47 -51 -120.5 -80t-162.5 -29q-137 0 -234 65.5t-147.5 180.5t-50.5 258q0 158 57.5 271.5t159 174t232.5 60.5q156 0 266 -78v135h-252v275h252v104h426v-104h143zM760 381q67 0 106 57.5t39 159.5q0 98 -38 157.5
t-105 59.5q-66 0 -105 -55t-39 -160q0 -219 142 -219zM1468 -291h-1267v291h1267v-291z" />
    <glyph glyph-name="Euro" unicode="&#x20ac;" horiz-adv-x="1626" 
d="M1171 1407v100h328v-475l-301 4q-57 185 -262 185q-96 0 -167 -57.5t-110 -162.5h312v-184h-346q-2 -18 -2 -55q0 -51 2 -74h346v-184h-312q72 -209 269 -209q119 0 181 66.5t95 187.5l318 -127q-168 -447 -670 -447q-285 0 -467 141.5t-246 387.5h-114v184h86
q-2 27 -2 80v49h-84v184h110q62 252 247 394.5t447 142.5q113 0 201 -35t141 -96z" />
    <glyph glyph-name="uni20AD" unicode="&#x20ad;" horiz-adv-x="1626" 
d="M1376 1145l-178 -215h338v-262h-281l181 -306h57v-362h-596v362h53l-180 306h-86v-306h92v-362h-626v362h88v306h-209v262h209v215h-88v362h626v-362h-92v-215h129l178 215h-94v362h569v-362h-90z" />
    <glyph glyph-name="uni20AE" unicode="&#x20ae;" horiz-adv-x="1626" 
d="M551 1145h-158v-199h-260v561h1372v-561h-260v199h-158v-299l322 47v-184l-322 -47v-177l322 47v-184l-322 -47v-301h-536v221l-352 -51v184l352 52v176l-352 -52v185l352 51v379z" />
    <glyph glyph-name="uni20AF" unicode="&#x20af;" horiz-adv-x="2304" 
d="M1341 891q0 -209 -90 -415t-268 -341t-430 -135h-528l96 362h94l203 762q-64 -22 -133.5 -77.5t-108.5 -108.5l-227 229q141 162 335.5 251t403.5 89q334 0 493.5 -163.5t159.5 -452.5zM952 926q0 114 -37.5 166.5t-113.5 52.5h-21l-209 -783h56q94 0 168.5 80t115.5 210
t41 274zM2277 641q0 -190 -59 -340.5t-167.5 -235.5t-252.5 -85q-94 0 -151.5 21.5t-92.5 66.5l-149 -551h-332l252 938q53 200 122 334.5t174 210t261 75.5q115 0 205 -52t140 -150.5t50 -231.5zM1653 381q0 -47 22.5 -68.5t77.5 -21.5q49 0 90 55t63.5 133t22.5 137
q0 68 -25.5 105t-66.5 37q-51 0 -90 -59.5t-70 -174.5q-24 -88 -24 -143z" />
    <glyph glyph-name="uni20B0" unicode="&#x20b0;" horiz-adv-x="1626" 
d="M311 0h-391l404 670l305 -203l71 80q-133 178 -184 289.5t-51 253.5q0 149 75.5 250.5t193.5 150.5t241 49q176 0 291.5 -62.5t170 -163t54.5 -212.5q0 -123 -69.5 -255t-196.5 -263q297 -361 297 -662q0 -184 -115 -294.5t-330 -110.5q-231 0 -377 106v-100h-340v424
h340q84 -137 213 -137q64 0 103 36.5t39 94.5q0 100 -152 303l-213 -240l-274 164zM897 1098q0 -54 28.5 -119.5t78.5 -114.5q120 140 120 242q0 51 -32.5 79.5t-87.5 28.5q-48 0 -77.5 -32.5t-29.5 -83.5z" />
    <glyph glyph-name="uni20B1" unicode="&#x20b1;" horiz-adv-x="1626" 
d="M217 1507h684q170 0 296 -49t202 -139h227v-184h-139q12 -52 12 -109q0 -27 -4 -68h131v-184h-203q-71 -100 -192 -153.5t-256 -53.5h-238v-205h133v-362h-782v362h129v412h-194v184h194v177h-194v184h194v188zM934 1036q0 76 -42 108t-124 32h-31v-277h47q72 0 111 35
t39 102z" />
    <glyph glyph-name="uni20B2" unicode="&#x20b2;" horiz-adv-x="1626" 
d="M94 774q0 191 74 352.5t205 268t301 133.5v207h244v-211q147 -29 247 -121v104h314v-526h-314q-47 102 -109.5 148.5t-154.5 46.5q-86 0 -138 -42t-75.5 -137.5t-23.5 -259.5q0 -215 55 -312t180 -97q86 0 132 50t46 142h-135v285h586v-103q0 -206 -69.5 -366t-207 -254
t-333.5 -105v-253h-244v270q-279 51 -429.5 257t-150.5 523z" />
    <glyph glyph-name="uni20B3" unicode="&#x20b3;" horiz-adv-x="1626" 
d="M567 1522h461l287 -764h330v-185h-261l66 -176h195v-184h-125l79 -213h-559l-67 213h-512l-68 -213h-364l75 213h-122v184h188l61 176h-249v185h315zM723 1004h-4l-80 -246h162zM858 573h-278l-58 -176h391z" />
    <glyph glyph-name="uni20B4" unicode="&#x20b4;" horiz-adv-x="1386" 
d="M817 1165q0 41 -30.5 65.5t-81.5 24.5q-160 0 -218 -112h-340v364h340v-94q66 55 152 85t184 30q138 0 245.5 -56.5t167.5 -158t60 -232.5v-2h90v-184h-133q-49 -100 -153 -176h286v-184h-645q-77 -37 -112 -73t-35 -77q0 -47 32.5 -72.5t88.5 -25.5q86 0 141 33.5
t88 107.5h340v-428h-340v100q-74 -55 -171 -87.5t-189 -32.5q-142 0 -254.5 61t-177 166.5t-64.5 230.5q0 56 8 97h-73v184h159q74 96 213 176h-372v184h745q49 37 49 86z" />
    <glyph glyph-name="uni20B5" unicode="&#x20b5;" horiz-adv-x="1626" 
d="M98 768q0 199 74 362.5t205 268t297 131.5v205h244v-211q149 -33 249 -117v100h332v-551h-342q-33 109 -93 164.5t-142 55.5q-115 0 -169.5 -104.5t-54.5 -313.5q0 -221 55.5 -325.5t174.5 -104.5q104 0 165.5 82t90.5 256l358 -140q-59 -270 -215 -402t-409 -147v-253
h-244v270q-277 53 -426.5 261t-149.5 513z" />
    <glyph glyph-name="afii61352" unicode="&#x2116;" horiz-adv-x="2245" 
d="M1016 719v467h-94v321h452v-321h-98v-1211h-369l-471 918h-4v-571h103v-322h-461v322h98v864h-98v321h530l410 -788h2zM2193 725q0 -121 -52 -213t-143 -143.5t-204 -51.5t-204 50.5t-143 142.5t-52 215q0 121 52 213t143 142t204 50q111 0 202 -49t144 -141t53 -215z
M1792 545q51 0 76.5 47t25.5 137q0 84 -25.5 129t-74.5 45q-47 0 -72.5 -46t-25.5 -134q0 -86 24.5 -132t71.5 -46zM2193 0h-798v244h798v-244z" />
    <glyph glyph-name="trademark" unicode="&#x2122;" horiz-adv-x="2410" 
d="M797 1135v159h-103v-458h78v-211h-498v211h78v458h-102v-159h-166v372h879v-372h-166zM1788 1507h528v-213h-67v-458h67v-211h-458v211h69v489h-2l-262 -700h-133l-262 700h-2v-489h69v-211h-342v211h68v458h-68v213h531l129 -340z" />
    <glyph glyph-name="glyph140" horiz-adv-x="739" 
d="M-61 1202v236h862v-236h-862z" />
    <glyph glyph-name="glyph221" horiz-adv-x="1483" 
d="M117 578v350h1247v-350h-1247z" />
    <glyph glyph-name="glyph225" horiz-adv-x="901" 
d="M840 1479v-176h-92v-58h92v-196h-494v196h109v58h-371l-57 188l430 385h291v-397h92zM455 1640l-179 -161h179v161z" />
    <glyph glyph-name="glyph292" 
d="M1298 872v273h-172v-783h134v-362h-852v362h133v783h-172v-273h-285v635h1499v-635h-285zM676 -473h-59v119h37q67 0 101 8t45 26.5t11 55.5h-194v188h424v-153q0 -97 -35 -148t-112 -73.5t-218 -22.5z" />
    <glyph glyph-name="glyph293" horiz-adv-x="1016" 
d="M920 721h-224v-225q0 -76 20.5 -111t76.5 -35q26 0 62 10.5t65 24.5v-324q-60 -41 -161.5 -66.5t-197.5 -25.5q-207 0 -308 102.5t-101 295.5v354h-138v332h138v159l544 261v-420h224v-332zM356 -473h-59v119h37q67 0 101 8t45 26.5t11 55.5h-194v188h424v-153
q0 -97 -35 -148t-112 -73.5t-218 -22.5z" />
    <glyph glyph-name="glyph313" horiz-adv-x="739" 
d="M631 1425q0 -71 -36 -131.5t-96.5 -95.5t-129.5 -35q-72 0 -132.5 36t-95.5 95.5t-35 130.5q0 70 35 130.5t95.5 96.5t132.5 36q69 0 129.5 -36t96.5 -96.5t36 -130.5zM369 1315q47 0 78.5 32.5t31.5 77.5q0 48 -31.5 79.5t-78.5 31.5q-45 0 -78 -31.5t-33 -79.5
q0 -45 33 -77.5t78 -32.5z" />
    <glyph glyph-name="glyph497" horiz-adv-x="346" 
d="M-453 0l1016 1507h238l-1016 -1507h-238z" />
    <glyph glyph-name="glyph521" horiz-adv-x="1626" 
d="M373 1323h-187v184h1287v-184h-377q55 -76 71 -176h306v-184h-306q-20 -115 -96 -200t-225 -116l325 -285h95v-362h-430l-650 602v184h174q238 0 283 177h-457v184h457q-20 84 -84.5 129t-185.5 47z" />
    <glyph glyph-name="glyph522" horiz-adv-x="1626" 
d="M262 1507h584v-209l274 78v-184l-274 -78v-141l274 78v-185l-274 -78v-426h49q156 0 231.5 112t75.5 286h361q0 -398 -187.5 -579t-595.5 -181h-653v362h135v263l-211 -60v185l211 59v141l-211 -59v184l211 60v372z" />
    <glyph glyph-name="glyph523" horiz-adv-x="1626" 
d="M293 1145h-146v362h830q186 0 321.5 -59t206 -168t70.5 -254q0 -147 -75 -251.5t-195.5 -156t-253.5 -51.5h-238v-137h412v-184h-412v-246h-520v246h-236v184h236v137h-236v185h236v393zM1010 1036q0 76 -42 108t-124 32h-31v-277h47q72 0 111 35t39 102z" />
    <glyph glyph-name="glyph524" horiz-adv-x="2429" 
d="M68 332h139v84q0 387 197.5 611t603.5 265v246h413v-246q406 -43 603.5 -266t197.5 -608v-86h139v-332h-686v362q0 265 -55 395t-199 171v-738h-413v738q-99 -27 -154 -94.5t-77.5 -181t-22.5 -292.5v-360h-686v332z" />
    <glyph glyph-name="glyph525" horiz-adv-x="739" 
d="M324 1602l-394 350h453l186 -350h-245z" />
    <glyph glyph-name="glyph526" horiz-adv-x="739" 
d="M283 1786q0 -74 -51.5 -127t-127.5 -53q-73 0 -127.5 52t-54.5 128t54.5 128t127.5 52q76 0 127.5 -53t51.5 -127zM827 1786q0 -74 -52 -127t-128 -53q-74 0 -127 52t-53 128t53 128t127 52q76 0 128 -53t52 -127z" />
    <glyph glyph-name="glyph527" horiz-adv-x="739" 
d="M156 1602l198 350h453l-404 -350h-247z" />
    <glyph glyph-name="glyph528" horiz-adv-x="739" 
d="M557 1602l-186 137l-189 -137h-276l231 354h467l230 -354h-277z" />
    <glyph glyph-name="glyph529" horiz-adv-x="739" 
d="M528 1954h277l-203 -352h-467l-201 352h277l158 -133z" />
    <glyph glyph-name="glyph530" horiz-adv-x="739" 
d="M-61 1614v235h862v-235h-862z" />
    <glyph glyph-name="glyph531" horiz-adv-x="739" 
d="M375 1827q71 0 113 26.5t61 81.5h256q-19 -161 -136.5 -250.5t-308.5 -89.5q-182 0 -295.5 90.5t-130.5 249.5h256q9 -49 59 -78.5t126 -29.5z" />
    <glyph glyph-name="glyph532" horiz-adv-x="739" 
d="M551 1792q0 -76 -52.5 -129t-127.5 -53q-76 0 -129.5 53t-53.5 129q0 74 54.5 126t128.5 52q73 0 126.5 -52t53.5 -126z" />
    <glyph glyph-name="glyph533" horiz-adv-x="739" 
d="M631 1837q0 -72 -36 -132t-96.5 -95t-129.5 -35q-109 0 -186 77t-77 185q0 70 35 130.5t95.5 96t132.5 35.5q71 0 131.5 -35.5t95.5 -96t35 -130.5zM369 1726q47 0 78.5 32t31.5 79t-31.5 79t-78.5 32q-45 0 -78 -32t-33 -79t32 -79t79 -32z" />
    <glyph glyph-name="glyph534" horiz-adv-x="739" 
d="M528 1589q-47 0 -90 14.5t-90 38.5q-29 17 -55.5 27t-46.5 10q-35 0 -58.5 -22.5t-29.5 -63.5h-219q16 164 86.5 254t181.5 90q45 0 87 -13t97 -40q31 -14 58.5 -24.5t50.5 -10.5q35 0 54 21.5t30 68.5h217q-8 -165 -82 -257.5t-191 -92.5z" />
    <glyph glyph-name="glyph535" horiz-adv-x="739" 
d="M-39 1602l186 350h451l-403 -350h-234zM530 1602l187 350h450l-403 -350h-234z" />
    <glyph glyph-name="glyph536" horiz-adv-x="813" 
d="M262 -473h-59v119h37q67 0 101 8t45 26.5t11 55.5h-194v188h424v-153q0 -97 -35 -148t-112 -73.5t-218 -22.5z" />
    <glyph glyph-name="glyph537" horiz-adv-x="739" 
d="M379 1391q72 0 119 50t47 142h411q0 -178 -164.5 -278.5t-435.5 -100.5q-254 0 -413.5 100.5t-159.5 278.5h414q0 -90 51 -141t131 -51z" />
    <glyph glyph-name="glyph538" horiz-adv-x="739" 
d="M379 1804q72 0 119 50.5t47 142.5h411q0 -178 -165.5 -278.5t-434.5 -100.5q-254 0 -412.5 99.5t-160.5 279.5h414q0 -90 52 -141.5t130 -51.5z" />
    <glyph glyph-name="glyph539" horiz-adv-x="791" 
d="M248 1110h-60v119h37q68 0 101.5 8t45.5 26.5t11 55.5h-195v188h424v-153q0 -96 -34.5 -148t-112 -74t-217.5 -22z" />
    </font>
</defs>
</svg>
